<?xml version="1.0" encoding="UTF-8" standalone="no"?>
<svg
   xmlns:dc="http://purl.org/dc/elements/1.1/"
   xmlns:cc="http://creativecommons.org/ns#"
   xmlns:rdf="http://www.w3.org/1999/02/22-rdf-syntax-ns#"
   xmlns:svg="http://www.w3.org/2000/svg"
   xmlns="http://www.w3.org/2000/svg"
   xmlns:sodipodi="http://sodipodi.sourceforge.net/DTD/sodipodi-0.dtd"
   xmlns:inkscape="http://www.inkscape.org/namespaces/inkscape"
   version="1.1"
   id="svg2"
   viewBox="0 0 480 640.00002"
   height="640"
   width="480"
   inkscape:version="0.92.3 (2405546, 2018-03-11)"
   sodipodi:docname="banko_piyango.svg">
  <sodipodi:namedview
     pagecolor="#ffffff"
     bordercolor="#666666"
     borderopacity="1"
     objecttolerance="10"
     gridtolerance="10"
     guidetolerance="10"
     inkscape:pageopacity="0"
     inkscape:pageshadow="2"
     inkscape:window-width="1920"
     inkscape:window-height="1048"
     id="namedview8"
     showgrid="false"
     inkscape:snap-midpoints="true"
     inkscape:object-paths="true"
     inkscape:snap-intersection-paths="true"
     inkscape:object-nodes="true"
     inkscape:snap-smooth-nodes="true"
     inkscape:snap-bbox="true"
     inkscape:zoom="2.78"
     inkscape:cx="207.40055"
     inkscape:cy="492.97727"
     inkscape:window-x="0"
     inkscape:window-y="0"
     inkscape:window-maximized="1"
     inkscape:current-layer="svg2"
     inkscape:snap-nodes="true"
     fit-margin-top="0"
     fit-margin-left="0"
     fit-margin-right="0"
     fit-margin-bottom="0" />
  <defs
     id="defs4" />
  <metadata
     id="metadata7">
    <rdf:RDF>
      <cc:Work
         rdf:about="">
        <dc:format>image/svg+xml</dc:format>
        <dc:type
           rdf:resource="http://purl.org/dc/dcmitype/StillImage" />
        <dc:title />
      </cc:Work>
    </rdf:RDF>
  </metadata>
  <path
     inkscape:connector-curvature="0"
     id="path4270"
     d="m 26.247077,238.54981 427.520363,0"
     style="opacity:1;fill:none;fill-rule:evenodd;stroke:#333333;stroke-width:0.9999997;stroke-linecap:butt;stroke-linejoin:miter;stroke-miterlimit:4;stroke-dasharray:3.9999992, 3.99999919999999998;stroke-dashoffset:0;stroke-opacity:1" />
  <path
     style="opacity:1;fill:none;fill-rule:evenodd;stroke:#333333;stroke-width:0.9999997;stroke-linecap:butt;stroke-linejoin:miter;stroke-miterlimit:4;stroke-dasharray:3.9999992, 3.99999919999999998;stroke-dashoffset:0;stroke-opacity:1"
     d="m 26.247065,302.28194 427.520375,0"
     id="path4272"
     inkscape:connector-curvature="0" />
  <path
     inkscape:connector-curvature="0"
     id="path4274"
     d="m 26.247071,297.83551 427.520369,0"
     style="opacity:1;fill:none;fill-rule:evenodd;stroke:#333333;stroke-width:0.9999997;stroke-linecap:butt;stroke-linejoin:miter;stroke-miterlimit:4;stroke-dasharray:3.9999992, 3.99999919999999998;stroke-dashoffset:0;stroke-opacity:1" />
  <path
     style="opacity:1;fill:none;fill-rule:evenodd;stroke:#333333;stroke-width:0.9999997;stroke-linecap:butt;stroke-linejoin:miter;stroke-miterlimit:4;stroke-dasharray:3.9999992, 3.99999919999999998;stroke-dashoffset:0;stroke-opacity:1"
     d="m 26.247065,242.99624 427.520375,0"
     id="path4276"
     inkscape:connector-curvature="0" />
  <g
     id="g4513"
     transform="matrix(18.869711,0,0,16.701158,-27.905776,13.136612)"
     style="opacity:1;stroke-width:0.79560816;fill:#333333">
    <g
       style="stroke-width:0.79560816;fill:#333333"
       transform="matrix(0.64057502,0,0,0.46112572,0.0046712,18.161971)"
       id="g4422">
      <rect
         style="fill:#333333;stroke-width:0.79560816"
         x="7.4005513"
         y="29.219694"
         width="0.18942448"
         height="5.6827345"
         id="barcode_bar1" />
      <rect
         style="fill:#333333;stroke-width:0.79560816"
         x="7.7794003"
         y="29.219694"
         width="0.18942448"
         height="5.6827345"
         id="barcode_bar3" />
      <rect
         style="fill:#333333;stroke-width:0.79560816"
         x="8.1582489"
         y="29.219694"
         width="0.18942448"
         height="5.6827345"
         id="barcode_bar5" />
      <rect
         style="fill:#333333;stroke-width:0.79560816"
         x="8.7265224"
         y="29.219694"
         width="0.18942448"
         height="5.6827345"
         id="barcode_bar7" />
      <rect
         style="fill:#333333;stroke-width:0.79560816"
         x="9.1053715"
         y="29.219694"
         width="0.37884897"
         height="5.6827345"
         id="barcode_bar9" />
      <rect
         style="fill:#333333;stroke-width:0.79560816"
         x="9.673645"
         y="29.219694"
         width="0.18942448"
         height="5.6827345"
         id="barcode_bar11" />
      <rect
         style="fill:#333333;stroke-width:0.79560816"
         x="10.241919"
         y="29.219694"
         width="0.37884897"
         height="5.6827345"
         id="barcode_bar13" />
      <rect
         style="fill:#333333;stroke-width:0.79560816"
         x="10.810192"
         y="29.219694"
         width="0.37884897"
         height="5.6827345"
         id="barcode_bar15" />
      <rect
         style="fill:#333333;stroke-width:0.79560816"
         x="11.56789"
         y="29.219694"
         width="0.18942448"
         height="5.6827345"
         id="barcode_bar17" />
      <rect
         style="fill:#333333;stroke-width:0.79560816"
         x="11.946739"
         y="29.219694"
         width="0.18942448"
         height="5.6827345"
         id="barcode_bar19" />
      <rect
         style="fill:#333333;stroke-width:0.79560816"
         x="12.515013"
         y="29.219694"
         width="0.18942448"
         height="5.6827345"
         id="barcode_bar21" />
      <rect
         style="fill:#333333;stroke-width:0.79560816"
         x="12.893862"
         y="29.219694"
         width="0.37884897"
         height="5.6827345"
         id="barcode_bar23" />
      <rect
         style="fill:#333333;stroke-width:0.79560816"
         x="13.462135"
         y="29.219694"
         width="0.37884897"
         height="5.6827345"
         id="barcode_bar25" />
      <rect
         style="fill:#333333;stroke-width:0.79560816"
         x="14.030408"
         y="29.219694"
         width="0.18942448"
         height="5.6827345"
         id="barcode_bar27" />
      <rect
         style="fill:#333333;stroke-width:0.79560816"
         x="14.598681"
         y="29.219694"
         width="0.18942448"
         height="5.6827345"
         id="barcode_bar29" />
      <rect
         style="fill:#333333;stroke-width:0.79560816"
         x="15.166955"
         y="29.219694"
         width="0.18942448"
         height="5.6827345"
         id="barcode_bar31" />
      <rect
         style="fill:#333333;stroke-width:0.79560816"
         x="15.545804"
         y="29.219694"
         width="0.37884897"
         height="5.6827345"
         id="barcode_bar33" />
      <rect
         style="fill:#333333;stroke-width:0.79560816"
         x="16.114079"
         y="29.219694"
         width="0.18942448"
         height="5.6827345"
         id="barcode_bar35" />
      <rect
         style="fill:#333333;stroke-width:0.79560816"
         x="16.682352"
         y="29.219694"
         width="0.37884897"
         height="5.6827345"
         id="barcode_bar37" />
      <rect
         style="fill:#333333;stroke-width:0.79560816"
         x="17.440048"
         y="29.219694"
         width="0.18942448"
         height="5.6827345"
         id="barcode_bar39" />
      <rect
         style="fill:#333333;stroke-width:0.79560816"
         x="17.818897"
         y="29.219694"
         width="0.18942448"
         height="5.6827345"
         id="barcode_bar41" />
      <rect
         style="fill:#333333;stroke-width:0.79560816"
         x="18.197746"
         y="29.219694"
         width="0.37884897"
         height="5.6827345"
         id="barcode_bar43" />
      <rect
         style="fill:#333333;stroke-width:0.79560816"
         x="18.76602"
         y="29.219694"
         width="0.18942448"
         height="5.6827345"
         id="barcode_bar45" />
      <rect
         style="fill:#333333;stroke-width:0.79560816"
         x="19.144869"
         y="29.219694"
         width="0.18942448"
         height="5.6827345"
         id="barcode_bar47" />
      <rect
         style="fill:#333333;stroke-width:0.79560816"
         x="19.713142"
         y="29.219694"
         width="0.37884897"
         height="5.6827345"
         id="barcode_bar49" />
      <rect
         style="fill:#333333;stroke-width:0.79560816"
         x="20.281416"
         y="29.219694"
         width="0.18942448"
         height="5.6827345"
         id="barcode_bar51" />
      <rect
         style="fill:#333333;stroke-width:0.79560816"
         x="20.660265"
         y="29.219694"
         width="0.37884897"
         height="5.6827345"
         id="barcode_bar53" />
      <rect
         style="fill:#333333;stroke-width:0.79560816"
         x="21.417963"
         y="29.219694"
         width="0.37884897"
         height="5.6827345"
         id="barcode_bar55" />
      <rect
         style="fill:#333333;stroke-width:0.79560816"
         x="21.986237"
         y="29.219694"
         width="0.18942448"
         height="5.6827345"
         id="barcode_bar57" />
    </g>
    <g
       style="stroke-width:0.79560816;fill:#333333"
       id="g4453"
       transform="matrix(0.64057502,0,0,0.46112572,9.4456374,18.161971)">
      <rect
         id="rect4455"
         height="5.6827345"
         width="0.18942448"
         y="29.219694"
         x="7.4005513"
         style="fill:#333333;stroke-width:0.79560816" />
      <rect
         id="rect4457"
         height="5.6827345"
         width="0.18942448"
         y="29.219694"
         x="7.7794003"
         style="fill:#333333;stroke-width:0.79560816" />
      <rect
         id="rect4459"
         height="5.6827345"
         width="0.18942448"
         y="29.219694"
         x="8.1582489"
         style="fill:#333333;stroke-width:0.79560816" />
      <rect
         id="rect4461"
         height="5.6827345"
         width="0.18942448"
         y="29.219694"
         x="8.7265224"
         style="fill:#333333;stroke-width:0.79560816" />
      <rect
         id="rect4463"
         height="5.6827345"
         width="0.37884897"
         y="29.219694"
         x="9.1053715"
         style="fill:#333333;stroke-width:0.79560816" />
      <rect
         id="rect4465"
         height="5.6827345"
         width="0.18942448"
         y="29.219694"
         x="9.673645"
         style="fill:#333333;stroke-width:0.79560816" />
      <rect
         id="rect4467"
         height="5.6827345"
         width="0.37884897"
         y="29.219694"
         x="10.241919"
         style="fill:#333333;stroke-width:0.79560816" />
      <rect
         id="rect4469"
         height="5.6827345"
         width="0.37884897"
         y="29.219694"
         x="10.810192"
         style="fill:#333333;stroke-width:0.79560816" />
      <rect
         id="rect4471"
         height="5.6827345"
         width="0.18942448"
         y="29.219694"
         x="11.56789"
         style="fill:#333333;stroke-width:0.79560816" />
      <rect
         id="rect4473"
         height="5.6827345"
         width="0.18942448"
         y="29.219694"
         x="11.946739"
         style="fill:#333333;stroke-width:0.79560816" />
      <rect
         id="rect4475"
         height="5.6827345"
         width="0.18942448"
         y="29.219694"
         x="12.515013"
         style="fill:#333333;stroke-width:0.79560816" />
      <rect
         id="rect4477"
         height="5.6827345"
         width="0.37884897"
         y="29.219694"
         x="12.893862"
         style="fill:#333333;stroke-width:0.79560816" />
      <rect
         id="rect4479"
         height="5.6827345"
         width="0.37884897"
         y="29.219694"
         x="13.462135"
         style="fill:#333333;stroke-width:0.79560816" />
      <rect
         id="rect4481"
         height="5.6827345"
         width="0.18942448"
         y="29.219694"
         x="14.030408"
         style="fill:#333333;stroke-width:0.79560816" />
      <rect
         id="rect4483"
         height="5.6827345"
         width="0.18942448"
         y="29.219694"
         x="14.598681"
         style="fill:#333333;stroke-width:0.79560816" />
      <rect
         id="rect4485"
         height="5.6827345"
         width="0.18942448"
         y="29.219694"
         x="15.166955"
         style="fill:#333333;stroke-width:0.79560816" />
      <rect
         id="rect4487"
         height="5.6827345"
         width="0.37884897"
         y="29.219694"
         x="15.545804"
         style="fill:#333333;stroke-width:0.79560816" />
      <rect
         id="rect4489"
         height="5.6827345"
         width="0.18942448"
         y="29.219694"
         x="16.114079"
         style="fill:#333333;stroke-width:0.79560816" />
      <rect
         id="rect4491"
         height="5.6827345"
         width="0.37884897"
         y="29.219694"
         x="16.682352"
         style="fill:#333333;stroke-width:0.79560816" />
      <rect
         id="rect4493"
         height="5.6827345"
         width="0.18942448"
         y="29.219694"
         x="17.440048"
         style="fill:#333333;stroke-width:0.79560816" />
      <rect
         id="rect4495"
         height="5.6827345"
         width="0.18942448"
         y="29.219694"
         x="17.818897"
         style="fill:#333333;stroke-width:0.79560816" />
      <rect
         id="rect4497"
         height="5.6827345"
         width="0.37884897"
         y="29.219694"
         x="18.197746"
         style="fill:#333333;stroke-width:0.79560816" />
      <rect
         id="rect4499"
         height="5.6827345"
         width="0.18942448"
         y="29.219694"
         x="18.76602"
         style="fill:#333333;stroke-width:0.79560816" />
      <rect
         id="rect4501"
         height="5.6827345"
         width="0.18942448"
         y="29.219694"
         x="19.144869"
         style="fill:#333333;stroke-width:0.79560816" />
      <rect
         id="rect4503"
         height="5.6827345"
         width="0.37884897"
         y="29.219694"
         x="19.713142"
         style="fill:#333333;stroke-width:0.79560816" />
      <rect
         id="rect4505"
         height="5.6827345"
         width="0.18942448"
         y="29.219694"
         x="20.281416"
         style="fill:#333333;stroke-width:0.79560816" />
      <rect
         id="rect4507"
         height="5.6827345"
         width="0.37884897"
         y="29.219694"
         x="20.660265"
         style="fill:#333333;stroke-width:0.79560816" />
      <rect
         id="rect4509"
         height="5.6827345"
         width="0.37884897"
         y="29.219694"
         x="21.417963"
         style="fill:#333333;stroke-width:0.79560816" />
      <rect
         id="rect4511"
         height="5.6827345"
         width="0.18942448"
         y="29.219694"
         x="21.986237"
         style="fill:#333333;stroke-width:0.79560816" />
    </g>
  </g>
  <rect
     style="opacity:0.5;fill:none;fill-opacity:0.19607843;fill-rule:nonzero;stroke:#ffffff;stroke-width:0.9999997;stroke-miterlimit:4;stroke-dasharray:3.9999992, 1.9999996;stroke-dashoffset:0;stroke-opacity:1"
     id="rect4745"
     width="478.99921"
     height="639.00079"
     x="0.50039804"
     y="0.49959862" />
  <g
     transform="matrix(3.7795276,0,0,3.7795276,-129.88684,-260.34757)"
     id="g1496">
    <path
       sodipodi:nodetypes="cssccccsssc"
       inkscape:connector-curvature="0"
       id="path1471"
       d="m 76.587426,113.72879 v -10.2526 c 0,-2.76395 2.809179,-5.138112 5.575148,-5.138112 2.574962,0 5.291665,1.948922 5.291665,4.665642 0,3.16555 -1.700891,4.58296 -3.732513,6.37835 l -1.81901,-2.97656 c 0,0 0.826823,-0.75595 1.535528,-1.32292 0.95805,-0.9389 0.425223,-2.69308 -1.181175,-2.69308 -1.606399,0 -1.700893,1.41741 -1.700893,1.70089 v 5.95313 c 0,1.37016 -0.803199,3.68526 -3.96875,3.68526 z"
       style="fill:#808080;stroke:#808080;stroke-width:0.26458332px;stroke-linecap:butt;stroke-linejoin:miter;stroke-opacity:1" />
    <path
       inkscape:connector-curvature="0"
       id="path1469"
       transform="scale(0.26458333)"
       d="m 288.75,305.01953 v 56.25 c 0,9.82143 10.17773,19.28516 20.17773,19.28516 10,0 21.60743,-9.28461 21.60743,-19.82031 0,-10.53573 -8.21373,-21.25001 -20.53516,-21.25 -3.12499,0 -6.51758,1.51757 -6.51758,1.51757 V 316.0918 c 0,-5.53572 -5.80385,-11.07227 -14.73242,-11.07227 z m 21.09375,45.93164 c 4.72241,-0.13616 10.03853,1.37894 9.66406,9.01563 -0.65542,13.36627 -16.65039,6.48242 -16.65039,6.48242 v -14.28711 c 0,0 3.31335,-1.10504 6.98633,-1.21094 z"
       style="fill:#4d4d4d;stroke:#4d4d4d;stroke-width:0.99999994px;stroke-linecap:butt;stroke-linejoin:miter;stroke-opacity:1" />
    <g
       aria-label="ank"
       style="font-style:normal;font-variant:normal;font-weight:bold;font-stretch:normal;font-size:10.58333302px;line-height:1.25;font-family:'Nimbus Sans L';-inkscape-font-specification:'Nimbus Sans L Bold';letter-spacing:0px;word-spacing:0px;fill:#000000;fill-opacity:1;stroke:none;stroke-width:0.26458332"
       id="text1475">
      <path
         d="M 93.244414,98.867051 C 92.99747,98.639862 92.928325,98.491695 92.928325,98.215118 v -2.963334 c 0,-1.086555 -0.740833,-1.639711 -2.182989,-1.639711 -1.442155,0 -2.192866,0.612422 -2.281766,1.847144 h 1.3335 c 0.06914,-0.553155 0.296333,-0.730955 0.9779,-0.730955 0.5334,0 0.8001,0.1778 0.8001,0.5334 0,0.1778 -0.0889,0.335844 -0.237067,0.414867 -0.187678,0.09878 -0.187678,0.09878 -0.869244,0.207433 l -0.553156,0.09878 c -1.056922,0.1778 -1.570567,0.721078 -1.570567,1.679222 0,0.454378 0.128411,0.829733 0.375356,1.096433 0.306211,0.316089 0.770467,0.503767 1.2446,0.503767 0.592667,0 1.135944,-0.256822 1.619956,-0.760589 0,0.276578 0.02963,0.375356 0.158044,0.5334 h 1.501422 z M 91.57507,96.891495 c 0,0.8001 -0.395111,1.254478 -1.096434,1.254478 -0.464255,0 -0.750711,-0.246944 -0.750711,-0.642055 0,-0.414867 0.217311,-0.612423 0.790223,-0.730956 l 0.474133,-0.0889 c 0.365478,-0.06914 0.424744,-0.0889 0.582789,-0.167922 z"
         style="font-style:normal;font-variant:normal;font-weight:bold;font-stretch:normal;font-size:9.87777805px;font-family:'Nimbus Sans L';-inkscape-font-specification:'Nimbus Sans L Bold';stroke-width:0.26458332"
         id="path889" />
      <path
         d="m 94.189131,93.700973 v 5.334 h 1.382889 v -3.2004 c 0,-0.632178 0.4445,-1.047044 1.116189,-1.047044 0.592667,0 0.889,0.325966 0.889,0.958144 v 3.2893 h 1.382889 v -3.575756 c 0,-1.175455 -0.651933,-1.847144 -1.787878,-1.847144 -0.721078,0 -1.205089,0.2667 -1.6002,0.859367 v -0.770467 z"
         style="font-style:normal;font-variant:normal;font-weight:bold;font-stretch:normal;font-size:9.87777805px;font-family:'Nimbus Sans L';-inkscape-font-specification:'Nimbus Sans L Bold';stroke-width:0.26458332"
         id="path891" />
      <path
         d="m 101.57107,95.775306 v -3.941233 h -1.38289 v 7.2009 h 1.38289 v -1.748367 l 0.55316,-0.602544 1.27423,2.350911 h 1.61996 l -1.94593,-3.318933 1.81752,-2.015067 h -1.57057 z"
         style="font-style:normal;font-variant:normal;font-weight:bold;font-stretch:normal;font-size:9.87777805px;font-family:'Nimbus Sans L';-inkscape-font-specification:'Nimbus Sans L Bold';stroke-width:0.26458332"
         id="path893" />
    </g>
    <g
       aria-label="iyang"
       style="font-style:normal;font-weight:normal;font-size:10.58333302px;line-height:1.25;font-family:sans-serif;letter-spacing:0px;word-spacing:0px;fill:#000000;fill-opacity:1;stroke:none;stroke-width:0.26458332"
       id="text1479">
      <path
         d="M 89.245458,102.40651 H 88.25768 v 3.81 h 0.987778 z m 0,-1.3335 H 88.25768 v 0.88194 h 0.987778 z"
         style="font-style:normal;font-variant:normal;font-weight:bold;font-stretch:normal;font-size:7.05555534px;font-family:'Nimbus Sans L';-inkscape-font-specification:'Nimbus Sans L Bold';stroke-width:0.26458332"
         id="path896" />
      <path
         d="m 92.521661,102.40651 -0.790222,2.77283 -0.839611,-2.77283 h -1.086556 l 1.418167,3.96522 v 0.007 0.0212 c 0,0.35983 -0.268111,0.635 -0.613834,0.635 -0.07761,0 -0.134055,-0.007 -0.261055,-0.0423 v 0.74083 c 0.148166,0.0212 0.232833,0.0282 0.352778,0.0282 0.246944,0 0.543277,-0.0494 0.712611,-0.11994 0.275166,-0.11289 0.395111,-0.27517 0.557389,-0.72672 l 1.566333,-4.5085 z"
         style="font-style:normal;font-variant:normal;font-weight:bold;font-stretch:normal;font-size:7.05555534px;font-family:'Nimbus Sans L';-inkscape-font-specification:'Nimbus Sans L Bold';stroke-width:0.26458332"
         id="path898" />
      <path
         d="m 97.366292,106.09656 c -0.176389,-0.16228 -0.225778,-0.26811 -0.225778,-0.46566 v -2.11667 c 0,-0.77611 -0.529167,-1.17122 -1.559278,-1.17122 -1.030111,0 -1.566333,0.43744 -1.629833,1.31939 h 0.9525 c 0.04939,-0.39512 0.211667,-0.52212 0.6985,-0.52212 0.381,0 0.5715,0.127 0.5715,0.381 0,0.127 -0.0635,0.23989 -0.169333,0.29634 -0.134056,0.0705 -0.134056,0.0705 -0.620889,0.14816 l -0.395111,0.0706 c -0.754945,0.127 -1.121834,0.51506 -1.121834,1.19944 0,0.32456 0.09172,0.59267 0.268112,0.78317 0.218722,0.22578 0.550333,0.35983 0.888999,0.35983 0.423334,0 0.811389,-0.18344 1.157112,-0.54327 0,0.19755 0.02117,0.26811 0.112888,0.381 h 1.072445 z m -1.192389,-1.41111 c 0,0.5715 -0.282222,0.89606 -0.783167,0.89606 -0.331611,0 -0.536222,-0.17639 -0.536222,-0.45861 0,-0.29634 0.155222,-0.43745 0.564445,-0.52212 l 0.338666,-0.0635 c 0.261056,-0.0494 0.303389,-0.0635 0.416278,-0.11994 z"
         style="font-style:normal;font-variant:normal;font-weight:bold;font-stretch:normal;font-size:7.05555534px;font-family:'Nimbus Sans L';-inkscape-font-specification:'Nimbus Sans L Bold';stroke-width:0.26458332"
         id="path900" />
      <path
         d="m 98.041089,102.40651 v 3.81 h 0.987778 v -2.286 c 0,-0.45156 0.3175,-0.74789 0.797278,-0.74789 0.423335,0 0.634995,0.23283 0.634995,0.68439 v 2.3495 h 0.98778 v -2.55411 c 0,-0.83962 -0.46566,-1.31939 -1.27705,-1.31939 -0.515059,0 -0.860781,0.1905 -1.143003,0.61383 v -0.55033 z"
         style="font-style:normal;font-variant:normal;font-weight:bold;font-stretch:normal;font-size:7.05555534px;font-family:'Nimbus Sans L';-inkscape-font-specification:'Nimbus Sans L Bold';stroke-width:0.26458332"
         id="path902" />
      <path
         d="m 104.78852,102.40651 v 0.58561 c -0.29634,-0.45156 -0.62089,-0.64911 -1.05834,-0.64911 -0.90311,0 -1.58044,0.88194 -1.58044,2.06022 0,1.18533 0.62089,1.97555 1.55928,1.97555 0.4445,0 0.71261,-0.13405 1.0795,-0.55033 v 0.51506 c 0,0.45861 -0.34573,0.77611 -0.83962,0.77611 -0.37394,0 -0.62088,-0.15522 -0.6985,-0.4445 h -1.02305 c 0.007,0.29633 0.11994,0.50094 0.37394,0.71261 0.30339,0.24694 0.72673,0.36689 1.31234,0.36689 1.15005,0 1.81327,-0.51506 1.81327,-1.41111 v -3.937 z m -0.84667,0.762 c 0.49389,0 0.86078,0.51505 0.86078,1.22061 0,0.69144 -0.35984,1.16416 -0.87489,1.16416 -0.46567,0 -0.79022,-0.47272 -0.79022,-1.16416 0,-0.71967 0.32455,-1.22061 0.80433,-1.22061 z"
         style="font-style:normal;font-variant:normal;font-weight:bold;font-stretch:normal;font-size:7.05555534px;font-family:'Nimbus Sans L';-inkscape-font-specification:'Nimbus Sans L Bold';stroke-width:0.26458332"
         id="path904" />
    </g>
    <circle
       r="7.1828685"
       cy="98.719414"
       cx="112.28661"
       id="path1485"
       style="opacity:1;fill:#4d4d4d;fill-opacity:0.97814175;stroke:#4d4d4d;stroke-width:0;stroke-miterlimit:4;stroke-dasharray:none;stroke-dashoffset:0;stroke-opacity:1" />
    <circle
       r="4.2429037"
       cy="98.719414"
       cx="112.28661"
       id="path1483"
       style="opacity:1;fill:#808080;fill-opacity:0.97814175;stroke:#808080;stroke-width:0;stroke-miterlimit:4;stroke-dasharray:none;stroke-dashoffset:0;stroke-opacity:1" />
  </g>
</svg>
