<?xml version="1.0" encoding="UTF-8" standalone="no"?>
<svg
   xmlns:dc="http://purl.org/dc/elements/1.1/"
   xmlns:cc="http://creativecommons.org/ns#"
   xmlns:rdf="http://www.w3.org/1999/02/22-rdf-syntax-ns#"
   xmlns:svg="http://www.w3.org/2000/svg"
   xmlns="http://www.w3.org/2000/svg"
   xmlns:sodipodi="http://sodipodi.sourceforge.net/DTD/sodipodi-0.dtd"
   xmlns:inkscape="http://www.inkscape.org/namespaces/inkscape"
   version="1.1"
   id="svg2"
   viewBox="0 0 480 197.7477"
   height="197.7477"
   width="480"
   inkscape:version="0.92.3 (2405546, 2018-03-11)"
   sodipodi:docname="overlay_milli_piyango_old.svg">
  <sodipodi:namedview
     pagecolor="#ffffff"
     bordercolor="#666666"
     borderopacity="1"
     objecttolerance="10"
     gridtolerance="10"
     guidetolerance="10"
     inkscape:pageopacity="0"
     inkscape:pageshadow="2"
     inkscape:window-width="1920"
     inkscape:window-height="1048"
     id="namedview8"
     showgrid="false"
     inkscape:snap-midpoints="true"
     inkscape:object-paths="true"
     inkscape:snap-intersection-paths="true"
     inkscape:object-nodes="true"
     inkscape:snap-smooth-nodes="true"
     inkscape:snap-bbox="true"
     inkscape:zoom="1.23"
     inkscape:cx="212.39903"
     inkscape:cy="19.18715"
     inkscape:window-x="0"
     inkscape:window-y="32"
     inkscape:window-maximized="1"
     inkscape:current-layer="svg2"
     inkscape:snap-nodes="true"
     fit-margin-top="0"
     fit-margin-left="0"
     fit-margin-right="0"
     fit-margin-bottom="0"
     inkscape:document-units="mm"
     units="px"
     showguides="true"
     inkscape:guide-bbox="true" />
  <defs
     id="defs4" />
  <metadata
     id="metadata7">
    <rdf:RDF>
      <cc:Work
         rdf:about="">
        <dc:format>image/svg+xml</dc:format>
        <dc:type
           rdf:resource="http://purl.org/dc/dcmitype/StillImage" />
        <dc:title></dc:title>
      </cc:Work>
    </rdf:RDF>
  </metadata>
  <rect
     style="opacity:1;fill:#ffffff;fill-opacity:0.98913042;stroke:#ffffff;stroke-width:0;stroke-miterlimit:4;stroke-dasharray:none;stroke-opacity:1"
     id="rect847"
     width="47.812477"
     height="156.99991"
     x="524.46039"
     y="0.22987774" />
  <rect
     style="opacity:1;fill:#ffffff;fill-opacity:0.98913042;stroke:#ffffff;stroke-width:0;stroke-miterlimit:4;stroke-dasharray:none;stroke-opacity:1"
     id="rect820"
     width="175.0567"
     height="35.659698"
     x="304.9433"
     y="81.043999" />
  <g
     id="g98"
     transform="matrix(1.3014268,0,0,1.3014268,-7.6221385,-5.9941106)">
    <g
       transform="matrix(0.23186397,0,0,0.23186397,-25.132831,-26.573694)"
       id="g102">
      <path
         d="m 295.31066,215.5045 h 14.34669 l 11.99028,11.97412 11.99519,-11.97412 h 13.98582 v 40.44498 H 332.18026 V 239.4048 l -7.88524,9.3837 h -6.48177 l -7.98501,-9.50391 0.43291,16.66489 h -14.9505 V 215.5045"
         style="opacity:1;fill:#333333;fill-opacity:1;fill-rule:evenodd;stroke:none;stroke-width:0.79560816"
         id="path4168"
         inkscape:connector-curvature="0" />
      <path
         d="M 451.00431,255.94948 H 435.39459 V 215.5045 h 15.60972 v 40.44498"
         style="opacity:1;fill:#333333;fill-opacity:1;fill-rule:evenodd;stroke:none;stroke-width:0.79560816"
         id="path4170"
         inkscape:connector-curvature="0" />
      <path
         d="M 366.19337,212.55748 H 351.4233 v -4.21518 h 14.77007 v 4.21518"
         style="opacity:1;fill:#333333;fill-opacity:1;fill-rule:evenodd;stroke:none;stroke-width:0.79560816"
         id="path4172"
         inkscape:connector-curvature="0" />
      <path
         d="M 384.76179,255.94948 H 370.41633 V 215.5045 h 14.34546 v 27.38164 h 15.18729 v 13.06334 H 384.7618"
         style="opacity:1;fill:#333333;fill-opacity:1;fill-rule:evenodd;stroke:none;stroke-width:0.79560816"
         id="path4174"
         inkscape:connector-curvature="0" />
      <path
         d="M 416.93825,255.94948 H 402.59646 V 215.5045 h 14.34179 v 27.38164 h 15.19098 v 13.06334 h -15.19098"
         style="opacity:1;fill:#333333;fill-opacity:1;fill-rule:evenodd;stroke:none;stroke-width:0.79560816"
         id="path4176"
         inkscape:connector-curvature="0" />
      <path
         d="M 366.19337,255.94948 H 351.4233 V 215.5045 h 14.77007 v 40.44498"
         style="opacity:1;fill:#333333;fill-opacity:1;fill-rule:evenodd;stroke:none;stroke-width:0.79560816"
         id="path4178"
         inkscape:connector-curvature="0" />
      <path
         d="m 449.74006,212.55748 h -13.08245 l 6.39159,-5.4775 z"
         style="opacity:1;fill:#333333;fill-opacity:1;fill-rule:evenodd;stroke:none;stroke-width:0.79560816"
         id="path4180"
         inkscape:connector-curvature="0" />
    </g>
    <g
       transform="matrix(0.23085138,0,0,0.23085138,16.37238,-40.321035)"
       id="g93">
      <path
         d="m 355.00152,273.22925 h -14.77223 v -4.21396 h 14.77223 v 4.21396"
         style="opacity:1;fill:#333333;fill-opacity:1;fill-rule:evenodd;stroke:none;stroke-width:0.79560816"
         id="path4182"
         inkscape:connector-curvature="0" />
      <path
         d="m 355.00152,316.62279 h -14.77223 v -40.44868 h 14.77223 v 40.44868"
         style="opacity:1;fill:#333333;fill-opacity:1;fill-rule:evenodd;stroke:none;stroke-width:0.79560816"
         id="path4184"
         inkscape:connector-curvature="0" />
      <path
         d="m 357.00908,276.49939 h 13.18957 l 11.69313,14.29676 c 3.42547,-0.67599 5.77329,-5.01389 7.99484,-14.48401 l 14.29866,0.19492 c -5.20211,23.17166 -19.93,36.47757 -45.38295,39.91804 v -11.03031 c 6.87376,-0.72763 11.08718,-1.71107 12.8986,-4.3028 -6.23267,-6.06223 -11.12935,-14.26049 -14.69185,-24.59322"
         style="opacity:1;fill:#333333;fill-opacity:1;fill-rule:evenodd;stroke:none;stroke-width:0.79560816"
         id="path4186"
         inkscape:connector-curvature="0" />
      <path
         d="m 526.71349,276.49939 -14.78578,0.19693 c -16.79025,0.22104 -23.45954,7.71467 -23.19166,20.19666 0.0221,13.6939 7.76238,17.72308 17.38758,19.39827 h 22.59126 c 1.90291,-0.55502 3.2977,-1.51937 3.59637,-3.40111 v -21.79376 h -20.38355 v 7.80229 h 7.79934 v 6.80282 c -0.29867,2.14741 -1.69662,2.2421 -3.60254,2.38998 -7.89785,0.0683 -12.75665,-2.53263 -13.19697,-10.60177 -0.21857,-5.6272 1.81657,-9.76092 8.79696,-10.5919 h 14.98899 v -10.39853"
         style="opacity:1;fill:#333333;fill-opacity:1;fill-rule:evenodd;stroke:none;stroke-width:0.79560816"
         id="path4188"
         inkscape:connector-curvature="0" />
      <path
         d="m 409.18017,276.49939 h 12.99374 l 17.78634,34.99298 v -35.00375 l 17.59421,0.0108 13.3937,8.99603 v -8.99603 h 15.39236 v 39.92633 h -13.59724 c 0.31095,-13.08241 -5.07125,-21.81313 -17.19146,-24.13086 v 24.13086 H 425.3697 l -3.79499,-5.53499 h -13.19664 l -2.80349,5.53499 -14.58718,-0.3398 18.19278,-39.58661 z m 6.24624,14.59711 2.47528,4.84664 2.46789,4.84819 h -9.89371 l 2.47743,-4.84819 2.47311,-4.84664"
         style="opacity:1;fill:#333333;fill-opacity:1;fill-rule:evenodd;stroke:none;stroke-width:0.79560816"
         id="path4190"
         inkscape:connector-curvature="0" />
      <path
         d="m 558.69903,276.30017 c -13.21237,0 -23.98608,9.43289 -23.98608,20.9929 0,11.56341 10.77372,20.99415 23.98608,20.99415 13.21851,0 23.99224,-9.43074 23.99224,-20.99415 0,-11.56001 -10.77373,-20.9929 -23.99224,-20.9929 z m 0,8.40024 c -5.83487,0 -10.59514,5.65733 -10.59514,12.59266 0,6.94118 4.76027,12.59636 10.59514,12.59636 5.83793,0 10.59513,-5.65518 10.59513,-12.59636 0,-6.93533 -4.75719,-12.59266 -10.59513,-12.59266"
         style="opacity:1;fill:#333333;fill-opacity:1;fill-rule:evenodd;stroke:none;stroke-width:0.79560816"
         id="path4192"
         inkscape:connector-curvature="0" />
      <path
         d="m 294.8368,276.69644 26.18671,-0.19693 c 0.77686,0.11454 1.52877,0.25118 2.24433,0.40832 22.3052,4.8445 17.36421,28.21415 -0.64484,30.98225 h -12.99466 v 8.80143 l -14.79162,-0.19893 V 276.6972 Z m 14.79161,9.79814 v 11.60058 c 10.06585,0.41435 16.79426,-0.65087 16.19168,-6.60024 -0.31618,-4.14417 -6.55137,-5.38464 -16.19168,-5.00034"
         style="opacity:1;fill:#333333;fill-opacity:1;fill-rule:evenodd;stroke:none;stroke-width:0.79560816"
         id="path4194"
         inkscape:connector-curvature="0" />
    </g>
  </g>
  <path
     d="m 14.951975,16.641883 v 13.535585 c 0.334474,5.160406 4.963842,9.467991 10.412866,9.260106 5.745421,-0.164415 10.100535,-4.332973 9.859854,-11.272561 4.709004,-0.405018 7.413833,-2.815823 7.696591,-7.648355 -0.335682,-4.0419 -2.758456,-7.153589 -7.596708,-7.522873 -1.781006,-0.180413 -5.04283,0.734388 -6.287455,1.987373 -1.912119,-2.038431 -4.583088,-2.583335 -6.740921,-0.553338 -0.662918,-0.939638 -1.702976,-1.543127 -3.571784,-1.409579 -1.828252,0.210974 -3.017831,1.53593 -3.772443,3.623642 z m 2.615554,-0.05112 v 12.98465 c 0.897485,5.428813 4.367807,7.435837 7.645047,7.49718 3.379603,-0.245618 5.928218,-1.653137 7.069708,-4.696827 0.746452,-1.989531 0.527853,-4.294493 0.527853,-6.374714 4.452285,0.176797 7.520381,-1.114338 7.546419,-5.635533 -0.168926,-3.405766 -2.365196,-4.780223 -5.484747,-5.233603 -2.838342,0.160542 -5.160301,1.385748 -5.432132,3.018621 V 29.575413 H 27.327793 V 16.590788 c -0.662298,-1.936303 -3.211531,-1.701498 -3.723656,0 v 12.984625 h -2.31413 V 16.590788 c -0.686475,-1.911871 -3.101355,-1.828462 -3.722478,0 z m 17.481343,1.861966 c 1.120879,0 2.036176,0.914568 2.036176,2.034569 0,1.120676 -0.915297,2.035183 -2.036176,2.035183 -1.122352,0 -2.037109,-0.914507 -2.037109,-2.035183 0,-1.120001 0.914757,-2.034569 2.037109,-2.034569"
     style="opacity:1;fill:#333333;fill-opacity:1;fill-rule:evenodd;stroke:none;stroke-width:0.20022458"
     id="path4196"
     inkscape:connector-curvature="0" />
  <g
     transform="matrix(1.1681146,0,0,1.1681146,-42.860091,-264.79454)"
     aria-label="N12345678"
     style="font-style:normal;font-weight:normal;font-size:16.62758636px;line-height:1.25;font-family:sans-serif;letter-spacing:0px;word-spacing:0px;fill:#000000;fill-opacity:1;stroke:none;stroke-width:0.41568968"
     id="text175">
    <path
       inkscape:connector-curvature="0"
       d="m 120.21132,374.91826 6.78743,9.02826 v -5.34227 q 0,-0.87684 -0.0812,-1.42893 -0.0812,-0.55209 -0.29228,-0.86061 -0.21109,-0.32475 -0.6008,-0.43842 -0.37347,-0.1299 -0.97428,-0.16238 v -0.79565 h 4.83889 v 0.79565 q -0.61704,0.0325 -1.00675,0.16238 -0.37347,0.11367 -0.58456,0.43842 -0.21109,0.30852 -0.29228,0.86061 -0.0812,0.55209 -0.0812,1.42893 v 8.83341 h -0.71447 L 119.6105,377.2078 v 6.30029 q 0,0.87685 0.0812,1.42894 0.0812,0.55208 0.29228,0.87684 0.22733,0.30852 0.6008,0.43842 0.38971,0.11367 1.00675,0.14615 v 0.79565 h -4.85513 v -0.79565 q 0.61704,-0.0325 0.99051,-0.14615 0.38971,-0.1299 0.6008,-0.43842 0.22733,-0.32476 0.30852,-0.87684 0.0812,-0.55209 0.0812,-1.42894 V 376.266 q -0.22733,-0.32476 -0.56832,-0.43842 -0.341,-0.11367 -1.00675,-0.11367 h -0.43842 v -0.79565 z"
       style="font-style:normal;font-variant:normal;font-weight:normal;font-stretch:normal;font-family:'Tibetan Machine Uni';-inkscape-font-specification:'Tibetan Machine Uni';stroke-width:0.41568968"
       id="path177" />
    <path
       inkscape:connector-curvature="0"
       d="m 136.33553,375.22678 q -0.0487,0.90932 -0.0812,1.57507 -0.0162,0.66575 -0.0162,1.28279 v 7.66428 q 0,0.42219 0.32476,0.53585 0.32476,0.11367 1.18537,0.11367 h 0.94179 v 0.79565 h -6.72248 v -0.79565 h 1.08794 q 0.51961,0 0.81189,-0.0162 0.30852,-0.0325 0.4709,-0.11367 0.16238,-0.0812 0.19486,-0.22733 0.0487,-0.16238 0.0487,-0.43842 v -7.30704 q 0,-0.38971 -0.0325,-0.60081 -0.0162,-0.21109 -0.1299,-0.30852 -0.11366,-0.11366 -0.32476,-0.1299 -0.21109,-0.0325 -0.56832,-0.0325 h -1.49389 v -0.74695 q 0.58457,0 1.15289,-0.0974 0.56833,-0.0974 1.05546,-0.25981 0.50338,-0.17862 0.87685,-0.40595 0.38971,-0.22733 0.61704,-0.48713 z"
       style="font-style:normal;font-variant:normal;font-weight:normal;font-stretch:normal;font-family:'Tibetan Machine Uni';-inkscape-font-specification:'Tibetan Machine Uni';stroke-width:0.41568968"
       id="path179" />
    <path
       inkscape:connector-curvature="0"
       d="m 147.97809,387.19409 h -7.66428 v -0.48713 q 0.27604,-0.35724 0.48714,-0.63328 0.21109,-0.27605 0.38971,-0.50338 0.17861,-0.22733 0.35723,-0.43842 0.19485,-0.22733 0.42218,-0.50337 0.22733,-0.24357 0.55209,-0.6008 0.32476,-0.35724 0.76318,-0.82814 l 1.02299,-1.05546 q 1.0717,-1.12041 1.52636,-2.02973 0.4709,-0.90932 0.4709,-1.85112 0,-1.0717 -0.6008,-1.68874 -0.58457,-0.61704 -1.64003,-0.61704 -0.6008,0 -1.12041,0.21109 -0.50338,0.2111 -0.82814,0.6008 -0.17861,0.22733 -0.29228,0.50338 -0.0974,0.2598 -0.0974,0.43842 0,0.0812 0.0162,0.1299 0.0162,0.0487 0.0812,0.0974 0.065,0.0487 0.19486,0.11367 0.1299,0.065 0.35723,0.17861 0.29228,0.11367 0.45466,0.37347 0.16238,0.25981 0.16238,0.58457 0,0.45466 -0.29228,0.74694 -0.29228,0.29228 -0.76318,0.29228 -0.61704,0 -0.99051,-0.48713 -0.35724,-0.50338 -0.35724,-1.31527 0,-0.68199 0.29229,-1.26656 0.29228,-0.58456 0.81189,-1.00674 0.51961,-0.43843 1.2016,-0.682 0.69823,-0.24356 1.51013,-0.24356 0.82813,0 1.52636,0.2598 0.69822,0.24357 1.2016,0.68199 0.51961,0.43843 0.79565,1.05547 0.29229,0.6008 0.29229,1.31526 0,1.25032 -0.8119,2.32202 -0.14614,0.19485 -0.35723,0.40595 -0.21109,0.21109 -0.51961,0.48713 -0.29228,0.27605 -0.71447,0.63328 -0.42218,0.341 -1.00675,0.79566 -0.40594,0.32475 -0.71446,0.56832 -0.29229,0.24357 -0.58457,0.50338 -0.29228,0.24356 -0.6008,0.56832 -0.30852,0.32476 -0.74694,0.77942 h 3.79966 q 0.38971,0 0.63328,-0.0325 0.24357,-0.0487 0.38971,-0.16237 0.14614,-0.12991 0.22733,-0.37348 0.0812,-0.24356 0.16238,-0.63327 l 0.17861,-0.87685 h 0.74695 z"
       style="font-style:normal;font-variant:normal;font-weight:normal;font-stretch:normal;font-family:'Tibetan Machine Uni';-inkscape-font-specification:'Tibetan Machine Uni';stroke-width:0.41568968"
       id="path181" />
    <path
       inkscape:connector-curvature="0"
       d="m 155.04156,380.94251 q 1.33151,0.37347 1.94855,1.12041 0.63328,0.73071 0.63328,1.94855 0,0.77942 -0.29229,1.41269 -0.29228,0.63328 -0.82813,1.08794 -0.51961,0.45466 -1.26655,0.69823 -0.74694,0.24357 -1.6725,0.24357 -0.8119,0 -1.49389,-0.21109 -0.68199,-0.19486 -1.16912,-0.56833 -0.48714,-0.37347 -0.76319,-0.87685 -0.2598,-0.51961 -0.2598,-1.15288 0,-0.66576 0.32476,-1.0717 0.34099,-0.40595 0.87684,-0.40595 0.4709,0 0.77942,0.30852 0.30852,0.29228 0.30852,0.74694 0,0.32476 -0.14614,0.56833 -0.14614,0.22733 -0.50338,0.45466 -0.2598,0.1299 -0.32475,0.19485 -0.0487,0.0487 -0.0487,0.17862 0,0.19485 0.19486,0.38971 0.19485,0.19485 0.50337,0.35723 0.32476,0.14614 0.71447,0.24357 0.40595,0.0974 0.79565,0.0974 1.15289,0 1.76993,-0.69823 0.63328,-0.71447 0.63328,-2.02974 0,-1.29903 -0.51961,-1.94854 -0.50338,-0.66576 -1.42893,-0.66576 l -0.55209,0.0325 q -0.22733,0.0162 -0.42219,0.0162 -0.17861,0 -0.24357,0 -0.51961,0 -0.51961,-0.42219 0,-0.45466 0.55209,-0.45466 0.0812,0 0.16238,0 0.0974,0 0.19485,0.0162 0.19486,0 0.37347,0.0162 0.19486,0 0.30852,0 0.92556,0 1.39646,-0.6008 0.48714,-0.61704 0.48714,-1.78617 0,-2.22459 -1.8836,-2.22459 -0.35723,0 -0.71446,0.0974 -0.341,0.0812 -0.61704,0.22733 -0.27605,0.1299 -0.45466,0.30852 -0.16238,0.17861 -0.16238,0.35723 0,0.0812 0.0325,0.14614 0.0487,0.065 0.17862,0.16238 0.30852,0.19486 0.42219,0.38971 0.11366,0.17862 0.11366,0.45466 0,0.4709 -0.27604,0.74694 -0.27605,0.27605 -0.73071,0.27605 -0.4709,0 -0.79565,-0.32476 -0.32476,-0.32476 -0.32476,-0.86061 0,-0.56832 0.25981,-1.05546 0.27604,-0.50337 0.74694,-0.86061 0.4709,-0.37347 1.10417,-0.58456 0.64952,-0.21109 1.38022,-0.21109 0.79566,0 1.42894,0.21109 0.64951,0.21109 1.10417,0.58456 0.45466,0.37347 0.69823,0.92556 0.24357,0.53585 0.24357,1.18537 0,0.92556 -0.48714,1.60755 -0.4709,0.68199 -1.38022,1.05546 -0.0812,0.0487 -0.14614,0.0649 -0.065,0.0162 -0.24357,0.0812 z"
       style="font-style:normal;font-variant:normal;font-weight:normal;font-stretch:normal;font-family:'Tibetan Machine Uni';-inkscape-font-specification:'Tibetan Machine Uni';stroke-width:0.41568968"
       id="path183" />
    <path
       inkscape:connector-curvature="0"
       d="m 165.49876,375.22678 v 8.03775 h 2.06221 v 0.95803 h -2.06221 v 1.38022 q 0,0.27604 0.0487,0.43842 0.0487,0.14614 0.21109,0.22733 0.16238,0.0812 0.45466,0.11367 0.30852,0.0162 0.82813,0.0162 h 0.065 v 0.79565 h -4.95256 v -0.79565 h 0.19486 q 0.50337,0 0.81189,-0.0162 0.30852,-0.0325 0.45466,-0.11367 0.16238,-0.0812 0.21109,-0.22733 0.0487,-0.16238 0.0487,-0.43842 v -1.38022 h -4.77394 v -0.95803 l 5.76445,-8.03775 z m -1.62379,2.8741 -3.73471,5.16365 h 3.73471 z"
       style="font-style:normal;font-variant:normal;font-weight:normal;font-stretch:normal;font-family:'Tibetan Machine Uni';-inkscape-font-specification:'Tibetan Machine Uni';stroke-width:0.41568968"
       id="path185" />
    <path
       inkscape:connector-curvature="0"
       d="m 170.56497,380.04943 q 0.69823,-0.30852 1.18537,-0.40595 0.48713,-0.11367 1.00675,-0.11367 0.8606,0 1.55883,0.27605 0.71447,0.27604 1.21784,0.77942 0.50338,0.50337 0.77942,1.21784 0.27604,0.71446 0.27604,1.57507 0,0.9418 -0.30852,1.70498 -0.29228,0.74694 -0.8606,1.28279 -0.56833,0.51961 -1.38022,0.81189 -0.79566,0.27605 -1.78617,0.27605 -1.29903,0 -2.15964,-0.56833 -0.56832,-0.38971 -0.92556,-0.99051 -0.34099,-0.6008 -0.34099,-1.25031 0,-0.58457 0.35723,-0.99052 0.35724,-0.42218 0.86061,-0.42218 0.4709,0 0.76318,0.30852 0.30852,0.29228 0.30852,0.74694 0,0.341 -0.14614,0.55209 -0.1299,0.21109 -0.53585,0.45466 -0.29228,0.19485 -0.29228,0.37347 0,0.19486 0.17861,0.38971 0.17862,0.17862 0.4709,0.32476 0.29228,0.14614 0.66576,0.24357 0.37347,0.0812 0.76318,0.0812 0.51961,0 0.99051,-0.14615 0.47089,-0.16237 0.7307,-0.43842 0.37347,-0.40595 0.58456,-1.08794 0.2111,-0.68199 0.2111,-1.54259 0,-1.46141 -0.64952,-2.28954 -0.63328,-0.82814 -1.78617,-0.82814 -0.50337,0 -0.94179,0.14614 -0.43842,0.14615 -0.89309,0.4709 -0.0812,1.02299 -0.74694,1.02299 -0.24357,0 -0.40594,-0.14614 -0.14615,-0.16238 -0.14615,-0.42219 0,-0.21109 0.0974,-0.38971 0.0974,-0.19485 0.37347,-0.48713 0.17862,-1.57508 0.29228,-2.92282 0.12991,-1.34774 0.17862,-2.41944 0.66575,0.16237 1.13665,0.2598 0.4709,0.0974 0.86061,0.16238 0.38971,0.0487 0.7307,0.0812 0.35724,0.0162 0.77942,0.0162 0.35724,0 0.63328,-0.0162 0.27604,-0.0325 0.51961,-0.0812 0.25981,-0.0487 0.51961,-0.1299 0.25981,-0.0974 0.58457,-0.22733 0.0487,-0.0487 0.11366,-0.0487 0.065,-0.0162 0.11367,-0.0162 0.1299,0 0.1299,0.16237 0,0.0974 -0.065,0.22734 -0.0649,0.1299 -0.19486,0.37347 -0.42218,0.71446 -1.2016,1.08793 -0.77942,0.35724 -1.86735,0.35724 -0.48714,0 -0.92556,-0.0487 -0.43843,-0.065 -1.12042,-0.22733 z"
       style="font-style:normal;font-variant:normal;font-weight:normal;font-stretch:normal;font-family:'Tibetan Machine Uni';-inkscape-font-specification:'Tibetan Machine Uni';stroke-width:0.41568968"
       id="path187" />
    <path
       inkscape:connector-curvature="0"
       d="m 180.11285,381.41341 q 0.6008,-0.8119 1.26655,-1.16913 0.66575,-0.35723 1.5426,-0.35723 0.71447,0 1.3315,0.2598 0.61704,0.25981 1.05547,0.73071 0.45466,0.4709 0.71446,1.12041 0.25981,0.63328 0.25981,1.38022 0,0.81189 -0.32476,1.59131 -0.30852,0.77942 -0.84437,1.34775 -1.08794,1.13665 -2.7442,1.13665 -0.9418,0 -1.70498,-0.38971 -0.76318,-0.38971 -1.31526,-1.10418 -0.53585,-0.7307 -0.82814,-1.73745 -0.29228,-1.00675 -0.29228,-2.25706 0,-1.39646 0.37347,-2.67925 0.37347,-1.2828 1.05547,-2.25707 0.61703,-0.87684 1.54259,-1.33151 0.9418,-0.47089 1.99726,-0.47089 0.6008,0 1.10418,0.16237 0.50337,0.14615 0.87684,0.42219 0.37348,0.25981 0.58457,0.64951 0.21109,0.37348 0.21109,0.8119 0,0.51961 -0.32476,0.87684 -0.30852,0.341 -0.77942,0.341 -0.45466,0 -0.76318,-0.27604 -0.29228,-0.29229 -0.29228,-0.73071 0,-0.17862 0.065,-0.35723 0.065,-0.19486 0.19486,-0.43842 0.0649,-0.0812 0.0649,-0.12991 0.0162,-0.065 0.0162,-0.0974 0,-0.24356 -0.25981,-0.37347 -0.24357,-0.1299 -0.69823,-0.1299 -0.81189,0 -1.44517,0.50337 -0.63328,0.48714 -1.02298,1.4127 -0.12991,0.32476 -0.22733,0.61704 -0.0812,0.29228 -0.16238,0.68199 -0.065,0.37347 -0.11367,0.90932 -0.0487,0.53585 -0.11366,1.33151 z m 2.35449,-0.48714 q -1.03923,0 -1.64003,0.74694 -0.58456,0.74695 -0.58456,2.06221 0,0.9418 0.40595,1.72122 0.64951,1.25032 1.75369,1.25032 0.94179,0 1.47764,-0.86061 0.55209,-0.86061 0.55209,-2.33826 0,-1.21784 -0.51961,-1.89983 -0.51961,-0.68199 -1.44517,-0.68199 z"
       style="font-style:normal;font-variant:normal;font-weight:normal;font-stretch:normal;font-family:'Tibetan Machine Uni';-inkscape-font-specification:'Tibetan Machine Uni';stroke-width:0.41568968"
       id="path189" />
    <path
       inkscape:connector-curvature="0"
       d="m 187.97197,379.33496 0.51962,-4.10818 q 0.69822,0.0487 1.26655,0.0812 0.58456,0.0325 1.10418,0.065 0.53585,0.0162 1.03922,0.0325 0.51961,0 1.05546,0 0.38971,0 0.69823,0 0.30852,0 0.6008,-0.0162 0.30852,-0.0162 0.63328,-0.0325 0.32476,-0.0325 0.71447,-0.065 v 0.50337 q -0.0812,0.16238 -0.11367,0.27605 -0.0325,0.0974 -0.0649,0.1299 -0.19486,0.38971 -0.38971,0.79565 -0.19485,0.38971 -0.37347,0.79566 -0.61704,1.38022 -1.02299,2.37073 -0.38971,0.97427 -0.61704,1.76993 -0.22733,0.77942 -0.32475,1.47765 -0.0812,0.68199 -0.0812,1.46141 v 0.74694 q 0,0.99051 -0.25981,1.41269 -0.25981,0.40595 -0.84437,0.40595 -0.50337,0 -0.79566,-0.341 -0.27604,-0.35723 -0.27604,-0.92555 0,-0.53585 0.21109,-1.29903 0.2111,-0.77942 0.58457,-1.7537 0.16238,-0.3897 0.27604,-0.68199 0.1299,-0.29228 0.30852,-0.68199 0.19486,-0.38971 0.4709,-0.95803 0.29228,-0.58457 0.77942,-1.5426 l 1.15289,-2.32202 q -0.341,0.0162 -0.61704,0.0162 -0.25981,0 -0.43843,0 -0.2598,0 -0.6008,0 -0.34099,-0.0162 -0.7307,-0.0325 -0.38971,-0.0162 -0.79566,-0.0325 -0.40594,-0.0162 -0.77942,-0.0325 -0.0974,-0.0162 -0.21109,-0.0162 -0.0974,0 -0.16238,0 -0.17861,0 -0.30852,0.0487 -0.11366,0.0325 -0.21109,0.17862 -0.0812,0.1299 -0.16238,0.38971 -0.0812,0.24356 -0.17861,0.64951 l -0.30852,1.36398 z"
       style="font-style:normal;font-variant:normal;font-weight:normal;font-stretch:normal;font-family:'Tibetan Machine Uni';-inkscape-font-specification:'Tibetan Machine Uni';stroke-width:0.41568968"
       id="path191" />
    <path
       inkscape:connector-curvature="0"
       d="m 202.78092,380.5528 q 0.48714,0.22733 0.74694,0.40595 0.27605,0.16238 0.55209,0.37347 0.51961,0.45466 0.77942,1.08794 0.27604,0.61704 0.27604,1.34774 0,0.79566 -0.30852,1.52636 -0.30852,0.7307 -0.84437,1.2016 -0.53585,0.4709 -1.31526,0.71447 -0.76319,0.24357 -1.70498,0.24357 -1.64003,0 -2.67925,-0.74694 -0.53585,-0.40595 -0.84437,-1.03923 -0.30852,-0.64951 -0.30852,-1.3315 0,-0.66576 0.2598,-1.23408 0.25981,-0.58457 0.76319,-0.99051 0.27604,-0.22733 0.56832,-0.38971 0.30852,-0.16238 0.86061,-0.37347 -0.45466,-0.24357 -0.69823,-0.42219 -0.24357,-0.17862 -0.45466,-0.42218 -0.37347,-0.40595 -0.56833,-0.9418 -0.17861,-0.53585 -0.17861,-1.08794 0,-0.69823 0.2598,-1.28279 0.27605,-0.6008 0.74695,-1.03922 0.47089,-0.43843 1.12041,-0.682 0.66575,-0.24356 1.44517,-0.24356 0.7307,0 1.34774,0.21109 0.63328,0.19485 1.08794,0.55209 0.45466,0.35723 0.69823,0.8606 0.25981,0.48714 0.25981,1.0717 0,0.82814 -0.45466,1.47765 -0.43843,0.63328 -1.4127,1.15289 z m -0.71447,-0.24357 q 0.37347,-0.30852 0.61704,-0.56832 0.25981,-0.27605 0.40595,-0.53585 0.16238,-0.27605 0.22733,-0.55209 0.065,-0.29228 0.065,-0.61704 0,-0.92556 -0.6008,-1.49389 -0.58456,-0.58456 -1.55884,-0.58456 -1.02298,0 -1.64002,0.50337 -0.6008,0.48714 -0.6008,1.2828 0,0.74694 0.4709,1.26655 0.47089,0.50338 1.51012,0.89308 z m -1.68874,1.36398 q -1.00674,0.4709 -1.42893,1.08794 -0.42218,0.61704 -0.42218,1.57508 0,1.13665 0.66575,1.75369 0.66575,0.61704 1.83488,0.61704 1.26655,0 1.99726,-0.58457 0.74694,-0.6008 0.74694,-1.64002 0,-0.82814 -0.43842,-1.36399 -0.42219,-0.53585 -1.39646,-0.87684 z"
       style="font-style:normal;font-variant:normal;font-weight:normal;font-stretch:normal;font-family:'Tibetan Machine Uni';-inkscape-font-specification:'Tibetan Machine Uni';stroke-width:0.41568968"
       id="path193" />
  </g>
  <rect
     y="81.232483"
     x="304.87805"
     height="35.282734"
     width="175.12193"
     id="rect89"
     style="opacity:0.5;fill:none;stroke:#000000;stroke-width:1.26393664;stroke-miterlimit:4;stroke-dasharray:none" />
</svg>
