<?xml version="1.0" encoding="UTF-8" standalone="no"?>
<svg
   xmlns:dc="http://purl.org/dc/elements/1.1/"
   xmlns:cc="http://creativecommons.org/ns#"
   xmlns:rdf="http://www.w3.org/1999/02/22-rdf-syntax-ns#"
   xmlns:svg="http://www.w3.org/2000/svg"
   xmlns="http://www.w3.org/2000/svg"
   xmlns:sodipodi="http://sodipodi.sourceforge.net/DTD/sodipodi-0.dtd"
   xmlns:inkscape="http://www.inkscape.org/namespaces/inkscape"
   version="1.1"
   id="svg2"
   viewBox="0 0 480 640.00002"
   height="640"
   width="480"
   inkscape:version="0.91 r13725"
   sodipodi:docname="overlay_milli_piyango.svg">
  <sodipodi:namedview
     pagecolor="#ffffff"
     bordercolor="#666666"
     borderopacity="1"
     objecttolerance="10"
     gridtolerance="10"
     guidetolerance="10"
     inkscape:pageopacity="0"
     inkscape:pageshadow="2"
     inkscape:window-width="1920"
     inkscape:window-height="1048"
     id="namedview8"
     showgrid="false"
     inkscape:snap-midpoints="true"
     inkscape:object-paths="true"
     inkscape:snap-intersection-paths="true"
     inkscape:object-nodes="true"
     inkscape:snap-smooth-nodes="true"
     inkscape:snap-bbox="true"
     inkscape:zoom="0.695"
     inkscape:cx="274.69672"
     inkscape:cy="303.05333"
     inkscape:window-x="0"
     inkscape:window-y="32"
     inkscape:window-maximized="1"
     inkscape:current-layer="svg2"
     inkscape:snap-nodes="true"
     fit-margin-top="0"
     fit-margin-left="0"
     fit-margin-right="0"
     fit-margin-bottom="0" />
  <defs
     id="defs4" />
  <metadata
     id="metadata7">
    <rdf:RDF>
      <cc:Work
         rdf:about="">
        <dc:format>image/svg+xml</dc:format>
        <dc:type
           rdf:resource="http://purl.org/dc/dcmitype/StillImage" />
        <dc:title />
      </cc:Work>
    </rdf:RDF>
  </metadata>
  <path
     d="m 159.31793,41.587246 14.34669,0 11.99028,11.974121 11.99518,-11.974121 13.98583,0 0,40.444978 -15.44839,0 0,-16.544681 -7.88523,9.383703 -6.48178,0 -7.985,-9.50391 0.43291,16.664888 -14.95051,0 0,-40.444978"
     style="opacity:1;fill:#333333;fill-opacity:1;fill-rule:evenodd;stroke:none;stroke-width:0.79560816"
     id="path4168"
     inkscape:connector-curvature="0" />
  <path
     d="m 315.01158,82.032224 -15.60972,0 0,-40.444978 15.60972,0 0,40.444978"
     style="opacity:1;fill:#333333;fill-opacity:1;fill-rule:evenodd;stroke:none;stroke-width:0.79560816"
     id="path4170"
     inkscape:connector-curvature="0" />
  <path
     d="m 230.20064,38.640224 -14.77007,0 0,-4.215183 14.77007,0 0,4.215183"
     style="opacity:1;fill:#333333;fill-opacity:1;fill-rule:evenodd;stroke:none;stroke-width:0.79560816"
     id="path4172"
     inkscape:connector-curvature="0" />
  <path
     d="m 248.76906,82.032224 -14.34546,0 0,-40.444978 14.34546,0 0,27.381639 15.18728,0 0,13.063339 -15.18728,0"
     style="opacity:1;fill:#333333;fill-opacity:1;fill-rule:evenodd;stroke:none;stroke-width:0.79560816"
     id="path4174"
     inkscape:connector-curvature="0" />
  <path
     d="m 280.94551,82.032224 -14.34178,0 0,-40.444978 14.34178,0 0,27.381639 15.19098,0 0,13.063339 -15.19098,0"
     style="opacity:1;fill:#333333;fill-opacity:1;fill-rule:evenodd;stroke:none;stroke-width:0.79560816"
     id="path4176"
     inkscape:connector-curvature="0" />
  <path
     d="m 230.20064,82.032224 -14.77007,0 0,-40.444978 14.77007,0 0,40.444978"
     style="opacity:1;fill:#333333;fill-opacity:1;fill-rule:evenodd;stroke:none;stroke-width:0.79560816"
     id="path4178"
     inkscape:connector-curvature="0" />
  <path
     d="m 313.74732,38.640224 -13.08244,0 6.39159,-5.477497 z"
     style="opacity:1;fill:#333333;fill-opacity:1;fill-rule:evenodd;stroke:none;stroke-width:0.79560816"
     id="path4180"
     inkscape:connector-curvature="0" />
  <path
     d="m 219.00878,99.311993 -14.77222,0 0,-4.213957 14.77222,0 0,4.213957"
     style="opacity:1;fill:#333333;fill-opacity:1;fill-rule:evenodd;stroke:none;stroke-width:0.79560816"
     id="path4182"
     inkscape:connector-curvature="0" />
  <path
     d="m 219.00878,142.70554 -14.77222,0 0,-40.44868 14.77222,0 0,40.44868"
     style="opacity:1;fill:#333333;fill-opacity:1;fill-rule:evenodd;stroke:none;stroke-width:0.79560816"
     id="path4184"
     inkscape:connector-curvature="0" />
  <path
     d="m 221.01635,102.58214 13.18957,0 11.69313,14.29676 c 3.42547,-0.67599 5.77329,-5.01389 7.99484,-14.48401 l 14.29865,0.19492 c -5.20211,23.17166 -19.92999,36.47757 -45.38294,39.91804 l 0,-11.03031 c 6.87376,-0.72763 11.08718,-1.71107 12.8986,-4.3028 -6.23268,-6.06223 -11.12936,-14.26049 -14.69185,-24.59322"
     style="opacity:1;fill:#333333;fill-opacity:1;fill-rule:evenodd;stroke:none;stroke-width:0.79560816"
     id="path4186"
     inkscape:connector-curvature="0" />
  <path
     d="m 390.72076,102.58214 -14.78578,0.19693 c -16.79025,0.22104 -23.45955,7.71467 -23.19167,20.19666 0.0221,13.6939 7.76238,17.72308 17.38759,19.39827 l 22.59126,0 c 1.90291,-0.55502 3.2977,-1.51937 3.59637,-3.40111 l 0,-21.79376 -20.38355,0 0,7.80229 7.79934,0 0,6.80282 c -0.29867,2.14741 -1.69662,2.2421 -3.60254,2.38998 -7.89785,0.0683 -12.75665,-2.53263 -13.19697,-10.60177 -0.21857,-5.6272 1.81657,-9.76092 8.79696,-10.5919 l 14.98899,0 0,-10.39853"
     style="opacity:1;fill:#333333;fill-opacity:1;fill-rule:evenodd;stroke:none;stroke-width:0.79560816"
     id="path4188"
     inkscape:connector-curvature="0" />
  <path
     d="m 273.18744,102.58214 12.99374,0 17.78634,34.99298 0,-35.00375 17.59421,0.0108 13.3937,8.99603 0,-8.99603 15.39236,0 0,39.92633 -13.59724,0 c 0.31095,-13.08241 -5.07125,-21.81313 -17.19146,-24.13086 l 0,24.13086 -30.18212,0 -3.79499,-5.53499 -13.19665,0 -2.80349,5.53499 -14.58718,-0.3398 18.19278,-39.58661 z m 6.24623,14.59711 2.47528,4.84664 2.46789,4.84819 -9.89371,0 2.47743,-4.84819 2.47311,-4.84664"
     style="opacity:1;fill:#333333;fill-opacity:1;fill-rule:evenodd;stroke:none;stroke-width:0.79560816"
     id="path4190"
     inkscape:connector-curvature="0" />
  <path
     d="m 422.7063,102.38292 c -13.21237,0 -23.98609,9.43289 -23.98609,20.9929 0,11.56341 10.77372,20.99415 23.98609,20.99415 13.21851,0 23.99223,-9.43074 23.99223,-20.99415 0,-11.56001 -10.77372,-20.9929 -23.99223,-20.9929 z m 0,8.40024 c -5.83487,0 -10.59514,5.65733 -10.59514,12.59266 0,6.94118 4.76027,12.59636 10.59514,12.59636 5.83793,0 10.59512,-5.65518 10.59512,-12.59636 0,-6.93533 -4.75719,-12.59266 -10.59512,-12.59266"
     style="opacity:1;fill:#333333;fill-opacity:1;fill-rule:evenodd;stroke:none;stroke-width:0.79560816"
     id="path4192"
     inkscape:connector-curvature="0" />
  <path
     d="m 158.84406,102.77919 26.18671,-0.19693 c 0.77686,0.11454 1.52877,0.25118 2.24433,0.40832 22.3052,4.8445 17.36421,28.21415 -0.64484,30.98225 l -12.99466,0 0,8.80143 -14.79162,-0.19893 0,-39.79538 z m 14.79162,9.79814 0,11.60058 c 10.06584,0.41435 16.79425,-0.65087 16.19168,-6.60024 -0.31618,-4.14417 -6.55138,-5.38464 -16.19168,-5.00034"
     style="opacity:1;fill:#333333;fill-opacity:1;fill-rule:evenodd;stroke:none;stroke-width:0.79560816"
     id="path4194"
     inkscape:connector-curvature="0" />
  <path
     d="m 33.315995,54.393593 0,53.784707 c 1.329062,20.50532 19.724221,37.62184 41.37635,36.79576 22.82988,-0.65328 40.135265,-17.21735 39.178905,-44.79234 18.7116,-1.609396 29.45945,-11.188943 30.58301,-30.391381 C 143.12041,53.729541 133.49333,41.364977 114.26814,39.897616 107.19117,39.180694 94.230068,42.81574 89.284441,47.794586 81.686489,39.694719 71.073188,37.529485 62.49886,45.595834 59.864703,41.862102 55.731954,39.464131 48.306091,39.994754 41.04139,40.833128 36.3145,46.097882 33.315995,54.393593 Z m 10.393114,-0.202957 0,51.595494 c 3.566228,21.5718 17.355821,29.54687 30.378196,29.79066 13.429124,-0.976 23.556236,-6.56888 28.092035,-18.66321 2.96609,-7.90557 2.09747,-17.064554 2.09747,-25.330444 17.69151,0.702514 29.88284,-4.427927 29.9863,-22.393249 -0.67124,-13.533055 -9.3983,-18.994577 -21.79408,-20.796115 -11.27838,0.637909 -20.504862,5.506394 -21.585005,11.994719 l 0,45.397679 -8.391739,0 0,-51.595494 c -2.631694,-7.694053 -12.76127,-6.761012 -14.796238,0 l 0,51.595494 -9.195382,0 0,-51.595494 c -2.727762,-7.596915 -12.323485,-7.265491 -14.791557,0 z m 69.463491,7.398639 c 4.4539,0 8.09091,3.634142 8.09091,8.084515 0,4.453125 -3.63701,8.086966 -8.09091,8.086966 -4.45975,0 -8.09461,-3.633841 -8.09461,-8.086966 0,-4.450373 3.63486,-8.084515 8.09461,-8.084515"
     style="opacity:1;fill:#333333;fill-opacity:1;fill-rule:evenodd;stroke:none;stroke-width:0.79560816"
     id="path4196"
     inkscape:connector-curvature="0" />
  <path
     inkscape:connector-curvature="0"
     id="path4270"
     d="m 26.247077,238.54981 427.520363,0"
     style="opacity:1;fill:none;fill-rule:evenodd;stroke:#333333;stroke-width:0.9999997;stroke-linecap:butt;stroke-linejoin:miter;stroke-miterlimit:4;stroke-dasharray:3.9999992, 3.99999919999999998;stroke-dashoffset:0;stroke-opacity:1" />
  <path
     style="opacity:1;fill:none;fill-rule:evenodd;stroke:#333333;stroke-width:0.9999997;stroke-linecap:butt;stroke-linejoin:miter;stroke-miterlimit:4;stroke-dasharray:3.9999992, 3.99999919999999998;stroke-dashoffset:0;stroke-opacity:1"
     d="m 26.247065,302.28194 427.520375,0"
     id="path4272"
     inkscape:connector-curvature="0" />
  <path
     inkscape:connector-curvature="0"
     id="path4274"
     d="m 26.247071,297.83551 427.520369,0"
     style="opacity:1;fill:none;fill-rule:evenodd;stroke:#333333;stroke-width:0.9999997;stroke-linecap:butt;stroke-linejoin:miter;stroke-miterlimit:4;stroke-dasharray:3.9999992, 3.99999919999999998;stroke-dashoffset:0;stroke-opacity:1" />
  <path
     style="opacity:1;fill:none;fill-rule:evenodd;stroke:#333333;stroke-width:0.9999997;stroke-linecap:butt;stroke-linejoin:miter;stroke-miterlimit:4;stroke-dasharray:3.9999992, 3.99999919999999998;stroke-dashoffset:0;stroke-opacity:1"
     d="m 26.247065,242.99624 427.520375,0"
     id="path4276"
     inkscape:connector-curvature="0" />
  <g
     id="g4513"
     transform="matrix(18.869711,0,0,16.701158,-27.905776,13.136612)"
     style="opacity:1;stroke-width:0.79560816;fill:#333333">
    <g
       style="stroke-width:0.79560816;fill:#333333"
       transform="matrix(0.64057502,0,0,0.46112572,0.0046712,18.161971)"
       id="g4422">
      <rect
         style="fill:#333333;stroke-width:0.79560816"
         x="7.4005513"
         y="29.219694"
         width="0.18942448"
         height="5.6827345"
         id="barcode_bar1" />
      <rect
         style="fill:#333333;stroke-width:0.79560816"
         x="7.7794003"
         y="29.219694"
         width="0.18942448"
         height="5.6827345"
         id="barcode_bar3" />
      <rect
         style="fill:#333333;stroke-width:0.79560816"
         x="8.1582489"
         y="29.219694"
         width="0.18942448"
         height="5.6827345"
         id="barcode_bar5" />
      <rect
         style="fill:#333333;stroke-width:0.79560816"
         x="8.7265224"
         y="29.219694"
         width="0.18942448"
         height="5.6827345"
         id="barcode_bar7" />
      <rect
         style="fill:#333333;stroke-width:0.79560816"
         x="9.1053715"
         y="29.219694"
         width="0.37884897"
         height="5.6827345"
         id="barcode_bar9" />
      <rect
         style="fill:#333333;stroke-width:0.79560816"
         x="9.673645"
         y="29.219694"
         width="0.18942448"
         height="5.6827345"
         id="barcode_bar11" />
      <rect
         style="fill:#333333;stroke-width:0.79560816"
         x="10.241919"
         y="29.219694"
         width="0.37884897"
         height="5.6827345"
         id="barcode_bar13" />
      <rect
         style="fill:#333333;stroke-width:0.79560816"
         x="10.810192"
         y="29.219694"
         width="0.37884897"
         height="5.6827345"
         id="barcode_bar15" />
      <rect
         style="fill:#333333;stroke-width:0.79560816"
         x="11.56789"
         y="29.219694"
         width="0.18942448"
         height="5.6827345"
         id="barcode_bar17" />
      <rect
         style="fill:#333333;stroke-width:0.79560816"
         x="11.946739"
         y="29.219694"
         width="0.18942448"
         height="5.6827345"
         id="barcode_bar19" />
      <rect
         style="fill:#333333;stroke-width:0.79560816"
         x="12.515013"
         y="29.219694"
         width="0.18942448"
         height="5.6827345"
         id="barcode_bar21" />
      <rect
         style="fill:#333333;stroke-width:0.79560816"
         x="12.893862"
         y="29.219694"
         width="0.37884897"
         height="5.6827345"
         id="barcode_bar23" />
      <rect
         style="fill:#333333;stroke-width:0.79560816"
         x="13.462135"
         y="29.219694"
         width="0.37884897"
         height="5.6827345"
         id="barcode_bar25" />
      <rect
         style="fill:#333333;stroke-width:0.79560816"
         x="14.030408"
         y="29.219694"
         width="0.18942448"
         height="5.6827345"
         id="barcode_bar27" />
      <rect
         style="fill:#333333;stroke-width:0.79560816"
         x="14.598681"
         y="29.219694"
         width="0.18942448"
         height="5.6827345"
         id="barcode_bar29" />
      <rect
         style="fill:#333333;stroke-width:0.79560816"
         x="15.166955"
         y="29.219694"
         width="0.18942448"
         height="5.6827345"
         id="barcode_bar31" />
      <rect
         style="fill:#333333;stroke-width:0.79560816"
         x="15.545804"
         y="29.219694"
         width="0.37884897"
         height="5.6827345"
         id="barcode_bar33" />
      <rect
         style="fill:#333333;stroke-width:0.79560816"
         x="16.114079"
         y="29.219694"
         width="0.18942448"
         height="5.6827345"
         id="barcode_bar35" />
      <rect
         style="fill:#333333;stroke-width:0.79560816"
         x="16.682352"
         y="29.219694"
         width="0.37884897"
         height="5.6827345"
         id="barcode_bar37" />
      <rect
         style="fill:#333333;stroke-width:0.79560816"
         x="17.440048"
         y="29.219694"
         width="0.18942448"
         height="5.6827345"
         id="barcode_bar39" />
      <rect
         style="fill:#333333;stroke-width:0.79560816"
         x="17.818897"
         y="29.219694"
         width="0.18942448"
         height="5.6827345"
         id="barcode_bar41" />
      <rect
         style="fill:#333333;stroke-width:0.79560816"
         x="18.197746"
         y="29.219694"
         width="0.37884897"
         height="5.6827345"
         id="barcode_bar43" />
      <rect
         style="fill:#333333;stroke-width:0.79560816"
         x="18.76602"
         y="29.219694"
         width="0.18942448"
         height="5.6827345"
         id="barcode_bar45" />
      <rect
         style="fill:#333333;stroke-width:0.79560816"
         x="19.144869"
         y="29.219694"
         width="0.18942448"
         height="5.6827345"
         id="barcode_bar47" />
      <rect
         style="fill:#333333;stroke-width:0.79560816"
         x="19.713142"
         y="29.219694"
         width="0.37884897"
         height="5.6827345"
         id="barcode_bar49" />
      <rect
         style="fill:#333333;stroke-width:0.79560816"
         x="20.281416"
         y="29.219694"
         width="0.18942448"
         height="5.6827345"
         id="barcode_bar51" />
      <rect
         style="fill:#333333;stroke-width:0.79560816"
         x="20.660265"
         y="29.219694"
         width="0.37884897"
         height="5.6827345"
         id="barcode_bar53" />
      <rect
         style="fill:#333333;stroke-width:0.79560816"
         x="21.417963"
         y="29.219694"
         width="0.37884897"
         height="5.6827345"
         id="barcode_bar55" />
      <rect
         style="fill:#333333;stroke-width:0.79560816"
         x="21.986237"
         y="29.219694"
         width="0.18942448"
         height="5.6827345"
         id="barcode_bar57" />
    </g>
    <g
       style="stroke-width:0.79560816;fill:#333333"
       id="g4453"
       transform="matrix(0.64057502,0,0,0.46112572,9.4456374,18.161971)">
      <rect
         id="rect4455"
         height="5.6827345"
         width="0.18942448"
         y="29.219694"
         x="7.4005513"
         style="fill:#333333;stroke-width:0.79560816" />
      <rect
         id="rect4457"
         height="5.6827345"
         width="0.18942448"
         y="29.219694"
         x="7.7794003"
         style="fill:#333333;stroke-width:0.79560816" />
      <rect
         id="rect4459"
         height="5.6827345"
         width="0.18942448"
         y="29.219694"
         x="8.1582489"
         style="fill:#333333;stroke-width:0.79560816" />
      <rect
         id="rect4461"
         height="5.6827345"
         width="0.18942448"
         y="29.219694"
         x="8.7265224"
         style="fill:#333333;stroke-width:0.79560816" />
      <rect
         id="rect4463"
         height="5.6827345"
         width="0.37884897"
         y="29.219694"
         x="9.1053715"
         style="fill:#333333;stroke-width:0.79560816" />
      <rect
         id="rect4465"
         height="5.6827345"
         width="0.18942448"
         y="29.219694"
         x="9.673645"
         style="fill:#333333;stroke-width:0.79560816" />
      <rect
         id="rect4467"
         height="5.6827345"
         width="0.37884897"
         y="29.219694"
         x="10.241919"
         style="fill:#333333;stroke-width:0.79560816" />
      <rect
         id="rect4469"
         height="5.6827345"
         width="0.37884897"
         y="29.219694"
         x="10.810192"
         style="fill:#333333;stroke-width:0.79560816" />
      <rect
         id="rect4471"
         height="5.6827345"
         width="0.18942448"
         y="29.219694"
         x="11.56789"
         style="fill:#333333;stroke-width:0.79560816" />
      <rect
         id="rect4473"
         height="5.6827345"
         width="0.18942448"
         y="29.219694"
         x="11.946739"
         style="fill:#333333;stroke-width:0.79560816" />
      <rect
         id="rect4475"
         height="5.6827345"
         width="0.18942448"
         y="29.219694"
         x="12.515013"
         style="fill:#333333;stroke-width:0.79560816" />
      <rect
         id="rect4477"
         height="5.6827345"
         width="0.37884897"
         y="29.219694"
         x="12.893862"
         style="fill:#333333;stroke-width:0.79560816" />
      <rect
         id="rect4479"
         height="5.6827345"
         width="0.37884897"
         y="29.219694"
         x="13.462135"
         style="fill:#333333;stroke-width:0.79560816" />
      <rect
         id="rect4481"
         height="5.6827345"
         width="0.18942448"
         y="29.219694"
         x="14.030408"
         style="fill:#333333;stroke-width:0.79560816" />
      <rect
         id="rect4483"
         height="5.6827345"
         width="0.18942448"
         y="29.219694"
         x="14.598681"
         style="fill:#333333;stroke-width:0.79560816" />
      <rect
         id="rect4485"
         height="5.6827345"
         width="0.18942448"
         y="29.219694"
         x="15.166955"
         style="fill:#333333;stroke-width:0.79560816" />
      <rect
         id="rect4487"
         height="5.6827345"
         width="0.37884897"
         y="29.219694"
         x="15.545804"
         style="fill:#333333;stroke-width:0.79560816" />
      <rect
         id="rect4489"
         height="5.6827345"
         width="0.18942448"
         y="29.219694"
         x="16.114079"
         style="fill:#333333;stroke-width:0.79560816" />
      <rect
         id="rect4491"
         height="5.6827345"
         width="0.37884897"
         y="29.219694"
         x="16.682352"
         style="fill:#333333;stroke-width:0.79560816" />
      <rect
         id="rect4493"
         height="5.6827345"
         width="0.18942448"
         y="29.219694"
         x="17.440048"
         style="fill:#333333;stroke-width:0.79560816" />
      <rect
         id="rect4495"
         height="5.6827345"
         width="0.18942448"
         y="29.219694"
         x="17.818897"
         style="fill:#333333;stroke-width:0.79560816" />
      <rect
         id="rect4497"
         height="5.6827345"
         width="0.37884897"
         y="29.219694"
         x="18.197746"
         style="fill:#333333;stroke-width:0.79560816" />
      <rect
         id="rect4499"
         height="5.6827345"
         width="0.18942448"
         y="29.219694"
         x="18.76602"
         style="fill:#333333;stroke-width:0.79560816" />
      <rect
         id="rect4501"
         height="5.6827345"
         width="0.18942448"
         y="29.219694"
         x="19.144869"
         style="fill:#333333;stroke-width:0.79560816" />
      <rect
         id="rect4503"
         height="5.6827345"
         width="0.37884897"
         y="29.219694"
         x="19.713142"
         style="fill:#333333;stroke-width:0.79560816" />
      <rect
         id="rect4505"
         height="5.6827345"
         width="0.18942448"
         y="29.219694"
         x="20.281416"
         style="fill:#333333;stroke-width:0.79560816" />
      <rect
         id="rect4507"
         height="5.6827345"
         width="0.37884897"
         y="29.219694"
         x="20.660265"
         style="fill:#333333;stroke-width:0.79560816" />
      <rect
         id="rect4509"
         height="5.6827345"
         width="0.37884897"
         y="29.219694"
         x="21.417963"
         style="fill:#333333;stroke-width:0.79560816" />
      <rect
         id="rect4511"
         height="5.6827345"
         width="0.18942448"
         y="29.219694"
         x="21.986237"
         style="fill:#333333;stroke-width:0.79560816" />
    </g>
  </g>
  <rect
     style="opacity:0.5;fill:none;fill-opacity:0.19607843;fill-rule:nonzero;stroke:#ffffff;stroke-width:0.9999997;stroke-miterlimit:4;stroke-dasharray:3.9999992, 1.9999996;stroke-dashoffset:0;stroke-opacity:1"
     id="rect4745"
     width="478.99921"
     height="639.00079"
     x="0.50039804"
     y="0.49959862" />
</svg>
