<?xml version="1.0" encoding="UTF-8" standalone="no"?>
<svg
   xmlns:dc="http://purl.org/dc/elements/1.1/"
   xmlns:cc="http://creativecommons.org/ns#"
   xmlns:rdf="http://www.w3.org/1999/02/22-rdf-syntax-ns#"
   xmlns:svg="http://www.w3.org/2000/svg"
   xmlns="http://www.w3.org/2000/svg"
   xmlns:sodipodi="http://sodipodi.sourceforge.net/DTD/sodipodi-0.dtd"
   xmlns:inkscape="http://www.inkscape.org/namespaces/inkscape"
   version="1.1"
   id="svg2"
   viewBox="0 0 380 463.00001"
   height="463"
   width="380"
   inkscape:version="0.92.3 (2405546, 2018-03-11)"
   sodipodi:docname="onnumara_1.svg">
  <sodipodi:namedview
     pagecolor="#ffffff"
     bordercolor="#666666"
     borderopacity="1"
     objecttolerance="10"
     gridtolerance="10"
     guidetolerance="10"
     inkscape:pageopacity="0"
     inkscape:pageshadow="2"
     inkscape:window-width="1920"
     inkscape:window-height="1048"
     id="namedview8"
     showgrid="false"
     inkscape:snap-midpoints="true"
     inkscape:object-paths="true"
     inkscape:snap-intersection-paths="true"
     inkscape:object-nodes="true"
     inkscape:snap-smooth-nodes="true"
     inkscape:snap-bbox="true"
     inkscape:zoom="1.7500893"
     inkscape:cx="148.84983"
     inkscape:cy="214.91742"
     inkscape:window-x="0"
     inkscape:window-y="32"
     inkscape:window-maximized="1"
     inkscape:current-layer="svg2"
     inkscape:snap-nodes="true"
     fit-margin-top="0"
     fit-margin-left="0"
     fit-margin-right="0"
     fit-margin-bottom="0"
     inkscape:snap-page="true"
     showguides="true"
     inkscape:guide-bbox="true" />
  <defs
     id="defs4">
    <clipPath
       clipPathUnits="userSpaceOnUse"
       id="clipPath1028">
      <path
         d="M 0,118.383 H 329.412 V 0 H 0 Z"
         id="path1026"
         inkscape:connector-curvature="0" />
    </clipPath>
    <filter
       id="filter1408"
       inkscape:label="Greyscale"
       style="color-interpolation-filters:sRGB">
      <feColorMatrix
         id="feColorMatrix1406"
         values="0.21 0.72 0.072 0 0 0.21 0.72 0.072 0 0 0.21 0.72 0.072 0 0 0 0 0 1 0 " />
    </filter>
  </defs>
  <metadata
     id="metadata7">
    <rdf:RDF>
      <cc:Work
         rdf:about="">
        <dc:format>image/svg+xml</dc:format>
        <dc:type
           rdf:resource="http://purl.org/dc/dcmitype/StillImage" />
        <dc:title />
      </cc:Work>
    </rdf:RDF>
  </metadata>
  <g
     id="g976">
    <g
       style="fill:#333333;fill-opacity:1"
       id="g960">
      <path
         inkscape:connector-curvature="0"
         id="path4272"
         d="M 26.579773,195 H 353.42023"
         style="opacity:1;fill:#333333;fill-rule:evenodd;stroke:#000000;stroke-width:1;stroke-linecap:butt;stroke-linejoin:miter;stroke-miterlimit:4;stroke-dasharray:3.99999998, 3.99999998000000012;stroke-dashoffset:0;stroke-opacity:1;fill-opacity:1" />
      <path
         style="opacity:1;fill:#333333;fill-rule:evenodd;stroke:#000000;stroke-width:1;stroke-linecap:butt;stroke-linejoin:miter;stroke-miterlimit:4;stroke-dasharray:3.99999998, 3.99999998000000012;stroke-dashoffset:0;stroke-opacity:1;fill-opacity:1"
         d="M 26.579778,191.59541 H 353.42023"
         id="path4274"
         inkscape:connector-curvature="0" />
      <path
         style="opacity:1;fill:#333333;fill-rule:evenodd;stroke:#000000;stroke-width:1;stroke-linecap:butt;stroke-linejoin:miter;stroke-miterlimit:4;stroke-dasharray:3.99999998, 3.99999998000000012;stroke-dashoffset:0;stroke-opacity:1;fill-opacity:1"
         d="M 26.579782,144 H 353.42023"
         id="path4270"
         inkscape:connector-curvature="0" />
      <path
         inkscape:connector-curvature="0"
         id="path4276"
         d="M 26.579773,147.40459 H 353.42023"
         style="opacity:1;fill:#333333;fill-rule:evenodd;stroke:#000000;stroke-width:1;stroke-linecap:butt;stroke-linejoin:miter;stroke-miterlimit:4;stroke-dasharray:3.99999998, 3.99999998000000012;stroke-dashoffset:0;stroke-opacity:1;fill-opacity:1" />
    </g>
  </g>
  <g
     id="g1154">
    <rect
       style="fill:#333333;stroke-width:7.67626476;fill-opacity:1"
       x="48.196705"
       y="386.69345"
       width="1.8202603"
       height="34.846558"
       id="barcode_bar1" />
    <rect
       style="fill:#333333;stroke-width:7.67626476;fill-opacity:1"
       x="51.837227"
       y="386.69345"
       width="1.8202603"
       height="34.846558"
       id="barcode_bar3" />
    <rect
       style="fill:#333333;stroke-width:7.67626476;fill-opacity:1"
       x="55.477745"
       y="386.69345"
       width="1.8202603"
       height="34.846558"
       id="barcode_bar5" />
    <rect
       style="fill:#333333;stroke-width:7.67626476;fill-opacity:1"
       x="60.938526"
       y="386.69345"
       width="1.8202603"
       height="34.846558"
       id="barcode_bar7" />
    <rect
       style="fill:#333333;stroke-width:7.67626476;fill-opacity:1"
       x="64.579048"
       y="386.69345"
       width="3.6405206"
       height="34.846558"
       id="barcode_bar9" />
    <rect
       style="fill:#333333;stroke-width:7.67626476;fill-opacity:1"
       x="70.039825"
       y="386.69345"
       width="1.8202603"
       height="34.846558"
       id="barcode_bar11" />
    <rect
       style="fill:#333333;stroke-width:7.67626476;fill-opacity:1"
       x="75.50061"
       y="386.69345"
       width="3.6405206"
       height="34.846558"
       id="barcode_bar13" />
    <rect
       style="fill:#333333;stroke-width:7.67626476;fill-opacity:1"
       x="80.961395"
       y="386.69345"
       width="3.6405206"
       height="34.846558"
       id="barcode_bar15" />
    <rect
       style="fill:#333333;stroke-width:7.67626476;fill-opacity:1"
       x="88.242432"
       y="386.69345"
       width="1.8202603"
       height="34.846558"
       id="barcode_bar17" />
    <rect
       style="fill:#333333;stroke-width:7.67626476;fill-opacity:1"
       x="91.882957"
       y="386.69345"
       width="1.8202603"
       height="34.846558"
       id="barcode_bar19" />
    <rect
       style="fill:#333333;stroke-width:7.67626476;fill-opacity:1"
       x="97.343735"
       y="386.69345"
       width="1.8202603"
       height="34.846558"
       id="barcode_bar21" />
    <rect
       style="fill:#333333;stroke-width:7.67626476;fill-opacity:1"
       x="100.98426"
       y="386.69345"
       width="3.6405206"
       height="34.846558"
       id="barcode_bar23" />
    <rect
       style="fill:#333333;stroke-width:7.67626476;fill-opacity:1"
       x="106.44504"
       y="386.69345"
       width="3.6405206"
       height="34.846558"
       id="barcode_bar25" />
    <rect
       style="fill:#333333;stroke-width:7.67626476;fill-opacity:1"
       x="111.90582"
       y="386.69345"
       width="1.8202603"
       height="34.846558"
       id="barcode_bar27" />
    <rect
       style="fill:#333333;stroke-width:7.67626476;fill-opacity:1"
       x="117.36659"
       y="386.69345"
       width="1.8202603"
       height="34.846558"
       id="barcode_bar29" />
    <rect
       style="fill:#333333;stroke-width:7.67626476;fill-opacity:1"
       x="122.82738"
       y="386.69345"
       width="1.8202603"
       height="34.846558"
       id="barcode_bar31" />
    <rect
       style="fill:#333333;stroke-width:7.67626476;fill-opacity:1"
       x="126.4679"
       y="386.69345"
       width="3.6405206"
       height="34.846558"
       id="barcode_bar33" />
    <rect
       style="fill:#333333;stroke-width:7.67626476;fill-opacity:1"
       x="131.9287"
       y="386.69345"
       width="1.8202603"
       height="34.846558"
       id="barcode_bar35" />
    <rect
       style="fill:#333333;stroke-width:7.67626476;fill-opacity:1"
       x="137.38947"
       y="386.69345"
       width="3.6405206"
       height="34.846558"
       id="barcode_bar37" />
    <rect
       style="fill:#333333;stroke-width:7.67626476;fill-opacity:1"
       x="144.6705"
       y="386.69345"
       width="1.8202603"
       height="34.846558"
       id="barcode_bar39" />
    <rect
       style="fill:#333333;stroke-width:7.67626476;fill-opacity:1"
       x="148.31102"
       y="386.69345"
       width="1.8202603"
       height="34.846558"
       id="barcode_bar41" />
    <rect
       style="fill:#333333;stroke-width:7.67626476;fill-opacity:1"
       x="151.95154"
       y="386.69345"
       width="3.6405206"
       height="34.846558"
       id="barcode_bar43" />
    <rect
       style="fill:#333333;stroke-width:7.67626476;fill-opacity:1"
       x="157.41232"
       y="386.69345"
       width="1.8202603"
       height="34.846558"
       id="barcode_bar45" />
    <rect
       style="fill:#333333;stroke-width:7.67626476;fill-opacity:1"
       x="161.05284"
       y="386.69345"
       width="1.8202603"
       height="34.846558"
       id="barcode_bar47" />
    <rect
       style="fill:#333333;stroke-width:7.67626476;fill-opacity:1"
       x="166.51363"
       y="386.69345"
       width="3.6405206"
       height="34.846558"
       id="barcode_bar49" />
    <rect
       style="fill:#333333;stroke-width:7.67626476;fill-opacity:1"
       x="171.97441"
       y="386.69345"
       width="1.8202603"
       height="34.846558"
       id="barcode_bar51" />
    <rect
       style="fill:#333333;stroke-width:7.67626476;fill-opacity:1"
       x="175.61493"
       y="386.69345"
       width="3.6405206"
       height="34.846558"
       id="barcode_bar53" />
    <rect
       style="fill:#333333;stroke-width:7.67626476;fill-opacity:1"
       x="182.89597"
       y="386.69345"
       width="3.6405206"
       height="34.846558"
       id="barcode_bar55" />
    <rect
       style="fill:#333333;stroke-width:7.67626476;fill-opacity:1"
       x="188.35675"
       y="386.69345"
       width="1.8202603"
       height="34.846558"
       id="barcode_bar57" />
    <rect
       id="rect4455"
       height="34.846558"
       width="1.8202603"
       y="386.69345"
       x="189.82298"
       style="fill:#333333;stroke-width:7.67626476;fill-opacity:1" />
    <rect
       id="rect4457"
       height="34.846558"
       width="1.8202603"
       y="386.69345"
       x="193.4635"
       style="fill:#333333;stroke-width:7.67626476;fill-opacity:1" />
    <rect
       id="rect4459"
       height="34.846558"
       width="1.8202603"
       y="386.69345"
       x="197.10402"
       style="fill:#333333;stroke-width:7.67626476;fill-opacity:1" />
    <rect
       id="rect4461"
       height="34.846558"
       width="1.8202603"
       y="386.69345"
       x="202.5648"
       style="fill:#333333;stroke-width:7.67626476;fill-opacity:1" />
    <rect
       id="rect4463"
       height="34.846558"
       width="3.6405206"
       y="386.69345"
       x="206.20532"
       style="fill:#333333;stroke-width:7.67626476;fill-opacity:1" />
    <rect
       id="rect4465"
       height="34.846558"
       width="1.8202603"
       y="386.69345"
       x="211.66611"
       style="fill:#333333;stroke-width:7.67626476;fill-opacity:1" />
    <rect
       id="rect4467"
       height="34.846558"
       width="3.6405206"
       y="386.69345"
       x="217.12689"
       style="fill:#333333;stroke-width:7.67626476;fill-opacity:1" />
    <rect
       id="rect4469"
       height="34.846558"
       width="3.6405206"
       y="386.69345"
       x="222.58766"
       style="fill:#333333;stroke-width:7.67626476;fill-opacity:1" />
    <rect
       id="rect4471"
       height="34.846558"
       width="1.8202603"
       y="386.69345"
       x="229.86871"
       style="fill:#333333;stroke-width:7.67626476;fill-opacity:1" />
    <rect
       id="rect4473"
       height="34.846558"
       width="1.8202603"
       y="386.69345"
       x="233.50923"
       style="fill:#333333;stroke-width:7.67626476;fill-opacity:1" />
    <rect
       id="rect4475"
       height="34.846558"
       width="1.8202603"
       y="386.69345"
       x="238.97002"
       style="fill:#333333;stroke-width:7.67626476;fill-opacity:1" />
    <rect
       id="rect4477"
       height="34.846558"
       width="3.6405206"
       y="386.69345"
       x="242.61053"
       style="fill:#333333;stroke-width:7.67626476;fill-opacity:1" />
    <rect
       id="rect4479"
       height="34.846558"
       width="3.6405206"
       y="386.69345"
       x="248.07132"
       style="fill:#333333;stroke-width:7.67626476;fill-opacity:1" />
    <rect
       id="rect4481"
       height="34.846558"
       width="1.8202603"
       y="386.69345"
       x="253.53209"
       style="fill:#333333;stroke-width:7.67626476;fill-opacity:1" />
    <rect
       id="rect4483"
       height="34.846558"
       width="1.8202603"
       y="386.69345"
       x="258.99286"
       style="fill:#333333;stroke-width:7.67626476;fill-opacity:1" />
    <rect
       id="rect4485"
       height="34.846558"
       width="1.8202603"
       y="386.69345"
       x="264.45364"
       style="fill:#333333;stroke-width:7.67626476;fill-opacity:1" />
    <rect
       id="rect4487"
       height="34.846558"
       width="3.6405206"
       y="386.69345"
       x="268.09418"
       style="fill:#333333;stroke-width:7.67626476;fill-opacity:1" />
    <rect
       id="rect4489"
       height="34.846558"
       width="1.8202603"
       y="386.69345"
       x="273.55496"
       style="fill:#333333;stroke-width:7.67626476;fill-opacity:1" />
    <rect
       id="rect4491"
       height="34.846558"
       width="3.6405206"
       y="386.69345"
       x="279.01575"
       style="fill:#333333;stroke-width:7.67626476;fill-opacity:1" />
    <rect
       id="rect4493"
       height="34.846558"
       width="1.8202603"
       y="386.69345"
       x="286.29678"
       style="fill:#333333;stroke-width:7.67626476;fill-opacity:1" />
    <rect
       id="rect4495"
       height="34.846558"
       width="1.8202603"
       y="386.69345"
       x="289.93729"
       style="fill:#333333;stroke-width:7.67626476;fill-opacity:1" />
    <rect
       id="rect4497"
       height="34.846558"
       width="3.6405206"
       y="386.69345"
       x="293.57782"
       style="fill:#333333;stroke-width:7.67626476;fill-opacity:1" />
    <rect
       id="rect4499"
       height="34.846558"
       width="1.8202603"
       y="386.69345"
       x="299.0386"
       style="fill:#333333;stroke-width:7.67626476;fill-opacity:1" />
    <rect
       id="rect4501"
       height="34.846558"
       width="1.8202603"
       y="386.69345"
       x="302.67911"
       style="fill:#333333;stroke-width:7.67626476;fill-opacity:1" />
    <rect
       id="rect4503"
       height="34.846558"
       width="3.6405206"
       y="386.69345"
       x="308.13989"
       style="fill:#333333;stroke-width:7.67626476;fill-opacity:1" />
    <rect
       id="rect4505"
       height="34.846558"
       width="1.8202603"
       y="386.69345"
       x="313.60068"
       style="fill:#333333;stroke-width:7.67626476;fill-opacity:1" />
    <rect
       id="rect4507"
       height="34.846558"
       width="3.6405206"
       y="386.69345"
       x="317.24121"
       style="fill:#333333;stroke-width:7.67626476;fill-opacity:1" />
    <rect
       id="rect4509"
       height="34.846558"
       width="3.6405206"
       y="386.69345"
       x="324.52225"
       style="fill:#333333;stroke-width:7.67626476;fill-opacity:1" />
    <rect
       id="rect4511"
       height="34.846558"
       width="1.8202603"
       y="386.69345"
       x="329.98303"
       style="fill:#333333;stroke-width:7.67626476;fill-opacity:1" />
  </g>
  <g
     transform="matrix(0.5165779,0,0,-0.50780862,35.59714,39.96058)"
     id="g1132"
     style="opacity:1;stroke-width:2.60327935;filter:url(#filter1408);fill:#4d4d4d">
    <path
       inkscape:connector-curvature="0"
       id="path1134"
       style="opacity:1;fill:#4d4d4d;fill-opacity:1;fill-rule:evenodd;stroke:none;stroke-width:6.77706337"
       d="m 0,0 c 1.419,0 2.579,-1.16 2.579,-2.582 0,-1.421 -1.16,-2.581 -2.579,-2.581 -1.422,0 -2.582,1.16 -2.582,2.581 C -2.582,-1.16 -1.422,0 0,0 m -22.146,2.362 v -16.474 c 1.137,-6.888 5.533,-9.435 9.685,-9.513 4.281,0.313 7.509,2.098 8.956,5.96 0.945,2.525 0.668,5.449 0.668,8.088 5.64,-0.224 9.527,1.414 9.56,7.151 C 6.509,1.895 3.727,3.638 -0.225,4.214 -3.821,4.01 -6.762,2.455 -7.107,0.384 V -14.112 H -9.782 V 2.362 c -0.839,2.458 -4.068,2.16 -4.718,0 v -16.474 h -2.931 V 2.362 c -0.869,2.426 -3.928,2.321 -4.715,0 m -3.313,-0.064 v -17.174 c 0.423,-6.546 6.288,-12.013 13.19,-11.749 7.278,0.209 12.796,5.498 12.491,14.303 5.966,0.513 9.392,3.572 9.75,9.704 C 9.547,2.511 6.478,6.458 0.349,6.926 -1.908,7.155 -6.04,5.995 -7.616,4.404 c -2.423,2.587 -5.806,3.279 -8.54,0.703 -0.84,1.192 -2.157,1.958 -4.525,1.788 -2.316,-0.267 -3.822,-1.948 -4.778,-4.597" />
  </g>
  <g
     id="g969">
    <g
       style="opacity:1;fill:#333333;stroke-width:1.16302133;filter:url(#filter1408);fill-opacity:1"
       id="g1124"
       transform="matrix(1.1464393,0,0,-1.1464393,93.50817,84.24866)">
      <path
         style="opacity:1;fill:#333333;fill-opacity:1;fill-rule:nonzero;stroke:none;stroke-width:1.33333325"
         d="m 126.20312,155.44531 c -9.55557,0 -17.30273,7.74602 -17.30273,17.30274 0,9.55671 7.74716,17.30468 17.30273,17.30468 9.55672,0 17.30469,-7.74797 17.30469,-17.30468 0,-9.55672 -7.74797,-17.30274 -17.30469,-17.30274 z m 0.002,2.80274 c 8.00902,0 14.5,6.49097 14.5,14.5 0,8.00788 -6.49098,14.50195 -14.5,14.50195 -8.00903,0 -14.5,-6.49407 -14.5,-14.50195 0,-8.00903 6.49097,-14.5 14.5,-14.5 z"
         transform="matrix(0.87226602,0,0,-0.87226602,-125.1773,150.68279)"
         id="path1126"
         inkscape:connector-curvature="0" />
    </g>
    <g
       style="opacity:1;fill:#333333;stroke-width:1.16302133;filter:url(#filter1408);fill-opacity:1"
       id="g1030"
       transform="matrix(1.1464393,0,0,-1.1464393,98.011157,98.569059)">
      <path
         d="m 0,0 v 24.586 h 7.473 l 6.873,-11.425 c 0.189,-0.301 0.411,-0.757 0.666,-1.368 0.222,-0.557 0.477,-1.269 0.766,-2.135 -0.056,0.378 -0.094,0.648 -0.116,0.809 -0.023,0.161 -0.034,0.37 -0.034,0.625 l -0.05,1.902 v 11.592 h 7.506 V 0 H 15.578 L 8.704,11.355 C 8.494,11.7 8.26,12.174 8.005,12.774 L 7.256,14.879 7.423,13.51 c 0,-0.368 0.005,-0.716 0.016,-1.044 0.011,-0.328 0.023,-0.644 0.034,-0.944 V 0 Z"
         style="opacity:1;fill:#333333;fill-opacity:1;fill-rule:nonzero;stroke:none;stroke-width:1.16302133"
         id="path1032"
         inkscape:connector-curvature="0" />
    </g>
    <g
       style="opacity:1;fill:#333333;stroke-width:1.16302133;filter:url(#filter1408);fill-opacity:1"
       id="g1034"
       transform="matrix(1.1464393,0,0,-1.1464393,142.67861,98.569059)">
      <path
         d="m 0,0 v 24.586 h 7.473 l 6.874,-11.425 c 0.188,-0.301 0.41,-0.757 0.666,-1.368 0.221,-0.557 0.476,-1.269 0.765,-2.135 -0.056,0.378 -0.094,0.648 -0.116,0.809 -0.023,0.161 -0.034,0.37 -0.034,0.625 l -0.05,1.902 v 11.592 h 7.506 V 0 H 15.578 L 8.705,11.355 C 8.494,11.7 8.26,12.174 8.006,12.774 L 7.257,14.879 7.423,13.51 c 0,-0.368 0.005,-0.716 0.016,-1.044 0.012,-0.328 0.023,-0.644 0.034,-0.944 V 0 Z"
         style="opacity:1;fill:#333333;fill-opacity:1;fill-rule:nonzero;stroke:none;stroke-width:1.16302133"
         id="path1036"
         inkscape:connector-curvature="0" />
    </g>
    <g
       style="opacity:1;fill:#333333;stroke-width:1.16302133;filter:url(#filter1408);fill-opacity:1"
       id="g1038"
       transform="matrix(1.1464393,0,0,-1.1464393,174.40941,70.38225)">
      <path
         d="m 0,0 h 7.872 v -15.146 c 0,-1.412 0.291,-2.413 0.873,-3.002 0.583,-0.59 1.557,-0.884 2.922,-0.884 1.331,0 2.281,0.294 2.854,0.884 0.571,0.589 0.857,1.59 0.857,3.002 V 0 h 7.873 v -15.762 c 0,-3.08 -0.99,-5.433 -2.972,-7.056 -1.979,-1.624 -4.85,-2.435 -8.612,-2.435 -3.783,0 -6.674,0.814 -8.671,2.443 C 0.999,-21.181 0,-18.832 0,-15.762 Z"
         style="opacity:1;fill:#333333;fill-opacity:1;fill-rule:nonzero;stroke:none;stroke-width:1.16302133"
         id="path1040"
         inkscape:connector-curvature="0" />
    </g>
    <g
       style="opacity:1;fill:#333333;stroke-width:1.16302133;filter:url(#filter1408);fill-opacity:1"
       id="g1042"
       transform="matrix(1.1464393,0,0,-1.1464393,214.49673,98.569059)">
      <path
         d="M 0,0 H -7.123 V 24.586 H 2.465 L 5.858,12.327 6.125,11.176 6.691,8.725 c 0.044,0.288 0.101,0.602 0.166,0.941 0.068,0.339 0.157,0.743 0.267,1.209 l 0.35,1.401 3.477,12.31 h 9.57 V 0 h -7.124 l 0.068,12.105 v 2.138 c 0,0.222 0.006,0.573 0.016,1.051 0.012,0.479 0.018,0.852 0.018,1.119 -0.289,-1.391 -0.611,-2.777 -0.966,-4.157 L 12.483,12.039 9.454,0 H 3.962 L 0.9,11.771 0.467,13.608 -0.099,16.413 -0.033,13.691 0,11.872 Z"
         style="opacity:1;fill:#333333;fill-opacity:1;fill-rule:nonzero;stroke:none;stroke-width:1.16302133"
         id="path1044"
         inkscape:connector-curvature="0" />
    </g>
    <g
       style="opacity:1;fill:#333333;stroke-width:1.16302133;filter:url(#filter1408);fill-opacity:1"
       id="g1046"
       transform="matrix(1.1464393,0,0,-1.1464393,252.16241,88.911687)">
      <path
         d="M 0,0 H 4.943 L 2.496,8.507 Z m -10.119,-8.424 8.621,24.587 H 6.474 L 15.095,-8.424 H 7.29 l -0.915,3.27 h -7.807 l -0.949,-3.27 z"
         style="opacity:1;fill:#333333;fill-opacity:1;fill-rule:nonzero;stroke:none;stroke-width:1.16302133"
         id="path1048"
         inkscape:connector-curvature="0" />
    </g>
    <g
       style="opacity:1;fill:#333333;stroke-width:1.16302133;filter:url(#filter1408);fill-opacity:1"
       id="g1050"
       transform="matrix(1.1464393,0,0,-1.1464393,280.95443,82.48693)">
      <path
         d="M 0,0 H 3.579 C 4.821,0 5.685,0.169 6.168,0.509 6.65,0.848 6.891,1.44 6.891,2.286 6.891,3.153 6.651,3.756 6.175,4.095 5.698,4.434 4.767,4.604 3.38,4.604 H 0 Z M -7.772,-14.028 V 10.559 H 3.962 c 3.65,0 6.266,-0.554 7.847,-1.66 1.582,-1.107 2.372,-2.911 2.372,-5.413 0,-1.501 -0.32,-2.746 -0.956,-3.736 -0.639,-0.99 -1.635,-1.774 -2.989,-2.352 1.354,-0.278 2.347,-0.852 2.98,-1.721 0.322,-0.434 0.568,-0.96 0.74,-1.578 0.172,-0.618 0.258,-1.339 0.258,-2.163 l 0.133,-3.425 0.017,-0.083 c 0,-0.958 0.233,-1.47 0.699,-1.537 v -0.919 H 7.124 l -0.332,1.538 c -0.067,0.435 -0.102,0.78 -0.102,1.036 v 2.457 c 0,1.259 -0.249,2.15 -0.747,2.674 -0.501,0.524 -1.365,0.785 -2.596,0.785 H 0 v -8.49 z"
         style="opacity:1;fill:#333333;fill-opacity:1;fill-rule:nonzero;stroke:none;stroke-width:1.16302133"
         id="path1052"
         inkscape:connector-curvature="0" />
    </g>
    <g
       style="opacity:1;fill:#333333;stroke-width:1.16302133;filter:url(#filter1408);fill-opacity:1"
       id="g1054"
       transform="matrix(1.1464393,0,0,-1.1464393,310.70247,88.911687)">
      <path
         d="M 0,0 H 4.942 L 2.496,8.507 Z m -10.12,-8.424 8.621,24.587 H 6.474 L 15.095,-8.424 H 7.29 l -0.916,3.27 h -7.806 l -0.949,-3.27 z"
         style="opacity:1;fill:#333333;fill-opacity:1;fill-rule:nonzero;stroke:none;stroke-width:1.16302133"
         id="path1056"
         inkscape:connector-curvature="0" />
    </g>
    <g
       style="opacity:1;fill:#333333;stroke-width:1.16302133;filter:url(#filter1408);fill-opacity:1"
       id="g1128"
       transform="matrix(1.1464393,0,0,-1.1464393,90.704782,84.24866)" />
    <g
       style="opacity:1;fill:#333333;stroke-width:1.16302133;filter:url(#filter1408);fill-opacity:1"
       id="g1136"
       transform="matrix(1.1464393,0,0,-1.1464393,119.2337,40.176785)">
      <path
         d="m 0,0 3.74,-4.735 5.659,2.093 -3.347,-5.021 3.74,-4.735 -5.81,1.633 -3.347,-5.021 -0.242,6.03 -5.81,1.632 5.66,2.095 z"
         style="opacity:1;fill:#333333;fill-opacity:1;fill-rule:nonzero;stroke:none;stroke-width:1.16302133"
         id="path1138"
         inkscape:connector-curvature="0" />
    </g>
    <g
       style="opacity:1;fill:#333333;stroke-width:1.16302133;filter:url(#filter1408);fill-opacity:1"
       id="g1140"
       transform="matrix(1.1464393,0,0,-1.1464393,43.211019,114.19938)">
      <path
         d="M 0,0 C 0,0 30.711,33.425 64.811,55.343 64.811,55.343 5.599,6.718 0,0"
         style="opacity:1;fill:#333333;fill-opacity:1;fill-rule:nonzero;stroke:none;stroke-width:1.16302133"
         id="path1142"
         inkscape:connector-curvature="0" />
    </g>
  </g>
  <rect
     style="opacity:1;fill:none;fill-opacity:0.09803922;stroke:#ffffff;stroke-width:0;stroke-miterlimit:4;stroke-dasharray:none;stroke-opacity:0.96713616"
     id="rect1046"
     width="380"
     height="463"
     x="5e-07"
     y="4.9999994e-07" />
</svg>
