<?xml version="1.0" encoding="UTF-8" standalone="no"?>
<svg
   xmlns:dc="http://purl.org/dc/elements/1.1/"
   xmlns:cc="http://creativecommons.org/ns#"
   xmlns:rdf="http://www.w3.org/1999/02/22-rdf-syntax-ns#"
   xmlns:svg="http://www.w3.org/2000/svg"
   xmlns="http://www.w3.org/2000/svg"
   xmlns:sodipodi="http://sodipodi.sourceforge.net/DTD/sodipodi-0.dtd"
   xmlns:inkscape="http://www.inkscape.org/namespaces/inkscape"
   version="1.1"
   id="svg2"
   viewBox="0 0 316 540.00002"
   height="540"
   width="316"
   inkscape:version="0.92.3 (2405546, 2018-03-11)"
   sodipodi:docname="onnumara_5.svg">
  <sodipodi:namedview
     pagecolor="#ffffff"
     bordercolor="#666666"
     borderopacity="1"
     objecttolerance="10"
     gridtolerance="10"
     guidetolerance="10"
     inkscape:pageopacity="0"
     inkscape:pageshadow="2"
     inkscape:window-width="1920"
     inkscape:window-height="1048"
     id="namedview8"
     showgrid="false"
     inkscape:snap-midpoints="true"
     inkscape:object-paths="true"
     inkscape:snap-intersection-paths="true"
     inkscape:object-nodes="true"
     inkscape:snap-smooth-nodes="true"
     inkscape:snap-bbox="true"
     inkscape:zoom="1.05"
     inkscape:cx="31.921843"
     inkscape:cy="245.13264"
     inkscape:window-x="0"
     inkscape:window-y="32"
     inkscape:window-maximized="1"
     inkscape:current-layer="svg2"
     inkscape:snap-nodes="true"
     fit-margin-top="0"
     fit-margin-left="0"
     fit-margin-right="0"
     fit-margin-bottom="0"
     inkscape:snap-page="true"
     showguides="true"
     inkscape:guide-bbox="true"
     inkscape:snap-global="true" />
  <defs
     id="defs4">
    <clipPath
       clipPathUnits="userSpaceOnUse"
       id="clipPath1028">
      <path
         d="M 0,118.383 H 329.412 V 0 H 0 Z"
         id="path1026"
         inkscape:connector-curvature="0" />
    </clipPath>
    <filter
       id="filter1408"
       inkscape:label="Greyscale"
       style="color-interpolation-filters:sRGB">
      <feColorMatrix
         id="feColorMatrix1406"
         values="0.21 0.72 0.072 0 0 0.21 0.72 0.072 0 0 0.21 0.72 0.072 0 0 0 0 0 1 0 " />
    </filter>
  </defs>
  <metadata
     id="metadata7">
    <rdf:RDF>
      <cc:Work
         rdf:about="">
        <dc:format>image/svg+xml</dc:format>
        <dc:type
           rdf:resource="http://purl.org/dc/dcmitype/StillImage" />
        <dc:title />
      </cc:Work>
    </rdf:RDF>
  </metadata>
  <g
     id="g958">
    <path
       style="opacity:1;fill:none;fill-rule:evenodd;stroke:#333333;stroke-width:1;stroke-linecap:butt;stroke-linejoin:miter;stroke-miterlimit:4;stroke-dasharray:3.99999999, 3.99999999000000006;stroke-dashoffset:0;stroke-opacity:1"
       d="M 20.857143,316.07919 H 295.14286"
       id="path4272"
       inkscape:connector-curvature="0" />
    <path
       inkscape:connector-curvature="0"
       id="path4274"
       d="M 20.857147,313.22205 H 295.14286"
       style="opacity:1;fill:none;fill-rule:evenodd;stroke:#333333;stroke-width:1;stroke-linecap:butt;stroke-linejoin:miter;stroke-miterlimit:4;stroke-dasharray:3.99999999, 3.99999999000000006;stroke-dashoffset:0;stroke-opacity:1" />
    <path
       inkscape:connector-curvature="0"
       id="path4270"
       d="M 20.857149,120.77688 H 295.14286"
       style="opacity:1;fill:none;fill-rule:evenodd;stroke:#333333;stroke-width:1;stroke-linecap:butt;stroke-linejoin:miter;stroke-miterlimit:4;stroke-dasharray:3.99999995, 3.99999994999999986;stroke-dashoffset:0;stroke-opacity:1" />
    <path
       style="opacity:1;fill:none;fill-rule:evenodd;stroke:#333333;stroke-width:1;stroke-linecap:butt;stroke-linejoin:miter;stroke-miterlimit:4;stroke-dasharray:3.99999995, 3.99999994999999986;stroke-dashoffset:0;stroke-opacity:1"
       d="M 20.857141,123.63403 H 295.14286"
       id="path4276"
       inkscape:connector-curvature="0" />
  </g>
  <g
     id="g1137">
    <rect
       style="fill:#333333;stroke-width:7.67626524;fill-opacity:1"
       x="39.450211"
       y="476.0506"
       width="1.5217663"
       height="29.132273"
       id="barcode_bar1" />
    <rect
       style="fill:#333333;stroke-width:7.67626524;fill-opacity:1"
       x="42.493744"
       y="476.0506"
       width="1.5217663"
       height="29.132273"
       id="barcode_bar3" />
    <rect
       style="fill:#333333;stroke-width:7.67626524;fill-opacity:1"
       x="45.537273"
       y="476.0506"
       width="1.5217663"
       height="29.132273"
       id="barcode_bar5" />
    <rect
       style="fill:#333333;stroke-width:7.67626524;fill-opacity:1"
       x="50.102573"
       y="476.0506"
       width="1.5217663"
       height="29.132273"
       id="barcode_bar7" />
    <rect
       style="fill:#333333;stroke-width:7.67626524;fill-opacity:1"
       x="53.146107"
       y="476.0506"
       width="3.0435326"
       height="29.132273"
       id="barcode_bar9" />
    <rect
       style="fill:#333333;stroke-width:7.67626524;fill-opacity:1"
       x="57.711403"
       y="476.0506"
       width="1.5217663"
       height="29.132273"
       id="barcode_bar11" />
    <rect
       style="fill:#333333;stroke-width:7.67626524;fill-opacity:1"
       x="62.276703"
       y="476.0506"
       width="3.0435326"
       height="29.132273"
       id="barcode_bar13" />
    <rect
       style="fill:#333333;stroke-width:7.67626524;fill-opacity:1"
       x="66.842003"
       y="476.0506"
       width="3.0435326"
       height="29.132273"
       id="barcode_bar15" />
    <rect
       style="fill:#333333;stroke-width:7.67626524;fill-opacity:1"
       x="72.92907"
       y="476.0506"
       width="1.5217663"
       height="29.132273"
       id="barcode_bar17" />
    <rect
       style="fill:#333333;stroke-width:7.67626524;fill-opacity:1"
       x="75.972603"
       y="476.0506"
       width="1.5217663"
       height="29.132273"
       id="barcode_bar19" />
    <rect
       style="fill:#333333;stroke-width:7.67626524;fill-opacity:1"
       x="80.537903"
       y="476.0506"
       width="1.5217663"
       height="29.132273"
       id="barcode_bar21" />
    <rect
       style="fill:#333333;stroke-width:7.67626524;fill-opacity:1"
       x="83.581436"
       y="476.0506"
       width="3.0435326"
       height="29.132273"
       id="barcode_bar23" />
    <rect
       style="fill:#333333;stroke-width:7.67626524;fill-opacity:1"
       x="88.146736"
       y="476.0506"
       width="3.0435326"
       height="29.132273"
       id="barcode_bar25" />
    <rect
       style="fill:#333333;stroke-width:7.67626524;fill-opacity:1"
       x="92.712029"
       y="476.0506"
       width="1.5217663"
       height="29.132273"
       id="barcode_bar27" />
    <rect
       style="fill:#333333;stroke-width:7.67626524;fill-opacity:1"
       x="97.277328"
       y="476.0506"
       width="1.5217663"
       height="29.132273"
       id="barcode_bar29" />
    <rect
       style="fill:#333333;stroke-width:7.67626524;fill-opacity:1"
       x="101.84263"
       y="476.0506"
       width="1.5217663"
       height="29.132273"
       id="barcode_bar31" />
    <rect
       style="fill:#333333;stroke-width:7.67626524;fill-opacity:1"
       x="104.88616"
       y="476.0506"
       width="3.0435326"
       height="29.132273"
       id="barcode_bar33" />
    <rect
       style="fill:#333333;stroke-width:7.67626524;fill-opacity:1"
       x="109.45147"
       y="476.0506"
       width="1.5217663"
       height="29.132273"
       id="barcode_bar35" />
    <rect
       style="fill:#333333;stroke-width:7.67626524;fill-opacity:1"
       x="114.01677"
       y="476.0506"
       width="3.0435326"
       height="29.132273"
       id="barcode_bar37" />
    <rect
       style="fill:#333333;stroke-width:7.67626524;fill-opacity:1"
       x="120.10382"
       y="476.0506"
       width="1.5217663"
       height="29.132273"
       id="barcode_bar39" />
    <rect
       style="fill:#333333;stroke-width:7.67626524;fill-opacity:1"
       x="123.14735"
       y="476.0506"
       width="1.5217663"
       height="29.132273"
       id="barcode_bar41" />
    <rect
       style="fill:#333333;stroke-width:7.67626524;fill-opacity:1"
       x="126.19089"
       y="476.0506"
       width="3.0435326"
       height="29.132273"
       id="barcode_bar43" />
    <rect
       style="fill:#333333;stroke-width:7.67626524;fill-opacity:1"
       x="130.75618"
       y="476.0506"
       width="1.5217663"
       height="29.132273"
       id="barcode_bar45" />
    <rect
       style="fill:#333333;stroke-width:7.67626524;fill-opacity:1"
       x="133.79971"
       y="476.0506"
       width="1.5217663"
       height="29.132273"
       id="barcode_bar47" />
    <rect
       style="fill:#333333;stroke-width:7.67626524;fill-opacity:1"
       x="138.36502"
       y="476.0506"
       width="3.0435326"
       height="29.132273"
       id="barcode_bar49" />
    <rect
       style="fill:#333333;stroke-width:7.67626524;fill-opacity:1"
       x="142.93031"
       y="476.0506"
       width="1.5217663"
       height="29.132273"
       id="barcode_bar51" />
    <rect
       style="fill:#333333;stroke-width:7.67626524;fill-opacity:1"
       x="145.97385"
       y="476.0506"
       width="3.0435326"
       height="29.132273"
       id="barcode_bar53" />
    <rect
       style="fill:#333333;stroke-width:7.67626524;fill-opacity:1"
       x="152.06091"
       y="476.0506"
       width="3.0435326"
       height="29.132273"
       id="barcode_bar55" />
    <rect
       style="fill:#333333;stroke-width:7.67626524;fill-opacity:1"
       x="156.62622"
       y="476.0506"
       width="1.5217663"
       height="29.132273"
       id="barcode_bar57" />
    <rect
       id="rect4455"
       height="29.132273"
       width="1.5217663"
       y="476.0506"
       x="157.85201"
       style="fill:#333333;stroke-width:7.67626524;fill-opacity:1" />
    <rect
       id="rect4457"
       height="29.132273"
       width="1.5217663"
       y="476.0506"
       x="160.89554"
       style="fill:#333333;stroke-width:7.67626524;fill-opacity:1" />
    <rect
       id="rect4459"
       height="29.132273"
       width="1.5217663"
       y="476.0506"
       x="163.93907"
       style="fill:#333333;stroke-width:7.67626524;fill-opacity:1" />
    <rect
       id="rect4461"
       height="29.132273"
       width="1.5217663"
       y="476.0506"
       x="168.50436"
       style="fill:#333333;stroke-width:7.67626524;fill-opacity:1" />
    <rect
       id="rect4463"
       height="29.132273"
       width="3.0435326"
       y="476.0506"
       x="171.5479"
       style="fill:#333333;stroke-width:7.67626524;fill-opacity:1" />
    <rect
       id="rect4465"
       height="29.132273"
       width="1.5217663"
       y="476.0506"
       x="176.1132"
       style="fill:#333333;stroke-width:7.67626524;fill-opacity:1" />
    <rect
       id="rect4467"
       height="29.132273"
       width="3.0435326"
       y="476.0506"
       x="180.6785"
       style="fill:#333333;stroke-width:7.67626524;fill-opacity:1" />
    <rect
       id="rect4469"
       height="29.132273"
       width="3.0435326"
       y="476.0506"
       x="185.2438"
       style="fill:#333333;stroke-width:7.67626524;fill-opacity:1" />
    <rect
       id="rect4471"
       height="29.132273"
       width="1.5217663"
       y="476.0506"
       x="191.33087"
       style="fill:#333333;stroke-width:7.67626524;fill-opacity:1" />
    <rect
       id="rect4473"
       height="29.132273"
       width="1.5217663"
       y="476.0506"
       x="194.3744"
       style="fill:#333333;stroke-width:7.67626524;fill-opacity:1" />
    <rect
       id="rect4475"
       height="29.132273"
       width="1.5217663"
       y="476.0506"
       x="198.9397"
       style="fill:#333333;stroke-width:7.67626524;fill-opacity:1" />
    <rect
       id="rect4477"
       height="29.132273"
       width="3.0435326"
       y="476.0506"
       x="201.98323"
       style="fill:#333333;stroke-width:7.67626524;fill-opacity:1" />
    <rect
       id="rect4479"
       height="29.132273"
       width="3.0435326"
       y="476.0506"
       x="206.54854"
       style="fill:#333333;stroke-width:7.67626524;fill-opacity:1" />
    <rect
       id="rect4481"
       height="29.132273"
       width="1.5217663"
       y="476.0506"
       x="211.11383"
       style="fill:#333333;stroke-width:7.67626524;fill-opacity:1" />
    <rect
       id="rect4483"
       height="29.132273"
       width="1.5217663"
       y="476.0506"
       x="215.67912"
       style="fill:#333333;stroke-width:7.67626524;fill-opacity:1" />
    <rect
       id="rect4485"
       height="29.132273"
       width="1.5217663"
       y="476.0506"
       x="220.24443"
       style="fill:#333333;stroke-width:7.67626524;fill-opacity:1" />
    <rect
       id="rect4487"
       height="29.132273"
       width="3.0435326"
       y="476.0506"
       x="223.28796"
       style="fill:#333333;stroke-width:7.67626524;fill-opacity:1" />
    <rect
       id="rect4489"
       height="29.132273"
       width="1.5217663"
       y="476.0506"
       x="227.85327"
       style="fill:#333333;stroke-width:7.67626524;fill-opacity:1" />
    <rect
       id="rect4491"
       height="29.132273"
       width="3.0435326"
       y="476.0506"
       x="232.41856"
       style="fill:#333333;stroke-width:7.67626524;fill-opacity:1" />
    <rect
       id="rect4493"
       height="29.132273"
       width="1.5217663"
       y="476.0506"
       x="238.50562"
       style="fill:#333333;stroke-width:7.67626524;fill-opacity:1" />
    <rect
       id="rect4495"
       height="29.132273"
       width="1.5217663"
       y="476.0506"
       x="241.54915"
       style="fill:#333333;stroke-width:7.67626524;fill-opacity:1" />
    <rect
       id="rect4497"
       height="29.132273"
       width="3.0435326"
       y="476.0506"
       x="244.59268"
       style="fill:#333333;stroke-width:7.67626524;fill-opacity:1" />
    <rect
       id="rect4499"
       height="29.132273"
       width="1.5217663"
       y="476.0506"
       x="249.15799"
       style="fill:#333333;stroke-width:7.67626524;fill-opacity:1" />
    <rect
       id="rect4501"
       height="29.132273"
       width="1.5217663"
       y="476.0506"
       x="252.20152"
       style="fill:#333333;stroke-width:7.67626524;fill-opacity:1" />
    <rect
       id="rect4503"
       height="29.132273"
       width="3.0435326"
       y="476.0506"
       x="256.76682"
       style="fill:#333333;stroke-width:7.67626524;fill-opacity:1" />
    <rect
       id="rect4505"
       height="29.132273"
       width="1.5217663"
       y="476.0506"
       x="261.33212"
       style="fill:#333333;stroke-width:7.67626524;fill-opacity:1" />
    <rect
       id="rect4507"
       height="29.132273"
       width="3.0435326"
       y="476.0506"
       x="264.37564"
       style="fill:#333333;stroke-width:7.67626524;fill-opacity:1" />
    <rect
       id="rect4509"
       height="29.132273"
       width="3.0435326"
       y="476.0506"
       x="270.46271"
       style="fill:#333333;stroke-width:7.67626524;fill-opacity:1" />
    <rect
       id="rect4511"
       height="29.132273"
       width="1.5217663"
       y="476.0506"
       x="275.02802"
       style="fill:#333333;stroke-width:7.67626524;fill-opacity:1" />
  </g>
  <g
     transform="matrix(0.5165779,0,0,-0.50780862,23.59714,38.46058)"
     id="g1132"
     style="opacity:1;stroke-width:2.60327935;filter:url(#filter1408);fill:#4d4d4d">
    <path
       inkscape:connector-curvature="0"
       id="path1134"
       style="opacity:1;fill:#4d4d4d;fill-opacity:1;fill-rule:evenodd;stroke:none;stroke-width:6.77706337"
       d="m 0,0 c 1.419,0 2.579,-1.16 2.579,-2.582 0,-1.421 -1.16,-2.581 -2.579,-2.581 -1.422,0 -2.582,1.16 -2.582,2.581 C -2.582,-1.16 -1.422,0 0,0 m -22.146,2.362 v -16.474 c 1.137,-6.888 5.533,-9.435 9.685,-9.513 4.281,0.313 7.509,2.098 8.956,5.96 0.945,2.525 0.668,5.449 0.668,8.088 5.64,-0.224 9.527,1.414 9.56,7.151 C 6.509,1.895 3.727,3.638 -0.225,4.214 -3.821,4.01 -6.762,2.455 -7.107,0.384 V -14.112 H -9.782 V 2.362 c -0.839,2.458 -4.068,2.16 -4.718,0 v -16.474 h -2.931 V 2.362 c -0.869,2.426 -3.928,2.321 -4.715,0 m -3.313,-0.064 v -17.174 c 0.423,-6.546 6.288,-12.013 13.19,-11.749 7.278,0.209 12.796,5.498 12.491,14.303 5.966,0.513 9.392,3.572 9.75,9.704 C 9.547,2.511 6.478,6.458 0.349,6.926 -1.908,7.155 -6.04,5.995 -7.616,4.404 c -2.423,2.587 -5.806,3.279 -8.54,0.703 -0.84,1.192 -2.157,1.958 -4.525,1.788 -2.316,-0.267 -3.822,-1.948 -4.778,-4.597" />
  </g>
  <g
     id="g948">
    <g
       style="opacity:1;fill:#333333;stroke-width:1.34293902;filter:url(#filter1408);fill-opacity:1"
       id="g1124"
       transform="matrix(0.9919684,0,0,-0.99372682,71.59314,67.277753)">
      <path
         style="opacity:1;fill:#333333;fill-opacity:1;fill-rule:nonzero;stroke:none;stroke-width:1.53959799"
         d="m 126.20312,155.44531 c -9.55557,0 -17.30273,7.74602 -17.30273,17.30274 0,9.55671 7.74716,17.30468 17.30273,17.30468 9.55672,0 17.30469,-7.74797 17.30469,-17.30468 0,-9.55672 -7.74797,-17.30274 -17.30469,-17.30274 z m 0.002,2.80274 c 8.00902,0 14.5,6.49097 14.5,14.5 0,8.00788 -6.49098,14.50195 -14.5,14.50195 -8.00903,0 -14.5,-6.49407 -14.5,-14.50195 0,-8.00903 6.49097,-14.5 14.5,-14.5 z"
         transform="matrix(0.87226602,0,0,-0.87226602,-125.1773,150.68279)"
         id="path1126"
         inkscape:connector-curvature="0" />
    </g>
    <g
       style="opacity:1;fill:#333333;stroke-width:1.34293902;filter:url(#filter1408);fill-opacity:1"
       id="g1030"
       transform="matrix(0.9919684,0,0,-0.99372682,75.489396,79.690591)">
      <path
         d="m 0,0 v 24.586 h 7.473 l 6.873,-11.425 c 0.189,-0.301 0.411,-0.757 0.666,-1.368 0.222,-0.557 0.477,-1.269 0.766,-2.135 -0.056,0.378 -0.094,0.648 -0.116,0.809 -0.023,0.161 -0.034,0.37 -0.034,0.625 l -0.05,1.902 v 11.592 h 7.506 V 0 H 15.578 L 8.704,11.355 C 8.494,11.7 8.26,12.174 8.005,12.774 L 7.256,14.879 7.423,13.51 c 0,-0.368 0.005,-0.716 0.016,-1.044 0.011,-0.328 0.023,-0.644 0.034,-0.944 V 0 Z"
         style="opacity:1;fill:#333333;fill-opacity:1;fill-rule:nonzero;stroke:none;stroke-width:1.34293902"
         id="path1032"
         inkscape:connector-curvature="0" />
    </g>
    <g
       style="opacity:1;fill:#333333;stroke-width:1.34293902;filter:url(#filter1408);fill-opacity:1"
       id="g1034"
       transform="matrix(0.9919684,0,0,-0.99372682,114.13837,79.690591)">
      <path
         d="m 0,0 v 24.586 h 7.473 l 6.874,-11.425 c 0.188,-0.301 0.41,-0.757 0.666,-1.368 0.221,-0.557 0.476,-1.269 0.765,-2.135 -0.056,0.378 -0.094,0.648 -0.116,0.809 -0.023,0.161 -0.034,0.37 -0.034,0.625 l -0.05,1.902 v 11.592 h 7.506 V 0 H 15.578 L 8.705,11.355 C 8.494,11.7 8.26,12.174 8.006,12.774 L 7.257,14.879 7.423,13.51 c 0,-0.368 0.005,-0.716 0.016,-1.044 0.012,-0.328 0.023,-0.644 0.034,-0.944 V 0 Z"
         style="opacity:1;fill:#333333;fill-opacity:1;fill-rule:nonzero;stroke:none;stroke-width:1.34293902"
         id="path1036"
         inkscape:connector-curvature="0" />
    </g>
    <g
       style="opacity:1;fill:#333333;stroke-width:1.34293902;filter:url(#filter1408);fill-opacity:1"
       id="g1038"
       transform="matrix(0.9919684,0,0,-0.99372682,141.59378,55.25843)">
      <path
         d="m 0,0 h 7.872 v -15.146 c 0,-1.412 0.291,-2.413 0.873,-3.002 0.583,-0.59 1.557,-0.884 2.922,-0.884 1.331,0 2.281,0.294 2.854,0.884 0.571,0.589 0.857,1.59 0.857,3.002 V 0 h 7.873 v -15.762 c 0,-3.08 -0.99,-5.433 -2.972,-7.056 -1.979,-1.624 -4.85,-2.435 -8.612,-2.435 -3.783,0 -6.674,0.814 -8.671,2.443 C 0.999,-21.181 0,-18.832 0,-15.762 Z"
         style="opacity:1;fill:#333333;fill-opacity:1;fill-rule:nonzero;stroke:none;stroke-width:1.34293902"
         id="path1040"
         inkscape:connector-curvature="0" />
    </g>
    <g
       style="opacity:1;fill:#333333;stroke-width:1.34293902;filter:url(#filter1408);fill-opacity:1"
       id="g1042"
       transform="matrix(0.9919684,0,0,-0.99372682,176.27974,79.690591)">
      <path
         d="M 0,0 H -7.123 V 24.586 H 2.465 L 5.858,12.327 6.125,11.176 6.691,8.725 c 0.044,0.288 0.101,0.602 0.166,0.941 0.068,0.339 0.157,0.743 0.267,1.209 l 0.35,1.401 3.477,12.31 h 9.57 V 0 h -7.124 l 0.068,12.105 v 2.138 c 0,0.222 0.006,0.573 0.016,1.051 0.012,0.479 0.018,0.852 0.018,1.119 -0.289,-1.391 -0.611,-2.777 -0.966,-4.157 L 12.483,12.039 9.454,0 H 3.962 L 0.9,11.771 0.467,13.608 -0.099,16.413 -0.033,13.691 0,11.872 Z"
         style="opacity:1;fill:#333333;fill-opacity:1;fill-rule:nonzero;stroke:none;stroke-width:1.34293902"
         id="path1044"
         inkscape:connector-curvature="0" />
    </g>
    <g
       style="opacity:1;fill:#333333;stroke-width:1.34293902;filter:url(#filter1408);fill-opacity:1"
       id="g1046"
       transform="matrix(0.9919684,0,0,-0.99372682,208.87036,71.319637)">
      <path
         d="M 0,0 H 4.943 L 2.496,8.507 Z m -10.119,-8.424 8.621,24.587 H 6.474 L 15.095,-8.424 H 7.29 l -0.915,3.27 h -7.807 l -0.949,-3.27 z"
         style="opacity:1;fill:#333333;fill-opacity:1;fill-rule:nonzero;stroke:none;stroke-width:1.34293902"
         id="path1048"
         inkscape:connector-curvature="0" />
    </g>
    <g
       style="opacity:1;fill:#333333;stroke-width:1.34293902;filter:url(#filter1408);fill-opacity:1"
       id="g1050"
       transform="matrix(0.9919684,0,0,-0.99372682,233.78295,65.750695)">
      <path
         d="M 0,0 H 3.579 C 4.821,0 5.685,0.169 6.168,0.509 6.65,0.848 6.891,1.44 6.891,2.286 6.891,3.153 6.651,3.756 6.175,4.095 5.698,4.434 4.767,4.604 3.38,4.604 H 0 Z M -7.772,-14.028 V 10.559 H 3.962 c 3.65,0 6.266,-0.554 7.847,-1.66 1.582,-1.107 2.372,-2.911 2.372,-5.413 0,-1.501 -0.32,-2.746 -0.956,-3.736 -0.639,-0.99 -1.635,-1.774 -2.989,-2.352 1.354,-0.278 2.347,-0.852 2.98,-1.721 0.322,-0.434 0.568,-0.96 0.74,-1.578 0.172,-0.618 0.258,-1.339 0.258,-2.163 l 0.133,-3.425 0.017,-0.083 c 0,-0.958 0.233,-1.47 0.699,-1.537 v -0.919 H 7.124 l -0.332,1.538 c -0.067,0.435 -0.102,0.78 -0.102,1.036 v 2.457 c 0,1.259 -0.249,2.15 -0.747,2.674 -0.501,0.524 -1.365,0.785 -2.596,0.785 H 0 v -8.49 z"
         style="opacity:1;fill:#333333;fill-opacity:1;fill-rule:nonzero;stroke:none;stroke-width:1.34293902"
         id="path1052"
         inkscape:connector-curvature="0" />
    </g>
    <g
       style="opacity:1;fill:#333333;stroke-width:1.34293902;filter:url(#filter1408);fill-opacity:1"
       id="g1054"
       transform="matrix(0.9919684,0,0,-0.99372682,259.52275,71.319637)">
      <path
         d="M 0,0 H 4.942 L 2.496,8.507 Z m -10.12,-8.424 8.621,24.587 H 6.474 L 15.095,-8.424 H 7.29 l -0.916,3.27 h -7.806 l -0.949,-3.27 z"
         style="opacity:1;fill:#333333;fill-opacity:1;fill-rule:nonzero;stroke:none;stroke-width:1.34293902"
         id="path1056"
         inkscape:connector-curvature="0" />
    </g>
    <g
       style="opacity:1;fill:#333333;stroke-width:1.34293902;filter:url(#filter1408);fill-opacity:1"
       id="g1128"
       transform="matrix(0.9919684,0,0,-0.99372682,69.167479,67.277753)" />
    <g
       style="opacity:1;fill:#333333;stroke-width:1.34293902;filter:url(#filter1408);fill-opacity:1"
       id="g1136"
       transform="matrix(0.9919684,0,0,-0.99372682,93.85242,29.07651)">
      <path
         d="m 0,0 3.74,-4.735 5.659,2.093 -3.347,-5.021 3.74,-4.735 -5.81,1.633 -3.347,-5.021 -0.242,6.03 -5.81,1.632 5.66,2.095 z"
         style="opacity:1;fill:#333333;fill-opacity:1;fill-rule:nonzero;stroke:none;stroke-width:1.34293902"
         id="path1138"
         inkscape:connector-curvature="0" />
    </g>
    <g
       style="opacity:1;fill:#333333;stroke-width:1.34293902;filter:url(#filter1408);fill-opacity:1"
       id="g1140"
       transform="matrix(0.9919684,0,0,-0.99372682,28.07301,93.238864)">
      <path
         d="M 0,0 C 0,0 30.711,33.425 64.811,55.343 64.811,55.343 5.599,6.718 0,0"
         style="opacity:1;fill:#333333;fill-opacity:1;fill-rule:nonzero;stroke:none;stroke-width:1.34293902"
         id="path1142"
         inkscape:connector-curvature="0" />
    </g>
  </g>
  <rect
     style="opacity:1;fill:none;fill-opacity:0.09803922;stroke:#ffffff;stroke-width:0;stroke-miterlimit:4;stroke-dasharray:none;stroke-opacity:1"
     id="rect926"
     width="316"
     height="540"
     x="5e-07"
     y="4.9999994e-07" />
</svg>
