<?xml version="1.0" encoding="UTF-8" standalone="no"?>
<svg
   xmlns:dc="http://purl.org/dc/elements/1.1/"
   xmlns:cc="http://creativecommons.org/ns#"
   xmlns:rdf="http://www.w3.org/1999/02/22-rdf-syntax-ns#"
   xmlns:svg="http://www.w3.org/2000/svg"
   xmlns="http://www.w3.org/2000/svg"
   xmlns:sodipodi="http://sodipodi.sourceforge.net/DTD/sodipodi-0.dtd"
   xmlns:inkscape="http://www.inkscape.org/namespaces/inkscape"
   version="1.1"
   id="svg2"
   viewBox="0 0 380 459.00001"
   height="459"
   width="380"
   inkscape:version="0.92.3 (2405546, 2018-03-11)"
   sodipodi:docname="sanstopu_1 (copy).svg">
  <sodipodi:namedview
     pagecolor="#ffffff"
     bordercolor="#666666"
     borderopacity="1"
     objecttolerance="10"
     gridtolerance="10"
     guidetolerance="10"
     inkscape:pageopacity="0"
     inkscape:pageshadow="2"
     inkscape:window-width="1920"
     inkscape:window-height="1048"
     id="namedview8"
     showgrid="false"
     inkscape:snap-midpoints="true"
     inkscape:object-paths="true"
     inkscape:snap-intersection-paths="true"
     inkscape:object-nodes="true"
     inkscape:snap-smooth-nodes="true"
     inkscape:snap-bbox="true"
     inkscape:zoom="1.2303658"
     inkscape:cx="77.451548"
     inkscape:cy="201.41993"
     inkscape:window-x="0"
     inkscape:window-y="0"
     inkscape:window-maximized="1"
     inkscape:current-layer="svg2"
     inkscape:snap-nodes="true"
     fit-margin-top="0"
     fit-margin-left="0"
     fit-margin-right="0"
     fit-margin-bottom="0"
     inkscape:snap-page="true"
     showguides="true"
     inkscape:guide-bbox="true" />
  <defs
     id="defs4">
    <clipPath
       clipPathUnits="userSpaceOnUse"
       id="clipPath1028">
      <path
         d="M 0,118.383 H 329.412 V 0 H 0 Z"
         id="path1026"
         inkscape:connector-curvature="0" />
    </clipPath>
    <filter
       id="filter1408"
       inkscape:label="Greyscale"
       style="color-interpolation-filters:sRGB">
      <feColorMatrix
         id="feColorMatrix1406"
         values="0.21 0.72 0.072 0 0 0.21 0.72 0.072 0 0 0.21 0.72 0.072 0 0 0 0 0 1 0 " />
    </filter>
  </defs>
  <metadata
     id="metadata7">
    <rdf:RDF>
      <cc:Work
         rdf:about="">
        <dc:format>image/svg+xml</dc:format>
        <dc:type
           rdf:resource="http://purl.org/dc/dcmitype/StillImage" />
        <dc:title />
      </cc:Work>
    </rdf:RDF>
  </metadata>
  <g
     id="g944">
    <path
       style="opacity:1;fill:none;fill-rule:evenodd;stroke:#333333;stroke-width:1;stroke-linecap:butt;stroke-linejoin:miter;stroke-miterlimit:4;stroke-dasharray:3.99999998, 3.99999998000000012;stroke-dashoffset:0;stroke-opacity:1"
       d="M 26.579772,183 H 353.42023"
       id="path4272"
       inkscape:connector-curvature="0" />
    <path
       inkscape:connector-curvature="0"
       id="path4274"
       d="M 26.579777,179.59541 H 353.42023"
       style="opacity:1;fill:none;fill-rule:evenodd;stroke:#333333;stroke-width:1;stroke-linecap:butt;stroke-linejoin:miter;stroke-miterlimit:4;stroke-dasharray:3.99999998, 3.99999998000000012;stroke-dashoffset:0;stroke-opacity:1" />
    <path
       inkscape:connector-curvature="0"
       id="path4270"
       d="M 26.579781,133 H 353.42023"
       style="opacity:1;fill:none;fill-rule:evenodd;stroke:#333333;stroke-width:1;stroke-linecap:butt;stroke-linejoin:miter;stroke-miterlimit:4;stroke-dasharray:3.99999998, 3.99999998000000012;stroke-dashoffset:0;stroke-opacity:1" />
    <path
       style="opacity:1;fill:none;fill-rule:evenodd;stroke:#333333;stroke-width:1;stroke-linecap:butt;stroke-linejoin:miter;stroke-miterlimit:4;stroke-dasharray:3.99999998, 3.99999998000000012;stroke-dashoffset:0;stroke-opacity:1"
       d="M 26.579772,136.40459 H 353.42023"
       id="path4276"
       inkscape:connector-curvature="0" />
  </g>
  <g
     id="g1122">
    <rect
       style="fill:#333333;stroke-width:7.67626476;fill-opacity:1"
       x="48.196705"
       y="378.69345"
       width="1.8202603"
       height="34.846558"
       id="barcode_bar1" />
    <rect
       style="fill:#333333;stroke-width:7.67626476;fill-opacity:1"
       x="51.837227"
       y="378.69345"
       width="1.8202603"
       height="34.846558"
       id="barcode_bar3" />
    <rect
       style="fill:#333333;stroke-width:7.67626476;fill-opacity:1"
       x="55.477745"
       y="378.69345"
       width="1.8202603"
       height="34.846558"
       id="barcode_bar5" />
    <rect
       style="fill:#333333;stroke-width:7.67626476;fill-opacity:1"
       x="60.938526"
       y="378.69345"
       width="1.8202603"
       height="34.846558"
       id="barcode_bar7" />
    <rect
       style="fill:#333333;stroke-width:7.67626476;fill-opacity:1"
       x="64.579048"
       y="378.69345"
       width="3.6405206"
       height="34.846558"
       id="barcode_bar9" />
    <rect
       style="fill:#333333;stroke-width:7.67626476;fill-opacity:1"
       x="70.039825"
       y="378.69345"
       width="1.8202603"
       height="34.846558"
       id="barcode_bar11" />
    <rect
       style="fill:#333333;stroke-width:7.67626476;fill-opacity:1"
       x="75.50061"
       y="378.69345"
       width="3.6405206"
       height="34.846558"
       id="barcode_bar13" />
    <rect
       style="fill:#333333;stroke-width:7.67626476;fill-opacity:1"
       x="80.961395"
       y="378.69345"
       width="3.6405206"
       height="34.846558"
       id="barcode_bar15" />
    <rect
       style="fill:#333333;stroke-width:7.67626476;fill-opacity:1"
       x="88.242432"
       y="378.69345"
       width="1.8202603"
       height="34.846558"
       id="barcode_bar17" />
    <rect
       style="fill:#333333;stroke-width:7.67626476;fill-opacity:1"
       x="91.882957"
       y="378.69345"
       width="1.8202603"
       height="34.846558"
       id="barcode_bar19" />
    <rect
       style="fill:#333333;stroke-width:7.67626476;fill-opacity:1"
       x="97.343735"
       y="378.69345"
       width="1.8202603"
       height="34.846558"
       id="barcode_bar21" />
    <rect
       style="fill:#333333;stroke-width:7.67626476;fill-opacity:1"
       x="100.98426"
       y="378.69345"
       width="3.6405206"
       height="34.846558"
       id="barcode_bar23" />
    <rect
       style="fill:#333333;stroke-width:7.67626476;fill-opacity:1"
       x="106.44504"
       y="378.69345"
       width="3.6405206"
       height="34.846558"
       id="barcode_bar25" />
    <rect
       style="fill:#333333;stroke-width:7.67626476;fill-opacity:1"
       x="111.90582"
       y="378.69345"
       width="1.8202603"
       height="34.846558"
       id="barcode_bar27" />
    <rect
       style="fill:#333333;stroke-width:7.67626476;fill-opacity:1"
       x="117.36659"
       y="378.69345"
       width="1.8202603"
       height="34.846558"
       id="barcode_bar29" />
    <rect
       style="fill:#333333;stroke-width:7.67626476;fill-opacity:1"
       x="122.82738"
       y="378.69345"
       width="1.8202603"
       height="34.846558"
       id="barcode_bar31" />
    <rect
       style="fill:#333333;stroke-width:7.67626476;fill-opacity:1"
       x="126.4679"
       y="378.69345"
       width="3.6405206"
       height="34.846558"
       id="barcode_bar33" />
    <rect
       style="fill:#333333;stroke-width:7.67626476;fill-opacity:1"
       x="131.9287"
       y="378.69345"
       width="1.8202603"
       height="34.846558"
       id="barcode_bar35" />
    <rect
       style="fill:#333333;stroke-width:7.67626476;fill-opacity:1"
       x="137.38947"
       y="378.69345"
       width="3.6405206"
       height="34.846558"
       id="barcode_bar37" />
    <rect
       style="fill:#333333;stroke-width:7.67626476;fill-opacity:1"
       x="144.6705"
       y="378.69345"
       width="1.8202603"
       height="34.846558"
       id="barcode_bar39" />
    <rect
       style="fill:#333333;stroke-width:7.67626476;fill-opacity:1"
       x="148.31102"
       y="378.69345"
       width="1.8202603"
       height="34.846558"
       id="barcode_bar41" />
    <rect
       style="fill:#333333;stroke-width:7.67626476;fill-opacity:1"
       x="151.95154"
       y="378.69345"
       width="3.6405206"
       height="34.846558"
       id="barcode_bar43" />
    <rect
       style="fill:#333333;stroke-width:7.67626476;fill-opacity:1"
       x="157.41232"
       y="378.69345"
       width="1.8202603"
       height="34.846558"
       id="barcode_bar45" />
    <rect
       style="fill:#333333;stroke-width:7.67626476;fill-opacity:1"
       x="161.05284"
       y="378.69345"
       width="1.8202603"
       height="34.846558"
       id="barcode_bar47" />
    <rect
       style="fill:#333333;stroke-width:7.67626476;fill-opacity:1"
       x="166.51363"
       y="378.69345"
       width="3.6405206"
       height="34.846558"
       id="barcode_bar49" />
    <rect
       style="fill:#333333;stroke-width:7.67626476;fill-opacity:1"
       x="171.97441"
       y="378.69345"
       width="1.8202603"
       height="34.846558"
       id="barcode_bar51" />
    <rect
       style="fill:#333333;stroke-width:7.67626476;fill-opacity:1"
       x="175.61493"
       y="378.69345"
       width="3.6405206"
       height="34.846558"
       id="barcode_bar53" />
    <rect
       style="fill:#333333;stroke-width:7.67626476;fill-opacity:1"
       x="182.89597"
       y="378.69345"
       width="3.6405206"
       height="34.846558"
       id="barcode_bar55" />
    <rect
       style="fill:#333333;stroke-width:7.67626476;fill-opacity:1"
       x="188.35675"
       y="378.69345"
       width="1.8202603"
       height="34.846558"
       id="barcode_bar57" />
    <rect
       id="rect4455"
       height="34.846558"
       width="1.8202603"
       y="378.69345"
       x="189.82298"
       style="fill:#333333;stroke-width:7.67626476;fill-opacity:1" />
    <rect
       id="rect4457"
       height="34.846558"
       width="1.8202603"
       y="378.69345"
       x="193.4635"
       style="fill:#333333;stroke-width:7.67626476;fill-opacity:1" />
    <rect
       id="rect4459"
       height="34.846558"
       width="1.8202603"
       y="378.69345"
       x="197.10402"
       style="fill:#333333;stroke-width:7.67626476;fill-opacity:1" />
    <rect
       id="rect4461"
       height="34.846558"
       width="1.8202603"
       y="378.69345"
       x="202.5648"
       style="fill:#333333;stroke-width:7.67626476;fill-opacity:1" />
    <rect
       id="rect4463"
       height="34.846558"
       width="3.6405206"
       y="378.69345"
       x="206.20532"
       style="fill:#333333;stroke-width:7.67626476;fill-opacity:1" />
    <rect
       id="rect4465"
       height="34.846558"
       width="1.8202603"
       y="378.69345"
       x="211.66611"
       style="fill:#333333;stroke-width:7.67626476;fill-opacity:1" />
    <rect
       id="rect4467"
       height="34.846558"
       width="3.6405206"
       y="378.69345"
       x="217.12689"
       style="fill:#333333;stroke-width:7.67626476;fill-opacity:1" />
    <rect
       id="rect4469"
       height="34.846558"
       width="3.6405206"
       y="378.69345"
       x="222.58766"
       style="fill:#333333;stroke-width:7.67626476;fill-opacity:1" />
    <rect
       id="rect4471"
       height="34.846558"
       width="1.8202603"
       y="378.69345"
       x="229.86871"
       style="fill:#333333;stroke-width:7.67626476;fill-opacity:1" />
    <rect
       id="rect4473"
       height="34.846558"
       width="1.8202603"
       y="378.69345"
       x="233.50923"
       style="fill:#333333;stroke-width:7.67626476;fill-opacity:1" />
    <rect
       id="rect4475"
       height="34.846558"
       width="1.8202603"
       y="378.69345"
       x="238.97002"
       style="fill:#333333;stroke-width:7.67626476;fill-opacity:1" />
    <rect
       id="rect4477"
       height="34.846558"
       width="3.6405206"
       y="378.69345"
       x="242.61053"
       style="fill:#333333;stroke-width:7.67626476;fill-opacity:1" />
    <rect
       id="rect4479"
       height="34.846558"
       width="3.6405206"
       y="378.69345"
       x="248.07132"
       style="fill:#333333;stroke-width:7.67626476;fill-opacity:1" />
    <rect
       id="rect4481"
       height="34.846558"
       width="1.8202603"
       y="378.69345"
       x="253.53209"
       style="fill:#333333;stroke-width:7.67626476;fill-opacity:1" />
    <rect
       id="rect4483"
       height="34.846558"
       width="1.8202603"
       y="378.69345"
       x="258.99286"
       style="fill:#333333;stroke-width:7.67626476;fill-opacity:1" />
    <rect
       id="rect4485"
       height="34.846558"
       width="1.8202603"
       y="378.69345"
       x="264.45364"
       style="fill:#333333;stroke-width:7.67626476;fill-opacity:1" />
    <rect
       id="rect4487"
       height="34.846558"
       width="3.6405206"
       y="378.69345"
       x="268.09418"
       style="fill:#333333;stroke-width:7.67626476;fill-opacity:1" />
    <rect
       id="rect4489"
       height="34.846558"
       width="1.8202603"
       y="378.69345"
       x="273.55496"
       style="fill:#333333;stroke-width:7.67626476;fill-opacity:1" />
    <rect
       id="rect4491"
       height="34.846558"
       width="3.6405206"
       y="378.69345"
       x="279.01575"
       style="fill:#333333;stroke-width:7.67626476;fill-opacity:1" />
    <rect
       id="rect4493"
       height="34.846558"
       width="1.8202603"
       y="378.69345"
       x="286.29678"
       style="fill:#333333;stroke-width:7.67626476;fill-opacity:1" />
    <rect
       id="rect4495"
       height="34.846558"
       width="1.8202603"
       y="378.69345"
       x="289.93729"
       style="fill:#333333;stroke-width:7.67626476;fill-opacity:1" />
    <rect
       id="rect4497"
       height="34.846558"
       width="3.6405206"
       y="378.69345"
       x="293.57782"
       style="fill:#333333;stroke-width:7.67626476;fill-opacity:1" />
    <rect
       id="rect4499"
       height="34.846558"
       width="1.8202603"
       y="378.69345"
       x="299.0386"
       style="fill:#333333;stroke-width:7.67626476;fill-opacity:1" />
    <rect
       id="rect4501"
       height="34.846558"
       width="1.8202603"
       y="378.69345"
       x="302.67911"
       style="fill:#333333;stroke-width:7.67626476;fill-opacity:1" />
    <rect
       id="rect4503"
       height="34.846558"
       width="3.6405206"
       y="378.69345"
       x="308.13989"
       style="fill:#333333;stroke-width:7.67626476;fill-opacity:1" />
    <rect
       id="rect4505"
       height="34.846558"
       width="1.8202603"
       y="378.69345"
       x="313.60068"
       style="fill:#333333;stroke-width:7.67626476;fill-opacity:1" />
    <rect
       id="rect4507"
       height="34.846558"
       width="3.6405206"
       y="378.69345"
       x="317.24121"
       style="fill:#333333;stroke-width:7.67626476;fill-opacity:1" />
    <rect
       id="rect4509"
       height="34.846558"
       width="3.6405206"
       y="378.69345"
       x="324.52225"
       style="fill:#333333;stroke-width:7.67626476;fill-opacity:1" />
    <rect
       id="rect4511"
       height="34.846558"
       width="1.8202603"
       y="378.69345"
       x="329.98303"
       style="fill:#333333;stroke-width:7.67626476;fill-opacity:1" />
  </g>
  <g
     id="g934">
    <g
       transform="matrix(1.0567234,0,0,-1.0567234,241.81437,67.338743)"
       id="g1330"
       style="opacity:1;fill:#333333;stroke-width:0.94632137;stroke-miterlimit:4;stroke-dasharray:none;fill-opacity:1">
      <path
         inkscape:connector-curvature="0"
         id="path1332"
         style="fill:#333333;fill-opacity:1;fill-rule:nonzero;stroke:none;stroke-width:0.94632137;stroke-miterlimit:4;stroke-dasharray:none"
         d="m 0,0 c 0,0 36.847,21.382 15.464,23.673 -52.119,-3.118 -119.131,-40.855 -128.294,-52.119 -9.164,-11.264 11.264,-8.182 17.182,-7.145 5.919,1.036 50.019,12.299 66.438,22.418 l 5.154,2.254 4.01,-3.782 -3.436,-3.435 c 0,0 -38.947,-18.137 -71.785,-20.047 -32.837,-1.908 -19.302,11.212 -17.563,12.6 10.59,8.462 70.703,48.936 125.812,51.166 0,0 32.204,0.012 -11.646,-26.347 0,0 -5.345,-3.418 -4.964,-2.854 0.382,0.564 -1.336,2.663 -1.336,2.663 z" />
    </g>
    <g
       transform="matrix(1.0567234,0,0,-1.0567234,252.05244,77.124736)"
       id="g1334"
       style="opacity:1;fill:#333333;stroke-width:0.94632137;stroke-miterlimit:4;stroke-dasharray:none;fill-opacity:1">
      <path
         inkscape:connector-curvature="0"
         id="path1336"
         style="fill:#333333;fill-opacity:1;fill-rule:nonzero;stroke:none;stroke-width:0.94632137;stroke-miterlimit:4;stroke-dasharray:none"
         d="m 0,0 c 0,6.117 -8.921,11.075 -19.927,11.075 -11.006,0 -19.927,-4.958 -19.927,-11.075 0,-6.114 8.921,-11.071 19.927,-11.071 C -8.921,-11.071 0,-6.114 0,0" />
    </g>
    <g
       transform="matrix(0.42038576,0,0,-0.42038576,68.415809,46.940508)"
       id="g1342"
       style="opacity:1;fill:#333333;stroke-width:2.37876749;stroke-miterlimit:4;stroke-dasharray:none;fill-opacity:1" />
    <g
       transform="matrix(1.0567234,0,0,-1.0567234,267.61016,73.611451)"
       id="g1346"
       style="opacity:1;fill:#333333;stroke-width:0.94632137;stroke-miterlimit:4;stroke-dasharray:none;fill-opacity:1">
      <path
         inkscape:connector-curvature="0"
         id="path1348"
         style="fill:#333333;fill-opacity:1;fill-rule:nonzero;stroke:none;stroke-width:0.94632137;stroke-miterlimit:4;stroke-dasharray:none"
         d="m 0,0 c -0.949,-0.486 -1.706,-1.083 -2.272,-1.79 -0.566,-0.707 -0.848,-1.43 -0.848,-2.171 0,-0.557 -0.063,-1.073 -0.185,-1.549 -0.124,-0.474 -0.246,-1.048 -0.368,-1.719 0,-0.649 0.139,-1.217 0.419,-1.704 0.28,-0.488 0.849,-0.927 1.708,-1.322 0.447,-0.139 0.875,-0.208 1.287,-0.208 0.634,0 1.305,0.169 2.015,0.504 0.71,0.336 1.381,0.667 2.015,0.99 0.821,0.905 1.484,1.802 1.987,2.696 0.504,0.892 0.756,1.777 0.756,2.659 0,0.579 -0.119,1.105 -0.357,1.581 C 5.92,-1.559 5.583,-1.129 5.146,-0.747 4.708,-0.364 4.251,-0.121 3.777,-0.017 3.303,0.088 2.72,0.14 2.025,0.14 1.696,0.14 1.404,0.134 1.148,0.122 0.894,0.11 0.511,0.07 0,0 m 12.823,-0.695 c 0.592,-1.181 0.889,-2.363 0.889,-3.545 0,-1.159 -0.286,-2.23 -0.858,-3.216 -0.573,-0.984 -1.467,-1.836 -2.686,-2.555 -1.106,-0.556 -2.288,-0.978 -3.544,-1.267 -1.254,-0.291 -2.601,-0.436 -4.042,-0.436 -0.886,0 -1.77,0.069 -2.656,0.208 l -3.156,0.939 -0.443,-0.591 0.553,-8.483 c 0.333,-0.393 0.886,-0.59 1.66,-0.59 h 0.693 0.969 c 0.59,0 1.051,-0.104 1.384,-0.312 l -0.554,-0.244 c -1.587,0 -4.125,-0.087 -7.612,-0.26 -3.488,-0.175 -5.88,-0.261 -7.171,-0.261 0.479,0.326 1.347,0.516 2.603,0.573 1.253,0.058 2.085,0.156 2.49,0.295 -0.185,0.347 -0.276,0.719 -0.276,1.113 0,0.395 -0.055,0.742 -0.167,1.043 0,1.947 -0.008,3.906 -0.027,5.875 -0.019,1.97 -0.092,3.84 -0.222,5.614 -0.129,1.773 -0.379,3.828 -0.748,6.17 l 0.333,0.209 c -0.22,0.139 -0.333,0.313 -0.333,0.52 v 0.94 l -5.37,-0.14 c 0.074,0.279 0.507,0.446 1.302,0.504 0.794,0.058 1.301,0.134 1.522,0.227 1.181,0 2.953,0.08 5.315,0.243 2.362,0.163 4.135,0.243 5.316,0.243 C -2.641,1.681 -2.954,1.137 -2.954,0.488 V 0 c 0.704,0.603 1.74,1.148 3.111,1.635 1.37,0.486 2.722,0.799 4.056,0.938 2.592,-0.347 4.535,-0.707 5.831,-1.077 1.297,-0.371 2.225,-1.102 2.779,-2.191" />
    </g>
    <g
       transform="matrix(1.0567234,0,0,-1.0567234,310.18459,70.773088)"
       id="g1350"
       style="opacity:1;fill:#333333;stroke-width:0.94632137;stroke-miterlimit:4;stroke-dasharray:none;fill-opacity:1">
      <path
         inkscape:connector-curvature="0"
         id="path1352"
         style="fill:#333333;fill-opacity:1;fill-rule:nonzero;stroke:none;stroke-width:0.94632137;stroke-miterlimit:4;stroke-dasharray:none"
         d="m 0,0 c 0,-1.348 -0.028,-3.069 -0.083,-5.161 -0.056,-2.092 -0.082,-3.15 -0.082,-3.173 0,-0.813 0.018,-1.656 0.055,-2.529 0.036,-0.871 0.11,-1.725 0.22,-2.562 0.407,-0.281 1.072,-0.419 1.994,-0.419 h 1.273 c 0.665,0 1.199,-0.081 1.606,-0.243 l -0.166,-0.209 c -1.255,0 -3.12,-0.098 -5.592,-0.295 -2.473,-0.198 -4.19,-0.295 -5.149,-0.295 -0.333,0.096 -0.546,0.224 -0.637,0.383 -0.092,0.158 -0.138,0.37 -0.138,0.638 v 0.51 c 0,0.268 -0.093,0.498 -0.279,0.693 -0.81,-0.682 -1.762,-1.224 -2.849,-1.625 -1.091,-0.4 -2.263,-0.599 -3.518,-0.599 l -2.435,0.224 c 0.036,0.024 -0.055,0.113 -0.278,0.262 -0.184,-0.069 -0.35,-0.105 -0.498,-0.105 -0.333,0 -0.756,0.111 -1.273,0.332 -0.518,0.218 -0.868,0.341 -1.052,0.363 -1.293,0.673 -2.186,1.473 -2.686,2.4 -0.498,0.926 -0.747,1.981 -0.747,3.162 0,0.743 0.064,1.786 0.194,3.129 0.13,1.344 0.193,2.051 0.193,2.121 -0.037,0.115 0.011,0.272 0.142,0.469 0.132,0.196 0.287,0.411 0.469,0.644 0,0.161 -0.205,0.254 -0.611,0.277 -0.184,0 -0.544,-0.012 -1.08,-0.034 -0.535,-0.024 -0.95,-0.036 -1.245,-0.036 -0.553,0 -0.996,0.03 -1.329,0.088 -0.332,0.057 -0.591,0.202 -0.775,0.434 0.922,0.209 2.519,0.354 4.789,0.434 2.271,0.082 3.581,0.139 3.931,0.175 0.351,0.034 0.84,0.052 1.468,0.052 0.591,0 1.199,-0.036 1.827,-0.106 0,-0.743 -0.074,-1.858 -0.221,-3.345 -0.149,-1.488 -0.221,-2.614 -0.221,-3.382 0,-1.091 0.083,-2.021 0.249,-2.787 0.165,-0.767 0.507,-1.582 1.024,-2.44 0.258,-0.209 0.553,-0.436 0.886,-0.681 0.333,-0.242 0.719,-0.342 1.162,-0.295 1.697,0 2.898,0.476 3.599,1.429 l 0.885,1.116 V -7.5 c 0,0.72 -0.008,1.522 -0.026,2.405 -0.019,0.883 -0.176,1.963 -0.472,3.241 -0.184,0.325 -0.442,0.546 -0.773,0.663 -0.333,0.116 -0.721,0.174 -1.164,0.174 -0.7,-0.023 -1.256,-0.034 -1.661,-0.034 -0.481,0 -0.924,0.046 -1.329,0.138 0.701,0.324 2.011,0.517 3.931,0.575 1.92,0.056 2.936,0.098 3.046,0.12 0.776,0 1.808,0.036 3.101,0.109 C -1.033,-0.037 -0.26,0 0,0" />
    </g>
    <g
       transform="matrix(1.0567234,0,0,-1.0567234,214.04136,62.223774)"
       id="g1354"
       style="opacity:1;fill:#333333;stroke-width:0.94632137;stroke-miterlimit:4;stroke-dasharray:none;fill-opacity:1">
      <path
         inkscape:connector-curvature="0"
         id="path1356"
         style="fill:#333333;fill-opacity:1;fill-rule:nonzero;stroke:none;stroke-width:0.94632137;stroke-miterlimit:4;stroke-dasharray:none"
         d="m 0,0 v -1.79 -2.312 c 0,-0.695 -0.037,-1.338 -0.11,-1.928 -0.075,-0.591 -0.241,-1.177 -0.498,-1.756 -0.333,0 -0.544,0.169 -0.637,0.506 -0.093,0.338 -0.214,0.553 -0.359,0.647 0.183,0.115 0.275,0.255 0.275,0.419 0,0.139 -0.11,0.36 -0.331,0.662 -0.222,0.303 -0.297,0.56 -0.222,0.77 -0.296,0.302 -0.675,1.059 -1.136,2.27 -0.461,1.21 -1.466,1.897 -3.016,2.06 h -1.827 c -0.628,0 -1.109,-0.058 -1.44,-0.173 l 0.774,-0.557 c -0.516,-3.43 -0.932,-6.917 -1.245,-10.463 -0.314,-3.545 -0.47,-6.895 -0.47,-10.046 0.294,-0.209 0.636,-0.342 1.023,-0.4 0.388,-0.058 0.895,-0.087 1.523,-0.087 h 0.831 c 0.405,0 0.802,-0.006 1.19,-0.017 0.388,-0.012 0.767,-0.075 1.135,-0.192 l -0.554,-0.347 c -1.919,0 -4.891,-0.041 -8.914,-0.125 -4.024,-0.085 -6.626,-0.127 -7.806,-0.127 0.7,0.225 1.548,0.388 2.546,0.49 0.997,0.1 1.736,0.207 2.214,0.318 -0.185,0.302 -0.313,0.987 -0.386,2.054 -0.075,1.068 -0.15,1.694 -0.222,1.881 0.147,0.093 0.156,0.243 0.028,0.452 -0.13,0.209 -0.138,0.371 -0.028,0.488 0,2.204 -0.027,4.131 -0.084,5.78 -0.055,1.648 -0.11,3.649 -0.165,6.005 -0.056,2.357 -0.084,3.917 -0.084,4.684 -0.331,0.07 -0.701,0.105 -1.107,0.105 -0.443,0 -0.766,-0.019 -0.969,-0.053 -0.203,-0.034 -0.693,-0.122 -1.468,-0.261 -1.514,-1.135 -2.749,-2.317 -3.709,-3.545 -0.961,-1.229 -1.606,-2.527 -1.938,-3.893 -0.11,0 -0.287,0.057 -0.526,0.173 -0.24,0.117 -0.324,0.255 -0.249,0.417 0,1.808 0.046,3.216 0.139,4.224 0.092,1.007 0.36,2.138 0.806,3.39 0.445,0.16 1.175,0.271 2.196,0.329 1.018,0.058 1.714,0.11 2.085,0.156 2.519,0 6.262,-0.034 11.228,-0.104 C -6.54,0.036 -2.705,0 0,0" />
    </g>
    <g
       transform="matrix(1.0567234,0,0,-1.0567234,108.80861,81.099285)"
       id="g1358"
       style="opacity:1;fill:#333333;stroke-width:0.94632137;stroke-miterlimit:4;stroke-dasharray:none;fill-opacity:1">
      <path
         inkscape:connector-curvature="0"
         id="path1360"
         style="fill:#333333;fill-opacity:1;fill-rule:nonzero;stroke:none;stroke-width:0.94632137;stroke-miterlimit:4;stroke-dasharray:none"
         d="m 0,0 c -0.137,-0.892 -0.436,-1.72 -0.899,-2.485 -0.774,-0.464 -1.702,-0.696 -2.784,-0.696 -0.347,0 -0.687,0.041 -1.015,0.121 -0.328,0.082 -0.861,0.215 -1.595,0.401 -0.58,0.185 -0.986,0.417 -1.217,0.694 -0.115,0.349 -0.223,0.72 -0.319,1.112 -0.097,0.395 -0.145,0.754 -0.145,1.08 0,0.277 0.037,0.532 0.117,0.763 0.076,0.233 0.347,0.562 0.811,0.992 0.464,0.428 1.178,0.799 2.145,1.113 0.966,0.311 2.049,0.468 3.248,0.468 0.503,0 1.024,-0.034 1.567,-0.105 L 0.203,3.111 C 0.203,1.93 0.136,0.892 0,0 M 29.228,-4.084 C 27.77,-4.271 26.33,-4.443 24.911,-4.606 v -0.348 l 13.695,0.139 c 0.116,0.372 -0.288,0.58 -1.208,0.627 -0.921,0.046 -1.478,0.138 -1.669,0.277 0.23,0.928 0.412,1.872 0.546,2.834 0.136,0.96 0.202,1.824 0.202,2.589 0,1.089 -0.144,2.143 -0.431,3.164 -0.288,1.018 -0.72,1.946 -1.294,2.78 -0.807,0.672 -1.727,1.2 -2.762,1.582 -1.038,0.382 -2.188,0.573 -3.454,0.573 -0.268,0 -0.748,-0.028 -1.438,-0.087 C 26.407,9.466 25.524,9.205 24.452,8.743 23.375,8.279 22.225,7.56 20.998,6.588 v 2.607 l -3.51,0.104 C 15.531,9.229 13.574,9.171 11.619,9.125 10.353,9.032 9.355,8.835 8.627,8.534 9.316,8.396 10.084,8.325 10.928,8.325 c 0.884,0 1.783,0.034 2.705,0.105 C 13.594,7.456 13.557,6.483 13.518,5.509 13.479,4.537 13.459,3.551 13.459,2.555 c 0,-1.321 0.087,-2.549 0.253,-3.691 -0.2,-0.196 -0.409,-0.417 -0.636,-0.688 -0.619,-0.743 -1.197,-1.241 -1.739,-1.495 -0.348,-0.209 -0.774,-0.313 -1.277,-0.313 -0.733,0 -1.314,0.173 -1.739,0.521 C 8.127,-2.624 8.002,-2.236 7.944,-1.946 7.887,-1.657 7.857,-1.153 7.857,-0.435 7.896,0.168 7.935,0.783 7.974,1.408 8.011,2.034 8.032,2.647 8.032,3.25 8.032,3.76 8.011,4.2 7.974,4.571 7.935,4.941 7.838,5.324 7.683,5.718 7.296,6.345 6.716,6.877 5.944,7.317 5.169,7.757 4.166,8.221 2.928,8.707 1.691,8.916 0.406,9.084 -0.928,9.211 c -1.335,0.129 -2.62,0.193 -3.855,0.193 -2.051,0 -3.954,-0.185 -5.713,-0.553 -1.76,-0.369 -3.218,-0.969 -4.379,-1.798 0,-0.069 -0.049,-0.231 -0.145,-0.483 -0.097,-0.254 -0.144,-0.439 -0.144,-0.555 0,-0.185 0.095,-0.324 0.289,-0.416 0.503,-0.348 1.072,-0.586 1.711,-0.713 0.638,-0.128 1.342,-0.191 2.116,-0.191 0.542,0 0.928,0.004 1.161,0.016 0.231,0.013 0.753,0.053 1.564,0.123 0.31,0.092 0.929,0.231 1.857,0.417 0.658,0.207 0.907,0.521 0.754,0.938 -0.233,0.323 -0.551,0.542 -0.958,0.657 -0.406,0.114 -0.85,0.213 -1.333,0.294 -0.484,0.08 -1.15,0.132 -1.999,0.155 -0.852,0.023 -1.354,0.058 -1.51,0.104 0.194,0.114 0.476,0.224 0.845,0.327 0.371,0.103 0.613,0.2 0.73,0.292 0.776,0.136 1.456,0.24 2.04,0.309 0.583,0.069 1.242,0.103 1.98,0.103 1.049,0 2,-0.111 2.856,-0.33 0.855,-0.221 1.593,-0.562 2.214,-1.026 0.038,-0.209 0.225,-0.562 0.555,-1.06 0.329,-0.498 0.495,-0.898 0.495,-1.2 0,-0.092 -0.039,-0.277 -0.117,-0.556 -0.893,0.07 -1.804,0.104 -2.735,0.104 -1.785,0 -3.55,-0.144 -5.296,-0.432 -1.747,-0.289 -3.3,-0.698 -4.656,-1.229 -2.172,-1.017 -3.26,-2.345 -3.26,-3.984 0,-0.555 0.136,-1.062 0.406,-1.525 0.192,-0.438 0.571,-0.82 1.132,-1.142 0.559,-0.323 1.226,-0.601 2,-0.83 1.237,-0.278 2.494,-0.416 3.771,-0.416 1.543,0 3.102,0.175 4.667,0.529 1.564,0.352 3.044,0.801 4.435,1.348 0.542,-0.534 1.324,-0.94 2.348,-1.217 1.025,-0.279 2.677,-0.418 4.959,-0.418 1.237,-0.068 2.358,0.099 3.365,0.505 1.004,0.405 1.874,0.944 2.609,1.616 0.018,0.067 0.073,0.174 0.161,0.312 0.165,-0.687 0.361,-1.363 0.619,-2.015 -0.192,-0.139 -0.653,-0.209 -1.382,-0.209 -0.767,0 -1.457,-0.04 -2.071,-0.122 -0.613,-0.081 -0.998,-0.259 -1.15,-0.538 1.496,0 3.702,0.034 6.616,0.103 2.915,0.071 5.159,0.106 6.733,0.106 l 0.692,0.347 c -0.423,0.139 -0.903,0.227 -1.439,0.26 -0.539,0.035 -1.249,0.075 -2.13,0.121 0.231,0.65 0.374,1.159 0.431,1.531 0.06,0.37 0.087,0.997 0.087,1.876 v 2.087 c 0,1.553 0.228,2.868 0.686,3.945 0.456,1.078 1.131,1.848 2.028,2.312 0.895,0.464 1.476,0.695 1.742,0.695 0.306,0 0.62,-0.07 0.944,-0.209 0.324,-0.139 0.62,-0.313 0.885,-0.52 0.686,-0.928 1.181,-1.955 1.487,-3.078 0.304,-1.124 0.458,-2.821 0.458,-5.092 v -1.635 z" />
    </g>
    <g
       transform="matrix(1.0567234,0,0,-1.0567234,174.59589,73.110461)"
       id="g1362"
       style="opacity:1;fill:#333333;stroke-width:0.94632137;stroke-miterlimit:4;stroke-dasharray:none;fill-opacity:1">
      <path
         inkscape:connector-curvature="0"
         id="path1364"
         style="fill:#333333;fill-opacity:1;fill-rule:nonzero;stroke:none;stroke-width:0.94632137;stroke-miterlimit:4;stroke-dasharray:none"
         d="m 0,0 c 0.152,-0.486 0.028,-0.92 -0.376,-1.303 -0.402,-0.382 -0.987,-0.701 -1.754,-0.956 -0.806,-0.185 -1.592,-0.278 -2.359,-0.278 -0.728,0 -1.449,0.07 -2.157,0.209 -0.71,0.139 -1.354,0.324 -1.928,0.556 -0.539,0.277 -0.748,0.671 -0.633,1.182 0.496,0.578 1.055,0.925 1.668,1.042 0.614,0.116 1.073,0.174 1.381,0.174 h 2.071 c -0.459,0.196 -0.998,0.337 -1.61,0.426 -0.616,0.086 -1.265,0.131 -1.957,0.131 -0.653,0 -1.612,-0.048 -2.877,-0.139 -1.267,-0.094 -2.168,-0.14 -2.704,-0.14 -0.116,-0.046 -0.529,-0.209 -1.239,-0.487 -0.71,-0.277 -1.16,-0.543 -1.351,-0.799 -0.154,-0.465 -0.02,-0.907 0.403,-1.324 0.422,-0.419 0.929,-0.692 1.525,-0.819 0.594,-0.128 3.086,-0.483 7.481,-1.063 4.393,-0.582 6.588,-1.884 6.588,-3.905 -0.423,-1.465 -1.564,-2.621 -3.424,-3.468 -1.861,-0.848 -4.134,-1.447 -6.818,-1.795 h -1.843 -1.899 c -0.882,0 -1.621,0.026 -2.214,0.08 -0.595,0.052 -1.18,0.166 -1.754,0.337 -0.961,0 -1.901,0.132 -2.823,0.399 -0.918,0.266 -1.647,0.655 -2.184,1.164 -0.115,0.279 -0.173,0.568 -0.173,0.869 0,0.766 0.498,1.264 1.497,1.494 0.996,0.186 1.955,0.28 2.876,0.28 0.844,0 1.61,-0.076 2.303,-0.227 0.688,-0.15 1.342,-0.388 1.955,-0.713 0.229,-0.324 0.347,-0.613 0.347,-0.868 0,-0.278 -0.118,-0.556 -0.347,-0.835 -0.308,-0.047 -0.806,-0.167 -1.496,-0.364 -0.691,-0.196 -1.266,-0.295 -1.727,-0.295 0.383,-0.221 0.94,-0.387 1.67,-0.495 0.727,-0.112 1.476,-0.166 2.243,-0.166 0.691,0 1.448,0.039 2.274,0.119 0.824,0.081 1.582,0.189 2.273,0.327 0.767,0.228 1.399,0.536 1.899,0.926 0.499,0.39 0.69,0.811 0.574,1.269 0.116,0.464 -0.135,0.812 -0.746,1.042 -0.614,0.233 -1.209,0.447 -1.785,0.644 -0.575,0.197 -2.868,0.562 -6.876,1.096 -4.009,0.533 -6.014,1.83 -6.014,3.893 0.153,1.065 0.806,1.86 1.957,2.381 1.149,0.522 2.936,1.118 5.352,1.791 2.032,0.394 4.161,0.59 6.387,0.59 1.419,0 2.751,-0.086 3.999,-0.261 1.245,-0.174 2.407,-0.446 3.482,-0.817 z" />
    </g>
    <g
       transform="matrix(1.0567234,0,0,-1.0567234,91.11367,76.063895)"
       id="g1366"
       style="opacity:1;fill:#333333;stroke-width:0.94632137;stroke-miterlimit:4;stroke-dasharray:none;fill-opacity:1">
      <path
         inkscape:connector-curvature="0"
         id="path1368"
         style="fill:#333333;fill-opacity:1;fill-rule:nonzero;stroke:none;stroke-width:0.94632137;stroke-miterlimit:4;stroke-dasharray:none"
         d="m 0,0 c -0.998,1.369 -2.843,2.379 -5.538,3.031 -2.4,0.44 -4.798,0.893 -7.198,1.357 -2.694,0.628 -4.54,1.614 -5.537,2.961 0,0.898 0.434,1.743 1.301,2.537 0.868,0.793 1.985,1.385 3.35,1.778 0.813,0.159 1.587,0.282 2.327,0.362 0.736,0.079 1.475,0.121 2.214,0.121 1.07,0 2.103,-0.109 3.1,-0.324 0.998,-0.216 1.846,-0.54 2.547,-0.971 0.074,-0.092 0.111,-0.206 0.111,-0.341 0,-0.139 -0.093,-0.219 -0.276,-0.242 -0.26,0.046 -0.509,0.093 -0.748,0.139 -0.241,0.045 -0.471,0.046 -0.693,0 C -6.146,10.339 -7.06,10.112 -7.78,9.73 -8.5,9.349 -8.952,8.855 -9.137,8.252 -9.21,7.859 -9.128,7.5 -8.888,7.176 -8.648,6.851 -8.269,6.561 -7.753,6.306 -7.42,6.237 -6.931,6.138 -6.285,6.011 -5.64,5.884 -5.04,5.82 -4.485,5.82 c 0.295,0 0.644,0.034 1.051,0.104 0.406,0.138 1.052,0.346 1.938,0.622 0.701,0.278 1.126,0.646 1.273,1.107 0.296,0.416 0.444,0.819 0.444,1.211 0,0.761 -0.369,1.489 -1.107,2.179 -1.071,0.739 -2.29,1.275 -3.655,1.609 -1.366,0.335 -2.861,0.503 -4.484,0.503 -1.367,0 -2.713,-0.104 -4.042,-0.313 -2.768,-0.325 -5.243,-1.131 -7.421,-2.416 -2.177,-1.286 -3.414,-2.376 -3.709,-3.268 -0.295,-0.892 -0.443,-1.454 -0.443,-1.686 0,-0.857 0.322,-1.633 0.97,-2.329 0.644,-0.695 1.521,-1.356 2.629,-1.981 1.034,-0.371 3.469,-0.956 7.309,-1.756 3.838,-0.799 6.552,-1.709 8.139,-2.729 0.258,-0.347 0.387,-0.729 0.387,-1.147 0,-0.603 -0.202,-1.175 -0.608,-1.72 -0.407,-0.546 -0.997,-1.06 -1.772,-1.547 -2.142,-0.903 -4.65,-1.355 -7.531,-1.355 -2.51,0 -4.633,0.363 -6.367,1.093 -0.11,0.116 -0.352,0.329 -0.721,0.633 -0.22,0.26 -0.22,0.483 0,0.672 0.85,-0.162 1.57,-0.279 2.161,-0.348 0.59,-0.07 1.218,-0.104 1.882,-0.104 0.738,0 1.384,0.063 1.938,0.187 0.554,0.125 1.052,0.325 1.495,0.597 0,0.092 0.036,0.239 0.11,0.444 v 0.444 c 0,0.453 -0.101,0.835 -0.304,1.142 -0.202,0.308 -0.563,0.54 -1.079,0.7 -0.111,0.113 -0.259,0.17 -0.444,0.17 h -0.608 c -0.037,0.117 -0.075,0.231 -0.111,0.348 -0.332,0.024 -0.766,0.058 -1.302,0.104 -0.535,0.046 -1.172,0.07 -1.91,0.07 -0.959,0 -1.79,-0.088 -2.491,-0.262 -0.703,-0.175 -1.256,-0.512 -1.662,-1.013 -0.406,-0.501 -0.608,-0.985 -0.608,-1.45 0,-0.559 0.258,-1.048 0.775,-1.467 0.554,-0.744 1.347,-1.316 2.381,-1.712 1.032,-0.396 2.14,-0.67 3.321,-0.821 1.182,-0.151 1.975,-0.239 2.383,-0.263 0.405,-0.022 1.014,-0.033 1.826,-0.033 0.299,0 0.585,0.023 0.879,0.032 v -1.421 c -1.841,-0.791 -3.017,-2.022 -2.737,-3.027 0.337,-1.209 2.642,-1.623 5.147,-0.924 2.505,0.697 4.263,2.244 3.926,3.454 -0.254,0.911 -1.627,1.369 -3.36,1.241 v 0.934 c 1.312,0.203 2.568,0.509 3.758,0.929 2.306,0.813 4.254,1.928 5.841,3.344 0.407,0.511 0.738,1.104 0.998,1.776 0.258,0.674 0.388,1.301 0.388,1.881 0,0.65 -0.13,1.23 -0.388,1.742" />
    </g>
  </g>
  <rect
     style="opacity:1;fill:none;fill-opacity:0.09803922;stroke:#ffffff;stroke-width:0;stroke-miterlimit:4;stroke-dasharray:none;stroke-opacity:1"
     id="rect1043"
     width="380"
     height="459"
     x="5e-07"
     y="5e-07" />
  <g
     transform="translate(-7.1030805,-25.788232)"
     aria-label="SÜPER"
     style="font-style:normal;font-weight:normal;font-size:40px;line-height:1.25;font-family:sans-serif;letter-spacing:0px;word-spacing:0px;fill:#000000;fill-opacity:1;stroke:none"
     id="text1272">
    <path
       inkscape:connector-curvature="0"
       d="m 77.975576,67.319265 q -1.666667,-0.638021 -2.265625,-1.015625 -0.690105,-0.455729 -0.690105,-1.171875 0,-0.611979 0.520834,-1.041667 0.625,-0.46875 1.744791,-0.455729 0.872396,0 1.966146,0.3125 0.625,0.169271 1.145833,-0.143229 0.546875,-0.325521 0.729167,-0.924479 l 0.02604,-0.02604 q 0.143229,-0.611979 -0.182292,-1.210937 -0.338542,-0.572917 -0.950521,-0.716146 -1.692708,-0.416667 -2.695312,-0.416667 -2.773438,-0.02604 -4.492187,1.354167 -1.70573,1.328125 -1.70573,3.554687 0,3.28125 4.518229,4.895834 1.471355,0.520833 2.070313,1.002604 0.585937,0.46875 0.585937,1.158854 0,0.794271 -0.664062,1.210937 -0.664063,0.481771 -1.809896,0.481771 -0.950521,0 -2.513021,-0.494792 -0.664062,-0.221354 -1.26302,0.117188 -0.585938,0.325521 -0.755209,0.989583 l -0.02604,0.05208 q -0.14323,0.611979 0.195312,1.184895 0.325521,0.572917 0.924479,0.716146 1.927083,0.572917 3.203125,0.572917 3.372396,0 5.130208,-1.614583 1.471354,-1.380209 1.471354,-3.476563 0,-1.705729 -1.041666,-2.890625 -1.002604,-1.197916 -3.177083,-2.005208 z"
       style="font-style:normal;font-variant:normal;font-weight:bold;font-stretch:normal;font-size:26.66666603px;font-family:Dyuthi;-inkscape-font-specification:'Dyuthi Bold'"
       id="path1274" />
    <path
       inkscape:connector-curvature="0"
       d="m 89.642242,56.746349 q 0.598958,0 1.015625,0.390625 0.416667,0.390625 0.416667,0.963541 0,0.572917 -0.416667,0.976563 -0.416667,0.403645 -1.015625,0.403645 -0.598958,0 -1.015625,-0.403645 -0.403646,-0.403646 -0.403646,-0.976563 0,-0.572916 0.403646,-0.963541 0.416667,-0.390625 1.015625,-0.390625 z m 3.372396,0 q 0.598958,0 1.015625,0.390625 0.416666,0.390625 0.416666,0.963541 0,0.572917 -0.416666,0.976563 -0.416667,0.403645 -1.015625,0.403645 -0.585938,0 -1.002604,-0.403645 -0.416667,-0.403646 -0.416667,-0.976563 0,-0.572916 0.416667,-0.963541 0.416666,-0.390625 1.002604,-0.390625 z m 1.380208,13.710937 q 0.02604,1.236979 -0.924479,2.1875 -0.898438,0.898437 -2.1875,0.924479 h -0.09115 q -1.341146,0 -2.239583,-0.924479 -1.002604,-0.976563 -0.950521,-2.252604 l 0.234375,-7.942709 Q 88.262034,61.694265 87.689117,61.095307 87.142242,60.52239 86.33495,60.52239 h -0.03906 q -1.054688,0 -1.627604,0.572917 -0.559896,0.572916 -0.533854,1.354166 v 7.395834 q -0.02604,2.942708 2.057291,5.039062 2.096354,2.083333 5.039063,2.083333 h 0.143229 q 2.851562,0 4.895833,-2.044271 2.005208,-2.04427 2.005208,-4.895833 v -7.578125 q 0,-0.807291 -0.546875,-1.354166 -0.546875,-0.572917 -1.601562,-0.572917 h -0.03906 q -0.807291,0 -1.380208,0.572917 -0.572917,0.572916 -0.546875,1.354166 z"
       style="font-style:normal;font-variant:normal;font-weight:bold;font-stretch:normal;font-size:26.66666603px;font-family:Dyuthi;-inkscape-font-specification:'Dyuthi Bold'"
       id="path1276" />
    <path
       inkscape:connector-curvature="0"
       d="m 104.19953,62.189057 h 1.875 q 0.97657,0 1.64063,0.742187 0.80729,0.846354 0.80729,2.825521 0,2.083333 -0.80729,2.942708 -0.66406,0.716146 -1.64063,0.716146 h -1.875 z m 3.00782,9.036458 q 2.52604,-0.02604 3.85416,-2.096354 1.00261,-1.5625 1.00261,-3.138021 0,-1.953125 -1.28907,-3.4375 -1.26302,-1.484375 -3.16406,-1.770833 l -0.11719,-0.01302 q -0.3776,-0.05208 -0.70312,-0.05208 h -4.49219 q -0.80729,0 -1.38021,0.572916 -0.57291,0.572917 -0.57291,1.328125 v 12.473958 q 0,0.833334 0.57291,1.354167 0.52084,0.572917 1.32813,0.546875 h 0.0521 q 0.75521,0.02604 1.32813,-0.546875 0.57291,-0.546875 0.57291,-1.354167 v -3.828125 z"
       style="font-style:normal;font-variant:normal;font-weight:bold;font-stretch:normal;font-size:26.66666603px;font-family:Dyuthi;-inkscape-font-specification:'Dyuthi Bold'"
       id="path1278" />
    <path
       inkscape:connector-curvature="0"
       d="m 116.92089,74.077077 v -4.114583 l 4.72656,0.117188 q 0.58594,0.01302 1.04167,-0.429688 0.42968,-0.416667 0.42968,-1.041667 v -0.05208 q 0.013,-0.611979 -0.41666,-1.015625 -0.46875,-0.442708 -1.05469,-0.429687 l -4.72656,0.117187 v -3.697916 l 5.01302,0.234375 q 0.50781,0.02604 0.95052,-0.325521 0.14323,-0.117188 0.50781,-0.833334 l 0.013,-0.05208 q 0.35157,-0.716146 -0.28646,-1.497396 -0.41666,-0.520833 -1.15885,-0.520833 h -6.6276 q -0.98959,0 -1.64063,0.664062 -0.6901,0.716146 -0.6901,1.666667 v 11.770833 q 0,0.950521 0.6901,1.640625 0.69011,0.690104 1.64063,0.690104 h 6.97916 q 0.625,0.01302 1.05469,-0.429687 0.42969,-0.416667 0.42969,-1.041667 v -0.05208 q 0,-0.651042 -0.42969,-1.041667 -0.48177,-0.429687 -1.05469,-0.429687 z"
       style="font-style:normal;font-variant:normal;font-weight:bold;font-stretch:normal;font-size:26.66666603px;font-family:Dyuthi;-inkscape-font-specification:'Dyuthi Bold'"
       id="path1280" />
    <path
       inkscape:connector-curvature="0"
       d="m 129.56412,62.384369 h 1.875 q 0.92448,0 1.64062,0.755209 0.70313,0.716145 0.70313,2.682291 0,1.979167 -0.70313,2.695313 -0.66406,0.703125 -1.64062,0.729166 h -1.875 z m 5.9375,7.747396 q 0.55989,-0.481771 0.92448,-1.054688 1.0026,-1.5625 1.0026,-3.13802 0,-1.940104 -1.28906,-3.4375 -1.26302,-1.484375 -3.16407,-1.757813 l -0.11718,-0.02604 q -0.20834,-0.05208 -0.70313,-0.05208 h -4.49219 q -0.80729,0 -1.3802,0.572917 -0.57292,0.572917 -0.57292,1.354167 v 12.643228 q 0,0.755209 0.57292,1.328125 0.54687,0.546875 1.32812,0.546875 h 0.0521 q 0.74219,0 1.32813,-0.546875 0.57292,-0.520833 0.57292,-1.328125 V 71.22552 l 2.86458,-0.05208 1.22396,3.632812 q 0.61198,1.835937 2.13541,2.226562 0.72917,0.208334 1.39323,-0.182291 h 0.026 q 0.57291,-0.01302 0.85937,-1.145834 0.22135,-0.885416 -0.19531,-1.588541 z"
       style="font-style:normal;font-variant:normal;font-weight:bold;font-stretch:normal;font-size:26.66666603px;font-family:Dyuthi;-inkscape-font-specification:'Dyuthi Bold'"
       id="path1282" />
  </g>
</svg>
