<?xml version="1.0" encoding="UTF-8" standalone="no"?>
<svg
   xmlns:osb="http://www.openswatchbook.org/uri/2009/osb"
   xmlns:dc="http://purl.org/dc/elements/1.1/"
   xmlns:cc="http://creativecommons.org/ns#"
   xmlns:rdf="http://www.w3.org/1999/02/22-rdf-syntax-ns#"
   xmlns:svg="http://www.w3.org/2000/svg"
   xmlns="http://www.w3.org/2000/svg"
   xmlns:xlink="http://www.w3.org/1999/xlink"
   xmlns:sodipodi="http://sodipodi.sourceforge.net/DTD/sodipodi-0.dtd"
   xmlns:inkscape="http://www.inkscape.org/namespaces/inkscape"
   id="svg8"
   version="1.1"
   viewBox="0 0 108 108"
   height="108mm"
   width="108mm"
   sodipodi:docname="launcher_icon2.svg"
   inkscape:version="0.92.2 5c3e80d, 2017-08-06">
  <sodipodi:namedview
     pagecolor="#ffffff"
     bordercolor="#666666"
     borderopacity="1"
     objecttolerance="10"
     gridtolerance="10"
     guidetolerance="10"
     inkscape:pageopacity="0"
     inkscape:pageshadow="2"
     inkscape:window-width="1680"
     inkscape:window-height="1008"
     id="namedview71"
     showgrid="false"
     inkscape:zoom="1.1563272"
     inkscape:cx="165.69808"
     inkscape:cy="161.54435"
     inkscape:window-x="0"
     inkscape:window-y="0"
     inkscape:window-maximized="0"
     inkscape:current-layer="svg8" />
  <defs
     id="defs2">
    <linearGradient
       osb:paint="gradient"
       id="linearGradient6240">
      <stop
         id="stop6242"
         offset="0"
         style="stop-color:#cccccc;stop-opacity:1;" />
      <stop
         id="stop6244"
         offset="1"
         style="stop-color:#ffffff;stop-opacity:1" />
    </linearGradient>
    <linearGradient
       id="linearGradient2803">
      <stop
         style="stop-color:#cccccc;stop-opacity:1"
         offset="0"
         id="stop2799" />
      <stop
         style="stop-color:#ffffff;stop-opacity:1"
         offset="1"
         id="stop2801" />
    </linearGradient>
    <clipPath
       id="clipPath918"
       clipPathUnits="userSpaceOnUse">
      <circle
         r="25.950001"
         cy="243"
         cx="142.5"
         id="circle920"
         style="opacity:1;fill:none;fill-opacity:1;fill-rule:nonzero;stroke:#000000;stroke-width:0.09999999;stroke-miterlimit:4;stroke-dasharray:none;stroke-dashoffset:0" />
    </clipPath>
    <clipPath
       id="clipPath946"
       clipPathUnits="userSpaceOnUse">
      <circle
         r="25.950001"
         cy="243"
         cx="142.5"
         id="circle948"
         style="opacity:1;fill:none;fill-opacity:1;fill-rule:nonzero;stroke:#000000;stroke-width:0.09999999;stroke-miterlimit:4;stroke-dasharray:none;stroke-dashoffset:0" />
    </clipPath>
    <clipPath
       id="clipPath960"
       clipPathUnits="userSpaceOnUse">
      <circle
         r="25.950001"
         cy="243"
         cx="142.5"
         id="circle962"
         style="opacity:1;fill:none;fill-opacity:1;fill-rule:nonzero;stroke:#000000;stroke-width:0.09999999;stroke-miterlimit:4;stroke-dasharray:none;stroke-dashoffset:0" />
    </clipPath>
    <clipPath
       id="clipPath1024"
       clipPathUnits="userSpaceOnUse">
      <path
         transform="rotate(-90,142.5,243)"
         style="fill:none;stroke:#000000;stroke-width:0.09999999;stroke-linecap:butt;stroke-linejoin:miter;stroke-miterlimit:4;stroke-dasharray:none;stroke-opacity:1"
         d="m 173.04545,212.45454 -61.09091,61.09091"
         id="path1026"
         clip-path="url(#clipPath946)" />
    </clipPath>
    <clipPath
       id="clipPath1114"
       clipPathUnits="userSpaceOnUse">
      <path
         clip-path="url(#clipPath918)"
         id="path1116"
         d="m 142.5,205.5 v 74.86363"
         style="fill:none;stroke:#000000;stroke-width:0.09999999;stroke-linecap:butt;stroke-linejoin:miter;stroke-miterlimit:4;stroke-dasharray:none;stroke-opacity:1"
         transform="rotate(22.5,173.80602,384.3127)" />
    </clipPath>
    <clipPath
       id="clipPath1165"
       clipPathUnits="userSpaceOnUse">
      <path
         style="fill:none;stroke:#000000;stroke-width:0.09999999;stroke-linecap:butt;stroke-linejoin:miter;stroke-miterlimit:4;stroke-dasharray:none;stroke-opacity:1"
         d="m 189.03738,265.73437 19.89954,-48.04174"
         id="path1167" />
    </clipPath>
    <clipPath
       id="clipPath1171"
       clipPathUnits="userSpaceOnUse">
      <rect
         y="210.27272"
         x="198.98714"
         height="31.440777"
         width="16.603758"
         id="rect1173"
         style="opacity:1;fill:none;fill-opacity:1;fill-rule:nonzero;stroke:#000000;stroke-width:0.09999999;stroke-miterlimit:4;stroke-dasharray:none;stroke-dashoffset:0" />
    </clipPath>
    <clipPath
       id="clipPath1179"
       clipPathUnits="userSpaceOnUse">
      <rect
         y="215.81128"
         x="198.98714"
         height="8.5962687"
         width="16.905407"
         id="rect1181"
         style="opacity:1;fill:none;fill-opacity:1;fill-rule:nonzero;stroke:#000000;stroke-width:0.09999999;stroke-miterlimit:4;stroke-dasharray:none;stroke-dashoffset:0" />
    </clipPath>
    <linearGradient
       gradientTransform="translate(-338.9732,-184.91889)"
       gradientUnits="userSpaceOnUse"
       y2="226.70126"
       x2="501.89661"
       y1="226.70126"
       x1="488.87872"
       id="linearGradient3070"
       xlink:href="#linearGradient2803" />
    <linearGradient
       gradientTransform="rotate(90,411.90155,-23.027135)"
       y2="226.70126"
       x2="501.89661"
       y1="226.70126"
       x1="488.87872"
       gradientUnits="userSpaceOnUse"
       id="linearGradient3084"
       xlink:href="#linearGradient2803" />
    <linearGradient
       gradientTransform="rotate(180,319.44211,146.45945)"
       y2="226.70126"
       x2="501.89661"
       y1="226.70126"
       x1="488.87872"
       gradientUnits="userSpaceOnUse"
       id="linearGradient3088"
       xlink:href="#linearGradient2803" />
    <linearGradient
       gradientTransform="rotate(-90,226.98266,315.94604)"
       y2="226.70126"
       x2="501.89661"
       y1="226.70126"
       x1="488.87872"
       gradientUnits="userSpaceOnUse"
       id="linearGradient3092"
       xlink:href="#linearGradient2803" />
    <filter
       height="1.0980412"
       y="-0.049020579"
       width="1.1546343"
       x="-0.077317171"
       id="filter3668"
       style="color-interpolation-filters:sRGB">
      <feGaussianBlur
         id="feGaussianBlur3670"
         stdDeviation="0.50003237" />
    </filter>
    <clipPath
       clipPathUnits="userSpaceOnUse"
       id="clipPath958">
      <path
         style="fill:none;stroke:#000000;stroke-width:0.26458332px;stroke-linecap:butt;stroke-linejoin:miter;stroke-opacity:1"
         d="m 53.999999,53.999999 6.864409,-16.188558 -6.292372,-9.781778 22.252118,-0.34322 -5.148305,26.885593 z"
         id="path960"
         inkscape:connector-curvature="0" />
    </clipPath>
    <clipPath
       clipPathUnits="userSpaceOnUse"
       id="clipPath982">
      <path
         style="fill:none;stroke:#000000;stroke-width:0.26458332px;stroke-linecap:butt;stroke-linejoin:miter;stroke-opacity:1"
         d="m 204.09448,204.09448 112.97398,-13.90918 7.64388,38.5252 z"
         id="path984"
         inkscape:connector-curvature="0" />
    </clipPath>
    <filter
       height="1.0980412"
       y="-0.049020577"
       width="1.1546344"
       x="-0.077317171"
       id="filter3668-3"
       style="color-interpolation-filters:sRGB">
      <feGaussianBlur
         id="feGaussianBlur3670-9"
         stdDeviation="0.50003237" />
    </filter>
    <clipPath
       clipPathUnits="userSpaceOnUse"
       id="clipPath1017">
      <path
         style="fill:none;stroke:#000000;stroke-width:0.26458332px;stroke-linecap:butt;stroke-linejoin:miter;stroke-opacity:1"
         d="M 53.999999,53.999999 60.835155,26.212315 78.309083,29.77182 88.664002,55.659119 36.080423,76.854346 Z"
         id="path1019"
         inkscape:connector-curvature="0" />
    </clipPath>
  </defs>
  <metadata
     id="metadata5">
    <rdf:RDF>
      <cc:Work
         rdf:about="">
        <dc:format>image/svg+xml</dc:format>
        <dc:type
           rdf:resource="http://purl.org/dc/dcmitype/StillImage" />
        <dc:title />
      </cc:Work>
    </rdf:RDF>
  </metadata>
  <path
     inkscape:connector-curvature="0"
     id="path4513"
     style="fill:#ffffff;stroke:none;stroke-width:0.1;stroke-linecap:butt;stroke-linejoin:miter;stroke-miterlimit:4;stroke-dasharray:none;stroke-opacity:1"
     d="m 39.63568,36.66077 c 0,-4.50361 3.79647,-7.18215 7.18217,-7.18215 3.3857,0 7.18214,2.69439 7.18214,7.18215 m -10e-6,0 L 53.99999,54 c 0,0 -6.3497,-3.99044 -9.84925,-7.48998 -3.49956,-3.49955 -4.51506,-7.25565 -4.51506,-9.84925" />
  <path
     inkscape:connector-curvature="0"
     transform="rotate(-90,178.99067,363.93804)"
     id="path4515"
     style="opacity:0.57900002;fill:#808080;fill-opacity:1;stroke:none;stroke-width:0.1;stroke-linecap:butt;stroke-linejoin:miter;stroke-miterlimit:4;stroke-dasharray:none;stroke-opacity:1;filter:url(#filter3668)"
     d="m 504.4502,221.63662 c 0,-4.49621 -4.10231,-7.17035 -7.76076,-7.17035 -3.65845,0 -7.76073,2.68996 -7.76073,7.17035 m 10e-6,0 c 0,0 -10e-6,17.31075 -10e-6,17.31075 0,0 6.86124,-3.98388 10.6427,-7.47768 3.78149,-3.4938 4.87879,-7.24373 4.87879,-9.83307" />
  <g
     id="g4569"
     transform="translate(-113.45333,-181.09778)">
    <rect
       y="207.05"
       x="18.049999"
       height="71.900002"
       width="71.900002"
       id="rect815"
       style="opacity:1;fill:none;fill-opacity:1;fill-rule:nonzero;stroke:#000000;stroke-width:0.09999999;stroke-miterlimit:4;stroke-dasharray:none;stroke-dashoffset:0" />
    <circle
       r="32.950001"
       cy="243"
       cx="54"
       id="path817"
       style="opacity:1;fill:none;fill-opacity:1;fill-rule:nonzero;stroke:#000000;stroke-width:0.09999999;stroke-miterlimit:4;stroke-dasharray:none;stroke-dashoffset:0" />
    <circle
       style="opacity:1;fill:none;fill-opacity:1;fill-rule:nonzero;stroke:#000000;stroke-width:0.09999999;stroke-miterlimit:4;stroke-dasharray:none;stroke-dashoffset:0"
       id="circle819"
       cx="54"
       cy="243"
       r="25.950001" />
    <circle
       r="17.950001"
       cy="243"
       cx="54"
       id="circle821"
       style="opacity:1;fill:none;fill-opacity:1;fill-rule:nonzero;stroke:#000000;stroke-width:0.09999999;stroke-miterlimit:4;stroke-dasharray:none;stroke-dashoffset:0" />
    <rect
       ry="4"
       style="opacity:1;fill:none;fill-opacity:1;fill-rule:nonzero;stroke:#000000;stroke-width:0.09999999;stroke-miterlimit:4;stroke-dasharray:none;stroke-dashoffset:0"
       id="rect823"
       width="44"
       height="44"
       x="32.049999"
       y="221.05" />
    <rect
       y="217"
       x="36"
       height="52"
       width="36"
       id="rect825"
       style="opacity:1;fill:none;fill-opacity:1;fill-rule:nonzero;stroke:#000000;stroke-width:0.09999999;stroke-miterlimit:4;stroke-dasharray:none;stroke-dashoffset:0"
       ry="4" />
    <rect
       ry="4"
       style="opacity:1;fill:none;fill-opacity:1;fill-rule:nonzero;stroke:#000000;stroke-width:0.09999999;stroke-miterlimit:4;stroke-dasharray:none;stroke-dashoffset:0"
       id="rect827"
       width="52"
       height="36"
       x="28"
       y="225" />
  </g>
  <g
     style="stroke-width:0.1;stroke-miterlimit:4;stroke-dasharray:none"
     transform="translate(388.48683,50.91443)"
     id="g1506" />
  <circle
     style="opacity:1;fill:#008000;fill-opacity:1;fill-rule:nonzero;stroke:none;stroke-width:0.09999999;stroke-miterlimit:4;stroke-dasharray:none;stroke-dashoffset:0"
     id="path817-0"
     cx="149.95551"
     cy="54"
     r="32.950001" />
  <path
     inkscape:connector-curvature="0"
     id="path3072"
     style="fill:#ffffff;stroke:none;stroke-width:0.1;stroke-linecap:butt;stroke-linejoin:miter;stroke-miterlimit:4;stroke-dasharray:none;stroke-opacity:1"
     d="m 132.61628,68.36431 c -4.50361,0 -7.18215,-3.79647 -7.18215,-7.18217 0,-3.38569 2.69439,-7.18214 7.18215,-7.18214 m 0,1e-5 17.33923,-1e-5 c 0,0 -3.99044,6.34972 -7.48998,9.84925 -3.49955,3.49956 -7.25565,4.51506 -9.84925,4.51506" />
  <path
     inkscape:connector-curvature="0"
     id="path3866"
     style="opacity:0.57900002;fill:#808080;fill-opacity:1;stroke:none;stroke-width:0.1;stroke-linecap:butt;stroke-linejoin:miter;stroke-miterlimit:4;stroke-dasharray:none;stroke-opacity:1;filter:url(#filter3668)"
     d="m 504.4502,221.63662 c 0,-4.49621 -4.10231,-7.17035 -7.76076,-7.17035 -3.65845,0 -7.76073,2.68996 -7.76073,7.17035 m 10e-6,0 c 0,0 -10e-6,17.31075 -10e-6,17.31075 0,0 6.86124,-3.98388 10.6427,-7.47768 3.78149,-3.4938 4.87879,-7.24373 4.87879,-9.83307"
     transform="rotate(180,319.44211,146.47368)" />
  <path
     inkscape:connector-curvature="0"
     d="m 164.31982,71.33923 c 0,4.50361 -3.79647,7.18215 -7.18217,7.18215 -3.3857,0 -7.18214,-2.69439 -7.18214,-7.18215 m 1e-5,0 L 149.95551,54 c 0,0 6.34971,3.99044 9.84925,7.48998 3.49956,3.49955 4.51506,7.25565 4.51506,9.84925"
     style="fill:#ffffff;stroke:none;stroke-width:0.1;stroke-linecap:butt;stroke-linejoin:miter;stroke-miterlimit:4;stroke-dasharray:none;stroke-opacity:1"
     id="path3076" />
  <path
     inkscape:connector-curvature="0"
     d="m 504.4502,221.63662 c 0,-4.49621 -4.10231,-7.17035 -7.76076,-7.17035 -3.65845,0 -7.76073,2.68996 -7.76073,7.17035 m 10e-6,0 c 0,0 -10e-6,17.31075 -10e-6,17.31075 0,0 6.86124,-3.98388 10.6427,-7.47768 3.78149,-3.4938 4.87879,-7.24373 4.87879,-9.83307"
     style="opacity:0.57900002;fill:#808080;fill-opacity:1;stroke:none;stroke-width:0.1;stroke-linecap:butt;stroke-linejoin:miter;stroke-miterlimit:4;stroke-dasharray:none;stroke-opacity:1;filter:url(#filter3668)"
     id="path3868"
     transform="rotate(90,411.91579,-23.012915)" />
  <path
     inkscape:connector-curvature="0"
     d="m 135.5912,36.66077 c 0,-4.50361 3.79647,-7.18215 7.18217,-7.18215 3.3857,0 7.18214,2.69439 7.18214,7.18215 m -1e-5,0 1e-5,17.33923 c 0,0 -6.34971,-3.99044 -9.84925,-7.48998 -3.49956,-3.49955 -4.51506,-7.25565 -4.51506,-9.84925"
     style="fill:#ffffff;stroke:none;stroke-width:0.1;stroke-linecap:butt;stroke-linejoin:miter;stroke-miterlimit:4;stroke-dasharray:none;stroke-opacity:1"
     id="path2605-2" />
  <path
     inkscape:connector-curvature="0"
     d="m 504.4502,221.63662 c 0,-4.49621 -4.10231,-7.17035 -7.76076,-7.17035 -3.65845,0 -7.76073,2.68996 -7.76073,7.17035 m 10e-6,0 c 0,0 -10e-6,17.31075 -10e-6,17.31075 0,0 6.86124,-3.98388 10.6427,-7.47768 3.78149,-3.4938 4.87879,-7.24373 4.87879,-9.83307"
     style="opacity:0.57900002;fill:#808080;fill-opacity:1;stroke:none;stroke-width:0.1;stroke-linecap:butt;stroke-linejoin:miter;stroke-miterlimit:4;stroke-dasharray:none;stroke-opacity:1;filter:url(#filter3668)"
     id="path3864"
     transform="rotate(-90,226.96842,315.96029)" />
  <path
     inkscape:connector-curvature="0"
     id="path3080"
     style="fill:#ffffff;stroke:none;stroke-width:0.1;stroke-linecap:butt;stroke-linejoin:miter;stroke-miterlimit:4;stroke-dasharray:none;stroke-opacity:1"
     d="m 167.29474,39.63569 c 4.50361,0 7.18215,3.79647 7.18215,7.18217 0,3.3857 -2.69439,7.18214 -7.18215,7.18214 m 0,-1e-5 -17.33923,1e-5 c 0,0 3.99044,-6.34971 7.48998,-9.84925 3.49955,-3.49956 7.25565,-4.51506 9.84925,-4.51506" />
  <path
     inkscape:connector-curvature="0"
     id="path3106"
     style="opacity:0.57900002;fill:#808080;fill-opacity:1;stroke:none;stroke-width:0.1;stroke-linecap:butt;stroke-linejoin:miter;stroke-miterlimit:4;stroke-dasharray:none;stroke-opacity:1;filter:url(#filter3668)"
     d="m 165.477,36.68925 c 0,-4.49621 -4.10231,-7.17035 -7.76076,-7.17035 -3.65845,0 -7.76073,2.68996 -7.76073,7.17035 m 1e-5,0 c 0,0 -1e-5,17.31075 -1e-5,17.31075 0,0 6.86124,-3.98388 10.6427,-7.47768 3.78149,-3.4938 4.87879,-7.24373 4.87879,-9.83307" />
  <path
     inkscape:connector-curvature="0"
     d="m 162.87342,36.68925 c 0,-4.49621 -3.41419,-7.17035 -6.45897,-7.17035 -3.04478,0 -6.45894,2.68996 -6.45894,7.17035 m 1e-5,0 c 0,0 -1e-5,17.31075 -1e-5,17.31075 0,0 5.71033,-3.98388 8.85749,-7.47768 3.14718,-3.4938 4.06042,-7.24373 4.06042,-9.83307"
     style="fill:url(#linearGradient3070);fill-opacity:1;stroke:none;stroke-width:0;stroke-linecap:butt;stroke-linejoin:miter;stroke-miterlimit:4;stroke-dasharray:none;stroke-opacity:1"
     id="path3042" />
  <path
     inkscape:connector-curvature="0"
     id="path3082"
     style="fill:url(#linearGradient3084);fill-opacity:1;stroke:none;stroke-width:0;stroke-linecap:butt;stroke-linejoin:miter;stroke-miterlimit:4;stroke-dasharray:none;stroke-opacity:1"
     d="m 167.26626,66.91791 c 4.49621,0 7.17035,-3.41419 7.17035,-6.45897 0,-3.04478 -2.68996,-6.45894 -7.17035,-6.45894 m 0,1e-5 c 0,0 -17.31075,-1e-5 -17.31075,-1e-5 0,0 3.98388,5.71033 7.47768,8.85749 3.4938,3.14718 7.24373,4.06042 9.83307,4.06042" />
  <path
     inkscape:connector-curvature="0"
     d="m 137.0376,71.31075 c 0,4.49621 3.41419,7.17035 6.45897,7.17035 3.04478,0 6.45894,-2.68996 6.45894,-7.17035 m -1e-5,0 c 0,0 1e-5,-17.31075 1e-5,-17.31075 0,0 -5.71033,3.98388 -8.85749,7.47768 -3.14718,3.4938 -4.06042,7.24373 -4.06042,9.83307"
     style="fill:url(#linearGradient3088);fill-opacity:1;stroke:none;stroke-width:0;stroke-linecap:butt;stroke-linejoin:miter;stroke-miterlimit:4;stroke-dasharray:none;stroke-opacity:1"
     id="path3078" />
  <path
     inkscape:connector-curvature="0"
     id="path3074"
     style="fill:url(#linearGradient3092);fill-opacity:1;stroke:none;stroke-width:0;stroke-linecap:butt;stroke-linejoin:miter;stroke-miterlimit:4;stroke-dasharray:none;stroke-opacity:1"
     d="m 132.64476,41.08209 c -4.49621,0 -7.17035,3.41419 -7.17035,6.45897 0,3.04478 2.68996,6.45894 7.17035,6.45894 m 0,-1e-5 c 0,0 17.31075,1e-5 17.31075,1e-5 0,0 -3.98388,-5.71033 -7.47768,-8.85749 -3.4938,-3.14718 -7.24373,-4.06042 -9.83307,-4.06042" />
  <path
     inkscape:connector-curvature="0"
     style="opacity:1;fill:#388e3c;fill-opacity:1;fill-rule:nonzero;stroke:none;stroke-width:0;stroke-miterlimit:4;stroke-dasharray:none;stroke-dashoffset:0"
     clip-path="none"
     d="m 149.95559,21.05004 a 32.950001,32.950001 0 0 0 -32.94991,32.94993 32.950001,32.950001 0 0 0 32.94991,32.94992 32.950001,32.950001 0 0 0 32.94994,-32.94992 32.950001,32.950001 0 0 0 -32.94994,-32.94993 z m -7.18301,8.42843 h 5e-4 c 3.38558,2.7e-4 7.18354,2.69395 7.18354,7.18147 v 0.0295 c 0,-4.48039 3.41376,-7.17011 6.45854,-7.17011 3.04479,0 6.45903,2.6739 6.45903,7.17011 0,1.1783 -0.19444,2.59727 -0.69712,4.12274 1.90026,-0.86477 3.68615,-1.1777 5.11701,-1.1777 4.50361,0 7.18355,3.79837 7.18355,7.18406 0,3.38569 -2.69579,7.18147 -7.18355,7.18147 h -0.0269 c 4.4804,0 7.1696,3.41425 7.1696,6.45903 0,3.04478 -2.67338,6.45904 -7.1696,6.45904 -1.17827,0 -2.5999,-0.19291 -4.12533,-0.69556 0.86476,1.90023 1.17771,3.68664 1.17771,5.11751 0,4.50361 -3.79579,7.18148 -7.18148,7.18148 -3.38571,0 -7.18148,-2.69371 -7.18148,-7.18148 v -0.0294 c 0,4.48039 -3.41426,7.16959 -6.45903,7.16959 -3.04477,0 -6.45904,-2.67338 -6.45904,-7.16959 0,-1.17831 0.19238,-2.59779 0.69507,-4.12326 -1.90045,0.86495 -3.68602,1.1777 -5.11702,1.1777 -4.50363,0 -7.18148,-3.79784 -7.18148,-7.18354 0,-3.38569 2.69372,-7.18147 7.18148,-7.18147 h 0.0274 c -4.4804,0 -7.1701,-3.41426 -7.1701,-6.45904 0,-3.04478 2.67388,-6.45904 7.1701,-6.45904 1.17819,0 2.59797,0.193 4.12327,0.69557 -0.86476,-1.90024 -1.17615,-3.68665 -1.17615,-5.11752 0,-4.50338 3.7959,-7.1812 7.18148,-7.18147 z"
     id="path3846" />
  <path
     inkscape:connector-curvature="0"
     id="path4669"
     d="m 149.95559,21.05004 a 32.950001,32.950001 0 0 0 -32.94991,32.94993 32.950001,32.950001 0 0 0 32.94991,32.94992 32.950001,32.950001 0 0 0 32.94994,-32.94992 32.950001,32.950001 0 0 0 -32.94994,-32.94993 z m -7.18301,8.42843 h 5e-4 c 3.38558,2.7e-4 7.18354,2.69395 7.18354,7.18147 v 0.0295 c 0,-4.48039 3.41376,-7.17011 6.45854,-7.17011 3.04479,0 6.45903,2.6739 6.45903,7.17011 0,1.1783 -0.19444,2.59727 -0.69712,4.12274 1.90026,-0.86477 3.68615,-1.1777 5.11701,-1.1777 4.50361,0 7.18355,3.79837 7.18355,7.18406 0,3.38569 -2.69579,7.18147 -7.18355,7.18147 h -0.0269 c 4.4804,0 7.1696,3.41425 7.1696,6.45903 0,3.04478 -2.67338,6.45904 -7.1696,6.45904 -1.17827,0 -2.5999,-0.19291 -4.12533,-0.69556 0.86476,1.90023 1.17771,3.68664 1.17771,5.11751 0,4.50361 -3.79579,7.18148 -7.18148,7.18148 -3.38571,0 -7.18148,-2.69371 -7.18148,-7.18148 v -0.0294 c 0,4.48039 -3.41426,7.16959 -6.45903,7.16959 -3.04477,0 -6.45904,-2.67338 -6.45904,-7.16959 0,-1.17831 0.19238,-2.59779 0.69507,-4.12326 -1.90045,0.86495 -3.68602,1.1777 -5.11702,1.1777 -4.50363,0 -7.18148,-3.79784 -7.18148,-7.18354 0,-3.38569 2.69372,-7.18147 7.18148,-7.18147 h 0.0274 c -4.4804,0 -7.1701,-3.41426 -7.1701,-6.45904 0,-3.04478 2.67388,-6.45904 7.1701,-6.45904 1.17819,0 2.59797,0.193 4.12327,0.69557 -0.86476,-1.90024 -1.17615,-3.68665 -1.17615,-5.11752 0,-4.50338 3.7959,-7.1812 7.18148,-7.18147 z"
     clip-path="none"
     style="opacity:1;fill:#388e3c;fill-opacity:1;fill-rule:nonzero;stroke:none;stroke-width:0;stroke-miterlimit:4;stroke-dasharray:none;stroke-dashoffset:0" />
  <path
     style="fill:#ffffff;stroke:none;stroke-width:0.37795275;stroke-linecap:butt;stroke-linejoin:miter;stroke-miterlimit:4;stroke-dasharray:none;stroke-opacity:1"
     d="M 138.66797 155.27148 C 121.67442 155.27148 111.56836 168.17576 111.56836 179.68359 C 111.56836 191.19142 121.73421 204.09375 138.66797 204.09375 L 138.56055 204.09375 C 121.59893 204.09375 111.41602 218.44393 111.41602 231.24023 C 111.41602 244.03658 121.53903 258.38477 138.56055 258.38477 C 148.36313 258.38477 162.55851 254.547 175.78516 241.32031 C 189.01176 228.09374 204.09375 204.09375 204.09375 204.09375 C 204.09375 204.09375 189.03694 182.512 175.83203 170.61719 C 162.62712 158.72237 148.45445 155.27148 138.66797 155.27148 z "
     transform="scale(0.26458334)"
     id="path4505" />
  <path
     inkscape:connector-curvature="0"
     transform="rotate(180,271.46435,146.47368)"
     d="m 504.4502,221.63662 c 0,-4.49621 -4.10231,-7.17035 -7.76076,-7.17035 -3.65845,0 -7.76073,2.68996 -7.76073,7.17035 m 10e-6,0 c 0,0 -10e-6,17.31075 -10e-6,17.31075 0,0 6.86124,-3.98388 10.6427,-7.47768 3.78149,-3.4938 4.87879,-7.24373 4.87879,-9.83307"
     style="opacity:0.57900002;fill:#808080;fill-opacity:1;stroke:none;stroke-width:0.1;stroke-linecap:butt;stroke-linejoin:miter;stroke-miterlimit:4;stroke-dasharray:none;stroke-opacity:1;filter:url(#filter3668)"
     id="path4507" />
  <path
     style="fill:#ffffff;stroke:none;stroke-width:0.37795275;stroke-linecap:butt;stroke-linejoin:miter;stroke-miterlimit:4;stroke-dasharray:none;stroke-opacity:1"
     d="M 204.09375 204.09375 C 204.09375 204.09375 182.512 219.15251 170.61719 232.35742 C 158.72237 245.56233 155.27148 259.735 155.27148 269.52148 C 155.27148 286.51503 168.17576 296.62109 179.68359 296.62109 C 191.19142 296.62109 204.09375 286.45524 204.09375 269.52148 L 204.09375 269.62891 C 204.09375 286.59052 218.44389 296.77344 231.24023 296.77344 C 244.03658 296.77344 258.38477 286.65042 258.38477 269.62891 C 258.38477 259.82632 254.547 245.62899 241.32031 232.40234 C 228.0937 219.17574 204.09375 204.09375 204.09375 204.09375 z "
     transform="scale(0.26458334)"
     id="path4509" />
  <path
     inkscape:connector-curvature="0"
     transform="rotate(90,363.93804,-70.990675)"
     id="path4511"
     style="opacity:0.57900002;fill:#808080;fill-opacity:1;stroke:none;stroke-width:0.1;stroke-linecap:butt;stroke-linejoin:miter;stroke-miterlimit:4;stroke-dasharray:none;stroke-opacity:1;filter:url(#filter3668)"
     d="m 504.4502,221.63662 c 0,-4.49621 -4.10231,-7.17035 -7.76076,-7.17035 -3.65845,0 -7.76073,2.68996 -7.76073,7.17035 m 10e-6,0 c 0,0 -10e-6,17.31075 -10e-6,17.31075 0,0 6.86124,-3.98388 10.6427,-7.47768 3.78149,-3.4938 4.87879,-7.24373 4.87879,-9.83307" />
  <path
     style="fill:#ffffff;stroke:none;stroke-width:0.37795275;stroke-linecap:butt;stroke-linejoin:miter;stroke-miterlimit:4;stroke-dasharray:none;stroke-opacity:1"
     d="M 269.62891 149.80469 C 259.82629 149.80469 245.62899 153.64246 232.40234 166.86914 C 219.17577 180.09575 204.09375 204.09375 204.09375 204.09375 C 204.09375 204.09375 219.15251 225.67745 232.35742 237.57227 C 245.56233 249.46708 259.735 252.91797 269.52148 252.91797 C 286.51503 252.91797 296.62109 240.01369 296.62109 228.50586 C 296.62109 216.99803 286.45524 204.09375 269.52148 204.09375 L 269.62891 204.09375 C 286.59052 204.09375 296.77344 189.74556 296.77344 176.94922 C 296.77344 164.15287 286.65042 149.80469 269.62891 149.80469 z "
     transform="scale(0.26458334)"
     id="path4517" />
  <path
     inkscape:connector-curvature="0"
     d="m 69.521297,36.689444 c 0,-4.49621 -4.10231,-7.17035 -7.76076,-7.17035 -3.65845,0 -7.76073,2.68996 -7.76073,7.17035 m 1e-5,0 c 0,0 -1e-5,17.31075 -1e-5,17.31075 0,0 6.86124,-3.98388 10.6427,-7.47768 3.78149,-3.4938 4.87879,-7.24373 4.87879,-9.83307"
     style="opacity:0.57900002;fill:#808080;fill-opacity:1;stroke:none;stroke-width:0.1;stroke-linecap:butt;stroke-linejoin:miter;stroke-miterlimit:4;stroke-dasharray:none;stroke-opacity:1;filter:url(#filter3668-3)"
     id="path4507-0"
     clip-path="url(#clipPath1017)" />
  <path
     inkscape:connector-curvature="0"
     id="path4521"
     style="fill:#ffffff;fill-opacity:1;stroke:none;stroke-width:0;stroke-linecap:butt;stroke-linejoin:miter;stroke-miterlimit:4;stroke-dasharray:none;stroke-opacity:1"
     d="m 66.91791,36.68925 c 0,-4.49621 -3.41419,-7.17035 -6.45897,-7.17035 -3.04478,0 -6.45895,2.68996 -6.45895,7.17035 m 1e-5,0 c 0,0 -1e-5,17.31075 -1e-5,17.31075 0,0 5.71033,-3.98388 8.8575,-7.47768 3.14717,-3.4938 4.06042,-7.24373 4.06042,-9.83307" />
  <path
     inkscape:connector-curvature="0"
     id="path4529"
     d="m 54.399192,134.68241 a 32.950001,32.950001 0 0 0 -32.94991,32.94993 32.950001,32.950001 0 0 0 32.94991,32.94992 32.950001,32.950001 0 0 0 32.94994,-32.94992 32.950001,32.950001 0 0 0 -32.94994,-32.94993 z m -7.18301,8.42843 h 5e-4 c 3.38558,2.7e-4 7.18354,2.69395 7.18354,7.18147 v 0.0295 c 0,-4.48039 3.41376,-7.17011 6.45854,-7.17011 3.04479,0 6.45903,2.6739 6.45903,7.17011 0,1.1783 -0.19443,2.59727 -0.69712,4.12274 1.90026,-0.86477 3.68615,-1.1777 5.11701,-1.1777 4.50361,0 7.18355,3.79837 7.18355,7.18406 0,3.38569 -2.69579,7.18147 -7.18355,7.18147 h -0.0269 c 4.4804,0 7.1696,3.41425 7.1696,6.45903 0,3.04478 -2.67338,6.45904 -7.1696,6.45904 -1.17827,0 -2.5999,-0.19291 -4.12533,-0.69556 0.86476,1.90023 1.17771,3.68664 1.17771,5.11751 0,4.50361 -3.79579,7.18148 -7.18148,7.18148 -3.38571,0 -7.18148,-2.69371 -7.18148,-7.18148 v -0.0294 c 0,4.48039 -3.41426,7.16959 -6.45903,7.16959 -3.04477,0 -6.45904,-2.67338 -6.45904,-7.16959 0,-1.17831 0.19238,-2.59779 0.69507,-4.12326 -1.90045,0.86495 -3.68602,1.1777 -5.11702,1.1777 -4.50363,0 -7.18148,-3.79784 -7.18148,-7.18354 0,-3.38569 2.69372,-7.18147 7.18148,-7.18147 h 0.0274 c -4.4804,0 -7.1701,-3.41426 -7.1701,-6.45904 0,-3.04478 2.67388,-6.45904 7.1701,-6.45904 1.17819,0 2.59797,0.193 4.12327,0.69557 -0.86476,-1.90024 -1.17615,-3.68665 -1.17615,-5.11752 0,-4.50338 3.7959,-7.1812 7.18148,-7.18147 z"
     clip-path="none"
     style="opacity:1;fill:#2ca12c;fill-opacity:1;fill-rule:nonzero;stroke:none;stroke-width:0;stroke-miterlimit:4;stroke-dasharray:none;stroke-dashoffset:0" />
  <path
     id="path970"
     d="m 269.62891,149.80469 c -9.80262,0 -23.99992,3.83777 -37.22657,17.06445 -13.22657,13.22661 -28.30859,37.22461 -28.30859,37.22461 0,0 15.05876,21.5837 28.26367,33.47852 13.20491,11.89481 27.37758,15.3457 37.16406,15.3457 16.99355,0 27.09961,-12.90428 27.09961,-24.41211 0,-11.50783 -10.16585,-24.41211 -27.09961,-24.41211 h 0.10743 c 16.96161,0 27.14453,-14.34819 27.14453,-27.14453 0,-12.79635 -10.12302,-27.14453 -27.14453,-27.14453 z"
     style="fill:#ffffff;stroke:none;stroke-width:0.37795275;stroke-linecap:butt;stroke-linejoin:miter;stroke-miterlimit:4;stroke-dasharray:none;stroke-opacity:1"
     transform="matrix(0,-0.26458334,0.26458334,0,-1.9235921e-4,108.00019)"
     clip-path="url(#clipPath982)"
     inkscape:connector-curvature="0" />
  <rect
     style="opacity:1;fill:#388e3c;fill-opacity:1;fill-rule:nonzero;stroke:#800000;stroke-width:0.02;stroke-miterlimit:4;stroke-dasharray:none;stroke-dashoffset:0"
     id="rect1007"
     width="30.432203"
     height="32.949154"
     x="-80.084747"
     y="-42.330509" />
  <path
     style="fill:#ffffff;stroke:none;stroke-width:0.1;stroke-linecap:butt;stroke-linejoin:miter;stroke-miterlimit:4;stroke-dasharray:none;stroke-opacity:1"
     d="m -63.531142,-44.199471 c -3.385701,0 -7.181992,2.678898 -7.181992,7.182506 0,1.43087 0.311915,3.216249 1.176673,5.116484 -1.525295,-0.502566 -2.945078,-0.695563 -4.123263,-0.695563 -4.496209,0 -7.170105,3.414257 -7.170105,6.459037 0,3.044781 2.689715,6.459039 7.170105,6.459039 h -0.02842 c -4.48776,0 -7.181991,3.7963 -7.181991,7.18199 0,3.3856987 2.678382,7.1825067 7.181991,7.1825067 1.431008,0 3.216559,-0.31224 5.117,-1.17719 -0.502681,1.525471 -0.695565,2.9449576 -0.695565,4.1232636 0,4.496211 3.414258,7.170622 6.459038,7.170622 3.04478,0 6.459037,-2.690233 6.459037,-7.170622 v 0.02894 c 0,4.487759 3.79629,7.18199 7.181991,7.18199 3.385698,0 7.18199,-2.678382 7.18199,-7.18199 0,-1.431007 -0.31224,-3.2165576 -1.177187,-5.1169996 1.525469,0.502682 2.945474,0.695564 4.123778,0.695564 4.49621,0 7.170623,-3.4142547 7.170623,-6.4590347 -2e-6,-3.044785 -2.690237,-6.45904 -7.170625,-6.45904 h 0.02842 c 4.487762,0 7.181993,-3.796292 7.181993,-7.181991 0,-3.385701 -2.678385,-7.182509 -7.181993,-7.182509 -1.430872,0 -3.216246,0.31243 -5.116483,1.177189 0.502671,-1.525453 0.695049,-2.944971 0.695049,-4.123264 0,-4.496208 -3.413741,-7.170621 -6.458521,-7.170621 -3.04478,0 -6.459038,2.690233 -6.459038,7.170621 v -0.02842 c 0,-4.487759 -3.796808,-7.182506 -7.182506,-7.182506 z"
     id="path4505-7"
     inkscape:connector-curvature="0" />
</svg>
