<?xml version="1.0" encoding="UTF-8" standalone="no"?>
<!-- Created with Inkscape (http://www.inkscape.org/) -->

<svg
   xmlns:dc="http://purl.org/dc/elements/1.1/"
   xmlns:cc="http://creativecommons.org/ns#"
   xmlns:rdf="http://www.w3.org/1999/02/22-rdf-syntax-ns#"
   xmlns:svg="http://www.w3.org/2000/svg"
   xmlns="http://www.w3.org/2000/svg"
   xmlns:xlink="http://www.w3.org/1999/xlink"
   xmlns:sodipodi="http://sodipodi.sourceforge.net/DTD/sodipodi-0.dtd"
   xmlns:inkscape="http://www.inkscape.org/namespaces/inkscape"
   width="108mm"
   height="108mm"
   viewBox="0 0 108 108"
   version="1.1"
   id="svg8"
   inkscape:version="0.91 r13725"
   sodipodi:docname="launcher_icon_draft.svg">
  <sodipodi:namedview
     id="base"
     pagecolor="#ffffff"
     bordercolor="#666666"
     borderopacity="1.0"
     inkscape:pageopacity="0.0"
     inkscape:pageshadow="2"
     inkscape:zoom="1.4142136"
     inkscape:cx="1619.6374"
     inkscape:cy="206.29426"
     inkscape:document-units="mm"
     inkscape:current-layer="layer1"
     showgrid="false"
     inkscape:window-width="1366"
     inkscape:window-height="741"
     inkscape:window-x="0"
     inkscape:window-y="27"
     inkscape:window-maximized="1"
     inkscape:snap-midpoints="true"
     inkscape:snap-intersection-paths="true"
     inkscape:snap-smooth-nodes="false"
     inkscape:object-nodes="true"
     inkscape:snap-nodes="true"
     inkscape:object-paths="false"
     showguides="true"
     inkscape:guide-bbox="true"
     inkscape:snap-object-midpoints="true">
    <sodipodi:guide
       position="159.86894,61.194436"
       orientation="1,0"
       id="guide1034"
       inkscape:locked="false" />
    <sodipodi:guide
       position="273.74618,69.344956"
       orientation="0.70710678,0.70710678"
       id="guide1422"
       inkscape:locked="false" />
    <sodipodi:guide
       position="385.08564,102.77363"
       orientation="0,1"
       id="guide2591"
       inkscape:locked="false" />
  </sodipodi:namedview>
  <defs
     id="defs2">
    <linearGradient
       id="linearGradient2803"
       inkscape:collect="always">
      <stop
         id="stop2799"
         offset="0"
         style="stop-color:#cccccc;stop-opacity:1" />
      <stop
         id="stop2801"
         offset="1"
         style="stop-color:#ffffff;stop-opacity:1" />
    </linearGradient>
    <clipPath
       clipPathUnits="userSpaceOnUse"
       id="clipPath918">
      <circle
         style="opacity:1;fill:none;fill-opacity:1;fill-rule:nonzero;stroke:#000000;stroke-width:0.09999999;stroke-miterlimit:4;stroke-dasharray:none;stroke-dashoffset:0"
         id="circle920"
         cx="142.5"
         cy="243"
         r="25.950001" />
    </clipPath>
    <clipPath
       clipPathUnits="userSpaceOnUse"
       id="clipPath946">
      <circle
         style="opacity:1;fill:none;fill-opacity:1;fill-rule:nonzero;stroke:#000000;stroke-width:0.09999999;stroke-miterlimit:4;stroke-dasharray:none;stroke-dashoffset:0"
         id="circle948"
         cx="142.5"
         cy="243"
         r="25.950001" />
    </clipPath>
    <clipPath
       clipPathUnits="userSpaceOnUse"
       id="clipPath960">
      <circle
         style="opacity:1;fill:none;fill-opacity:1;fill-rule:nonzero;stroke:#000000;stroke-width:0.09999999;stroke-miterlimit:4;stroke-dasharray:none;stroke-dashoffset:0"
         id="circle962"
         cx="142.5"
         cy="243"
         r="25.950001" />
    </clipPath>
    <clipPath
       clipPathUnits="userSpaceOnUse"
       id="clipPath1024">
      <path
         clip-path="url(#clipPath946)"
         inkscape:connector-curvature="0"
         id="path1026"
         d="m 173.04545,212.45454 -61.09091,61.09091"
         style="fill:none;stroke:#000000;stroke-width:0.09999999;stroke-linecap:butt;stroke-linejoin:miter;stroke-miterlimit:4;stroke-dasharray:none;stroke-opacity:1"
         transform="rotate(-90,142.5,243)" />
    </clipPath>
    <clipPath
       clipPathUnits="userSpaceOnUse"
       id="clipPath1114">
      <path
         transform="rotate(22.5,173.80602,384.3127)"
         style="fill:none;stroke:#000000;stroke-width:0.09999999;stroke-linecap:butt;stroke-linejoin:miter;stroke-miterlimit:4;stroke-dasharray:none;stroke-opacity:1"
         d="m 142.5,205.5 v 74.86363"
         id="path1116"
         inkscape:connector-curvature="0"
         clip-path="url(#clipPath918)" />
    </clipPath>
    <clipPath
       clipPathUnits="userSpaceOnUse"
       id="clipPath1165">
      <path
         inkscape:connector-curvature="0"
         id="path1167"
         d="m 189.03738,265.73437 19.89954,-48.04174"
         style="fill:none;stroke:#000000;stroke-width:0.09999999;stroke-linecap:butt;stroke-linejoin:miter;stroke-miterlimit:4;stroke-dasharray:none;stroke-opacity:1" />
    </clipPath>
    <clipPath
       clipPathUnits="userSpaceOnUse"
       id="clipPath1171">
      <rect
         style="opacity:1;fill:none;fill-opacity:1;fill-rule:nonzero;stroke:#000000;stroke-width:0.09999999;stroke-miterlimit:4;stroke-dasharray:none;stroke-dashoffset:0"
         id="rect1173"
         width="16.603758"
         height="31.440777"
         x="198.98714"
         y="210.27272" />
    </clipPath>
    <clipPath
       clipPathUnits="userSpaceOnUse"
       id="clipPath1179">
      <rect
         style="opacity:1;fill:none;fill-opacity:1;fill-rule:nonzero;stroke:#000000;stroke-width:0.09999999;stroke-miterlimit:4;stroke-dasharray:none;stroke-dashoffset:0"
         id="rect1181"
         width="16.905407"
         height="8.5962687"
         x="198.98714"
         y="215.81128" />
    </clipPath>
    <linearGradient
       gradientUnits="userSpaceOnUse"
       y2="226.70805"
       x2="426.3669"
       y1="226.70805"
       x1="414.79535"
       id="linearGradient2805"
       xlink:href="#linearGradient2803"
       inkscape:collect="always" />
    <linearGradient
       gradientUnits="userSpaceOnUse"
       y2="226.70805"
       x2="426.36691"
       y1="226.70805"
       x1="414.79535"
       id="linearGradient2813"
       xlink:href="#linearGradient2803"
       inkscape:collect="always" />
    <linearGradient
       gradientTransform="rotate(90,414.83112,238.93642)"
       y2="226.70805"
       x2="426.3669"
       y1="226.70805"
       x1="414.79535"
       gradientUnits="userSpaceOnUse"
       id="linearGradient2821"
       xlink:href="#linearGradient2803"
       inkscape:collect="always" />
    <linearGradient
       gradientTransform="rotate(90,414.83112,238.93642)"
       y2="226.70805"
       x2="426.36691"
       y1="226.70805"
       x1="414.79535"
       gradientUnits="userSpaceOnUse"
       id="linearGradient2823"
       xlink:href="#linearGradient2803"
       inkscape:collect="always" />
    <linearGradient
       gradientTransform="rotate(180,414.84535,238.9364)"
       y2="226.70805"
       x2="426.3669"
       y1="226.70805"
       x1="414.79535"
       gradientUnits="userSpaceOnUse"
       id="linearGradient2825"
       xlink:href="#linearGradient2803"
       inkscape:collect="always" />
    <linearGradient
       gradientTransform="rotate(180,414.84535,238.9364)"
       y2="226.70805"
       x2="426.36691"
       y1="226.70805"
       x1="414.79535"
       gradientUnits="userSpaceOnUse"
       id="linearGradient2827"
       xlink:href="#linearGradient2803"
       inkscape:collect="always" />
    <linearGradient
       gradientTransform="rotate(-90,414.84534,238.92216)"
       y2="226.70805"
       x2="426.3669"
       y1="226.70805"
       x1="414.79535"
       gradientUnits="userSpaceOnUse"
       id="linearGradient2829"
       xlink:href="#linearGradient2803"
       inkscape:collect="always" />
    <linearGradient
       gradientTransform="rotate(-90,414.84534,238.92216)"
       y2="226.70805"
       x2="426.36691"
       y1="226.70805"
       x1="414.79535"
       gradientUnits="userSpaceOnUse"
       id="linearGradient2831"
       xlink:href="#linearGradient2803"
       inkscape:collect="always" />
    <linearGradient
       inkscape:collect="always"
       xlink:href="#linearGradient2803"
       id="linearGradient3062"
       x1="488.87872"
       y1="226.70126"
       x2="501.89661"
       y2="226.70126"
       gradientUnits="userSpaceOnUse"
       gradientTransform="translate(2.6175e-6,0.02848112)" />
    <linearGradient
       inkscape:collect="always"
       xlink:href="#linearGradient2803"
       id="linearGradient3070"
       x1="488.87872"
       y1="226.70126"
       x2="501.89661"
       y2="226.70126"
       gradientUnits="userSpaceOnUse"
       gradientTransform="translate(2.6175e-6,0.02848112)" />
    <linearGradient
       inkscape:collect="always"
       xlink:href="#linearGradient2803"
       id="linearGradient3084"
       gradientUnits="userSpaceOnUse"
       x1="488.87872"
       y1="226.70126"
       x2="501.89661"
       y2="226.70126"
       gradientTransform="rotate(90,488.91447,238.93315)" />
    <linearGradient
       inkscape:collect="always"
       xlink:href="#linearGradient2803"
       id="linearGradient3086"
       gradientUnits="userSpaceOnUse"
       x1="488.87872"
       y1="226.70126"
       x2="501.89661"
       y2="226.70126"
       gradientTransform="rotate(90,488.91447,238.93315)" />
    <linearGradient
       inkscape:collect="always"
       xlink:href="#linearGradient2803"
       id="linearGradient3088"
       gradientUnits="userSpaceOnUse"
       x1="488.87872"
       y1="226.70126"
       x2="501.89661"
       y2="226.70126"
       gradientTransform="rotate(180,488.92871,238.93314)" />
    <linearGradient
       inkscape:collect="always"
       xlink:href="#linearGradient2803"
       id="linearGradient3090"
       gradientUnits="userSpaceOnUse"
       x1="488.87872"
       y1="226.70126"
       x2="501.89661"
       y2="226.70126"
       gradientTransform="rotate(180,488.92871,238.93314)" />
    <linearGradient
       inkscape:collect="always"
       xlink:href="#linearGradient2803"
       id="linearGradient3092"
       gradientUnits="userSpaceOnUse"
       x1="488.87872"
       y1="226.70126"
       x2="501.89661"
       y2="226.70126"
       gradientTransform="rotate(-90,488.94295,238.93312)" />
    <linearGradient
       inkscape:collect="always"
       xlink:href="#linearGradient2803"
       id="linearGradient3094"
       gradientUnits="userSpaceOnUse"
       x1="488.87872"
       y1="226.70126"
       x2="501.89661"
       y2="226.70126"
       gradientTransform="rotate(-90,488.94295,238.93312)" />
    <filter
       inkscape:collect="always"
       style="color-interpolation-filters:sRGB"
       id="filter3668"
       x="-0.077317171"
       width="1.1546343"
       y="-0.049020579"
       height="1.0980412">
      <feGaussianBlur
         inkscape:collect="always"
         stdDeviation="0.50003237"
         id="feGaussianBlur3670" />
    </filter>
  </defs>
  <metadata
     id="metadata5">
    <rdf:RDF>
      <cc:Work
         rdf:about="">
        <dc:format>image/svg+xml</dc:format>
        <dc:type
           rdf:resource="http://purl.org/dc/dcmitype/StillImage" />
        <dc:title />
      </cc:Work>
    </rdf:RDF>
  </metadata>
  <g
     inkscape:label="Layer 1"
     inkscape:groupmode="layer"
     id="layer1"
     transform="translate(0,-189)">
    <rect
       style="opacity:1;fill:none;fill-opacity:1;fill-rule:nonzero;stroke:#000000;stroke-width:0.09999999;stroke-miterlimit:4;stroke-dasharray:none;stroke-dashoffset:0"
       id="rect815"
       width="71.900002"
       height="71.900002"
       x="18.049999"
       y="207.05" />
    <circle
       style="opacity:1;fill:none;fill-opacity:1;fill-rule:nonzero;stroke:#000000;stroke-width:0.09999999;stroke-miterlimit:4;stroke-dasharray:none;stroke-dashoffset:0"
       id="path817"
       cx="54"
       cy="243"
       r="32.950001" />
    <circle
       r="25.950001"
       cy="243"
       cx="54"
       id="circle819"
       style="opacity:1;fill:none;fill-opacity:1;fill-rule:nonzero;stroke:#000000;stroke-width:0.09999999;stroke-miterlimit:4;stroke-dasharray:none;stroke-dashoffset:0" />
    <circle
       style="opacity:1;fill:none;fill-opacity:1;fill-rule:nonzero;stroke:#000000;stroke-width:0.09999999;stroke-miterlimit:4;stroke-dasharray:none;stroke-dashoffset:0"
       id="circle821"
       cx="54"
       cy="243"
       r="17.950001" />
    <rect
       y="221.05"
       x="32.049999"
       height="44"
       width="44"
       id="rect823"
       style="opacity:1;fill:none;fill-opacity:1;fill-rule:nonzero;stroke:#000000;stroke-width:0.09999999;stroke-miterlimit:4;stroke-dasharray:none;stroke-dashoffset:0"
       ry="4" />
    <rect
       ry="4"
       style="opacity:1;fill:none;fill-opacity:1;fill-rule:nonzero;stroke:#000000;stroke-width:0.09999999;stroke-miterlimit:4;stroke-dasharray:none;stroke-dashoffset:0"
       id="rect825"
       width="36"
       height="52"
       x="36"
       y="217" />
    <rect
       y="225"
       x="28"
       height="36"
       width="52"
       id="rect827"
       style="opacity:1;fill:none;fill-opacity:1;fill-rule:nonzero;stroke:#000000;stroke-width:0.09999999;stroke-miterlimit:4;stroke-dasharray:none;stroke-dashoffset:0"
       ry="4" />
    <g
       id="g993"
       transform="rotate(90,142.5,242.99999)">
      <circle
         style="opacity:1;fill:none;fill-opacity:1;fill-rule:nonzero;stroke:#000000;stroke-width:0.1;stroke-miterlimit:4;stroke-dasharray:none;stroke-dashoffset:0"
         id="circle819-7"
         cx="142.5"
         cy="243"
         r="25.950001" />
      <path
         clip-path="url(#clipPath918)"
         inkscape:connector-curvature="0"
         id="path882"
         d="m 142.5,205.5 v 74.86363"
         style="fill:none;stroke:#000000;stroke-width:0.1;stroke-linecap:butt;stroke-linejoin:miter;stroke-miterlimit:4;stroke-dasharray:none;stroke-opacity:1" />
      <path
         clip-path="url(#clipPath960)"
         inkscape:connector-curvature="0"
         id="path884"
         d="m 111.54545,243 h 71.18182"
         style="fill:none;stroke:#000000;stroke-width:0.1;stroke-linecap:butt;stroke-linejoin:miter;stroke-miterlimit:4;stroke-dasharray:none;stroke-opacity:1" />
      <path
         clip-path="url(#clipPath946)"
         inkscape:connector-curvature="0"
         id="path886"
         d="m 173.04545,212.45454 -61.09091,61.09091"
         style="fill:none;stroke:#000000;stroke-width:0.1;stroke-linecap:butt;stroke-linejoin:miter;stroke-miterlimit:4;stroke-dasharray:none;stroke-opacity:1" />
      <circle
         clip-path="none"
         r="25.950001"
         cy="243"
         cx="142.5"
         id="circle964"
         style="opacity:1;fill:none;fill-opacity:1;fill-rule:nonzero;stroke:#000000;stroke-width:0.1;stroke-miterlimit:4;stroke-dasharray:none;stroke-dashoffset:0" />
      <path
         transform="rotate(-90,142.5,243)"
         style="fill:none;stroke:#000000;stroke-width:0.1;stroke-linecap:butt;stroke-linejoin:miter;stroke-miterlimit:4;stroke-dasharray:none;stroke-opacity:1"
         d="m 173.04545,212.45454 -61.09091,61.09091"
         id="path980"
         inkscape:connector-curvature="0"
         clip-path="url(#clipPath946)" />
      <path
         transform="rotate(-22.5,142.5,243)"
         style="fill:none;stroke:#000000;stroke-width:0.1;stroke-linecap:butt;stroke-linejoin:miter;stroke-miterlimit:4;stroke-dasharray:none;stroke-opacity:1"
         d="m 142.5,205.5 v 74.86363"
         id="path982"
         inkscape:connector-curvature="0"
         clip-path="url(#clipPath918)" />
    </g>
    <circle
       style="opacity:1;fill:none;fill-opacity:1;fill-rule:nonzero;stroke:#000000;stroke-width:0.10000003;stroke-miterlimit:4;stroke-dasharray:none;stroke-dashoffset:0"
       id="path984"
       cx="281.06015"
       cy="-62.349617"
       r="7.1500001"
       transform="rotate(67.5)" />
    <path
       transform="rotate(22.5,168.83571,383.38703)"
       style="fill:none;stroke:#000000;stroke-width:0.1;stroke-linecap:butt;stroke-linejoin:miter;stroke-miterlimit:4;stroke-dasharray:none;stroke-opacity:1"
       d="m 142.5,205.5 v 74.86363"
       id="path1020"
       inkscape:connector-curvature="0"
       clip-path="url(#clipPath1024)" />
    <path
       style="fill:none;stroke:#000000;stroke-width:0.1;stroke-linecap:butt;stroke-linejoin:miter;stroke-miterlimit:4;stroke-dasharray:none;stroke-opacity:1"
       d="m 199.89513,241.02574 12.28171,-12.28172"
       id="path1036"
       inkscape:connector-curvature="0" />
    <path
       inkscape:connector-curvature="0"
       id="path1038"
       d="m 199.89513,241.02574 0,-17.36896"
       style="fill:none;stroke:#000000;stroke-width:0.1;stroke-linecap:butt;stroke-linejoin:miter;stroke-miterlimit:4;stroke-dasharray:none;stroke-opacity:1" />
    <path
       style="fill:none;stroke:#000000;stroke-width:0.1;stroke-linecap:butt;stroke-linejoin:miter;stroke-miterlimit:4;stroke-dasharray:none;stroke-opacity:1"
       d="m 189.03738,265.73437 19.89954,-48.04174"
       id="path1143"
       inkscape:connector-curvature="0"
       clip-path="url(#clipPath1171)"
       transform="translate(0.90797634,-0.75075966)" />
    <path
       transform="rotate(90,213.29082,226.24757)"
       clip-path="url(#clipPath1171)"
       inkscape:connector-curvature="0"
       id="path1189"
       d="m 189.03738,265.73437 19.89954,-48.04174"
       style="fill:none;stroke:#000000;stroke-width:0.1;stroke-linecap:butt;stroke-linejoin:miter;stroke-miterlimit:4;stroke-dasharray:none;stroke-opacity:1" />
    <circle
       transform="rotate(90)"
       clip-path="none"
       r="25.950001"
       cy="-261.48679"
       cx="239.91443"
       id="circle1299"
       style="opacity:1;fill:none;fill-opacity:1;fill-rule:nonzero;stroke:#000000;stroke-width:0.1;stroke-miterlimit:4;stroke-dasharray:none;stroke-dashoffset:0" />
    <path
       sodipodi:nodetypes="cc"
       inkscape:connector-curvature="0"
       id="path1314"
       d="m 261.48678,213.96443 v 25.95 L 279.83621,221.565"
       style="fill:none;stroke:#000000;stroke-width:0.1;stroke-linecap:butt;stroke-linejoin:miter;stroke-opacity:1;stroke-miterlimit:4;stroke-dasharray:none" />
    <path
       inkscape:connector-curvature="0"
       id="path1316"
       d="m 261.48679,239.91443 9.93062,-23.97467"
       style="fill:none;stroke:#000000;stroke-width:0.1;stroke-linecap:butt;stroke-linejoin:miter;stroke-opacity:1;stroke-miterlimit:4;stroke-dasharray:none" />
    <g
       id="g1370"
       inkscape:label="TriangleElements"
       transform="translate(362.02848,239.91443)"
       style="fill:none;stroke-width:0.1;stroke-miterlimit:4;stroke-dasharray:none">
      <path
         id="circle1368"
         inkscape:label="Incircle"
         style="fill:none;stroke:#000000;stroke-width:0.1;stroke-miterlimit:4;stroke-dasharray:none"
         sodipodi:type="arc"
         sodipodi:cx="7.1821465"
         sodipodi:cy="17.33923"
         sodipodi:rx="7.1821465"
         sodipodi:ry="7.1821465"
         sodipodi:start="0"
         sodipodi:end="3.1415927"
         d="m 14.364293,17.33923 a 7.1821465,7.1821465 0 0 1 -3.591073,6.219921 7.1821465,7.1821465 0 0 1 -7.1821469,0 A 7.1821465,7.1821465 0 0 1 0,17.339229"
         transform="scale(1,-1)"
         sodipodi:open="true" />
    </g>
    <g
       style="stroke-width:0.1;stroke-miterlimit:4;stroke-dasharray:none"
       transform="matrix(-1,0,0,1,362.02848,239.91443)"
       inkscape:label="TriangleElements"
       id="g1430">
      <path
         id="circle1428"
         style="fill:none;stroke:#000000;stroke-width:0.1;stroke-miterlimit:4;stroke-dasharray:none"
         d="m 31.750001,-17.33923 a 7.1821465,7.1821465 0 0 1 5.323271,-6.93742 7.1821465,7.1821465 0 0 1 8.078797,3.346347 7.1821465,7.1821465 0 0 1 -1.141376,8.669618 m -0.0013,0.0013 L 31.75001,0 v -17.33923"
         inkscape:connector-curvature="0" />
    </g>
    <g
       id="g1436"
       inkscape:label="TriangleElements"
       transform="rotate(90,61.057035,269.22146)"
       style="stroke-width:0.1;stroke-miterlimit:4;stroke-dasharray:none">
      <path
         inkscape:connector-curvature="0"
         d="m 31.750001,-17.33923 a 7.1821465,7.1821465 0 0 1 5.323271,-6.93742 7.1821465,7.1821465 0 0 1 8.078797,3.346347 7.1821465,7.1821465 0 0 1 -1.141376,8.669618 m -0.0013,0.0013 L 31.75001,0 v -17.33923"
         style="fill:none;stroke:#000000;stroke-width:0.1;stroke-miterlimit:4;stroke-dasharray:none"
         id="path1434" />
    </g>
    <g
       style="stroke-width:0.1;stroke-miterlimit:4;stroke-dasharray:none"
       transform="rotate(180,181.01425,119.95722)"
       inkscape:label="TriangleElements"
       id="g1440">
      <path
         id="path1438"
         style="fill:none;stroke:#000000;stroke-width:0.1;stroke-miterlimit:4;stroke-dasharray:none"
         d="m 31.750001,-17.33923 a 7.1821465,7.1821465 0 0 1 5.323271,-6.93742 7.1821465,7.1821465 0 0 1 8.078797,3.346347 7.1821465,7.1821465 0 0 1 -1.141376,8.669618 m -0.0013,0.0013 L 31.75001,0 v -17.33923"
         inkscape:connector-curvature="0" />
    </g>
    <g
       id="g1444"
       inkscape:label="TriangleElements"
       transform="matrix(1,0,0,-1,298.52846,239.91443)"
       style="stroke-width:0.1;stroke-miterlimit:4;stroke-dasharray:none">
      <path
         inkscape:connector-curvature="0"
         d="m 31.750001,-17.33923 a 7.1821465,7.1821465 0 0 1 5.323271,-6.93742 7.1821465,7.1821465 0 0 1 8.078797,3.346347 7.1821465,7.1821465 0 0 1 -1.141376,8.669618 m -0.0013,0.0013 L 31.75001,0 v -17.33923"
         style="fill:none;stroke:#000000;stroke-width:0.1;stroke-miterlimit:4;stroke-dasharray:none"
         id="path1442" />
    </g>
    <g
       style="stroke-width:0.1;stroke-miterlimit:4;stroke-dasharray:none"
       transform="matrix(0,-1,-1,0,330.27849,271.66444)"
       inkscape:label="TriangleElements"
       id="g1448">
      <path
         id="path1446"
         style="fill:none;stroke:#000000;stroke-width:0.1;stroke-miterlimit:4;stroke-dasharray:none"
         d="m 31.750001,-17.33923 a 7.1821465,7.1821465 0 0 1 5.323271,-6.93742 7.1821465,7.1821465 0 0 1 8.078797,3.346347 7.1821465,7.1821465 0 0 1 -1.141376,8.669618 m -0.0013,0.0013 L 31.75001,0 v -17.33923"
         inkscape:connector-curvature="0" />
    </g>
    <g
       id="g1452"
       inkscape:label="TriangleElements"
       transform="translate(298.52848,239.91443)"
       style="stroke-width:0.1;stroke-miterlimit:4;stroke-dasharray:none">
      <path
         inkscape:connector-curvature="0"
         d="m 31.750001,-17.33923 a 7.1821465,7.1821465 0 0 1 5.323271,-6.93742 7.1821465,7.1821465 0 0 1 8.078797,3.346347 7.1821465,7.1821465 0 0 1 -1.141376,8.669618 m -0.0013,0.0013 L 31.75001,0 v -17.33923"
         style="fill:none;stroke:#000000;stroke-width:0.1;stroke-miterlimit:4;stroke-dasharray:none"
         id="path1450" />
    </g>
    <g
       style="stroke-width:0.1;stroke-miterlimit:4;stroke-dasharray:none"
       transform="rotate(-90,300.97147,-29.307025)"
       inkscape:label="TriangleElements"
       id="g1456">
      <path
         id="path1454"
         style="fill:none;stroke:#000000;stroke-width:0.1;stroke-miterlimit:4;stroke-dasharray:none"
         d="m 31.750001,-17.33923 a 7.1821465,7.1821465 0 0 1 5.323271,-6.93742 7.1821465,7.1821465 0 0 1 8.078797,3.346347 7.1821465,7.1821465 0 0 1 -1.141376,8.669618 m -0.0013,0.0013 L 31.75001,0 v -17.33923"
         inkscape:connector-curvature="0" />
    </g>
    <g
       id="g1460"
       inkscape:label="TriangleElements"
       transform="matrix(0,1,1,0,330.2785,208.16442)"
       style="stroke-width:0.1;stroke-miterlimit:4;stroke-dasharray:none">
      <path
         inkscape:connector-curvature="0"
         d="m 31.750001,-17.33923 a 7.1821465,7.1821465 0 0 1 5.323271,-6.93742 7.1821465,7.1821465 0 0 1 8.078797,3.346347 7.1821465,7.1821465 0 0 1 -1.141376,8.669618 m -0.0013,0.0013 L 31.75001,0 v -17.33923"
         style="fill:none;stroke:#000000;stroke-width:0.1;stroke-miterlimit:4;stroke-dasharray:none"
         id="path1458" />
    </g>
    <g
       style="stroke-width:0.1;stroke-miterlimit:4;stroke-dasharray:none"
       transform="translate(235.02844,239.91443)"
       inkscape:label="TriangleElements"
       id="g1464">
      <path
         id="path1462"
         style="fill:none;stroke:#000000;stroke-width:0.1;stroke-miterlimit:4;stroke-dasharray:none"
         d="m 31.750001,-17.33923 a 7.1821465,7.1821465 0 0 1 5.323271,-6.93742 7.1821465,7.1821465 0 0 1 8.078797,3.346347 7.1821465,7.1821465 0 0 1 -1.141376,8.669618 m -0.0013,0.0013 L 31.75001,0 v -17.33923"
         inkscape:connector-curvature="0" />
    </g>
    <path
       id="path1490"
       style="fill:none;stroke:#000000;stroke-width:0.1;stroke-linecap:butt;stroke-linejoin:miter;stroke-miterlimit:4;stroke-dasharray:none;stroke-opacity:1"
       d="m 362.02847,239.91443 c 0,0 6.34971,-3.99044 9.84925,-7.48998 3.49956,-3.49955 4.51506,-7.25565 4.51506,-9.84925 m -14.3643,0 -10e-6,17.33923"
       inkscape:connector-curvature="0"
       sodipodi:nodetypes="ccccc" />
    <g
       style="stroke-width:0.1;stroke-miterlimit:4;stroke-dasharray:none"
       transform="translate(388.48683,239.91443)"
       inkscape:label="TriangleElements"
       id="g1506" />
    <circle
       style="opacity:1;fill:#008000;fill-opacity:1;fill-rule:nonzero;stroke:#000000;stroke-width:0.09999999;stroke-miterlimit:4;stroke-dasharray:none;stroke-dashoffset:0"
       id="path817-8"
       cx="414.84537"
       cy="238.95065"
       r="32.950001" />
    <rect
       style="opacity:1;fill:none;fill-opacity:1;fill-rule:nonzero;stroke:#ff0000;stroke-width:0.1;stroke-miterlimit:4;stroke-dasharray:none;stroke-dashoffset:0"
       id="rect1534"
       width="14.464267"
       height="24.621349"
       x="400.38107"
       y="177.28712" />
    <path
       style="opacity:1;fill:none;fill-opacity:1;fill-rule:nonzero;stroke:#ff0000;stroke-width:0.1;stroke-miterlimit:4;stroke-dasharray:none;stroke-dashoffset:0"
       d="m 439.46671,191.32562 v 11.55141 h -24.62135 v -11.55141 z"
       id="rect1536"
       inkscape:connector-curvature="0" />
    <rect
       y="177.28712"
       x="474.46439"
       height="24.621349"
       width="14.464267"
       id="rect2354"
       style="opacity:1;fill:none;fill-opacity:1;fill-rule:nonzero;stroke:#ff0000;stroke-width:0.1;stroke-miterlimit:4;stroke-dasharray:none;stroke-dashoffset:0" />
    <path
       id="rect2364"
       d="m 513.55006,188.89784 v 13.00784 h -24.62135 v -13.00784 z"
       style="opacity:1;fill:none;fill-opacity:1;fill-rule:nonzero;stroke:#ff0000;stroke-width:0.10000001;stroke-miterlimit:4;stroke-dasharray:none;stroke-dashoffset:0"
       inkscape:connector-curvature="0" />
    <path
       inkscape:connector-curvature="0"
       d="m 400.48106,221.61142 c 0,-4.50361 3.79647,-7.18215 7.18217,-7.18215 3.3857,0 7.18214,2.69439 7.18214,7.18215 m -10e-6,0 10e-6,17.33923 c 0,0 -6.34971,-3.99044 -9.84925,-7.48998 -3.49956,-3.49955 -4.51506,-7.25565 -4.51506,-9.84925"
       style="fill:#ffffff;stroke:#ffffff;stroke-width:0.1;stroke-linecap:butt;stroke-linejoin:miter;stroke-miterlimit:4;stroke-dasharray:none;stroke-opacity:1"
       id="path2605" />
    <path
       id="path2607"
       style="fill:#ffffff;stroke:#ffffff;stroke-width:0.1;stroke-linecap:butt;stroke-linejoin:miter;stroke-miterlimit:4;stroke-dasharray:none;stroke-opacity:1"
       d="m 397.50613,253.31496 c -4.50361,0 -7.18215,-3.79647 -7.18215,-7.18217 0,-3.3857 2.69439,-7.18214 7.18215,-7.18214 m 0,1e-5 17.33923,-1e-5 c 0,0 -3.99044,6.34971 -7.48998,9.84925 -3.49955,3.49956 -7.25565,4.51506 -9.84925,4.51506"
       inkscape:connector-curvature="0" />
    <path
       inkscape:connector-curvature="0"
       d="m 429.20966,256.28988 c 0,4.50361 -3.79647,7.18215 -7.18216,7.18215 -3.3857,0 -7.18214,-2.69439 -7.18214,-7.18215 m 0,0 v -17.33923 c 0,0 6.34971,3.99044 9.84924,7.48998 3.49956,3.49955 4.51506,7.25565 4.51506,9.84925"
       style="fill:#ffffff;stroke:#ffffff;stroke-width:0.1;stroke-linecap:butt;stroke-linejoin:miter;stroke-miterlimit:4;stroke-dasharray:none;stroke-opacity:1"
       id="path2609" />
    <path
       id="path2611"
       style="fill:#ffffff;stroke:#ffffff;stroke-width:0.1;stroke-linecap:butt;stroke-linejoin:miter;stroke-miterlimit:4;stroke-dasharray:none;stroke-opacity:1"
       d="m 432.1846,224.58635 c 4.50361,0 7.18215,3.79647 7.18215,7.18216 0,3.3857 -2.69439,7.18214 -7.18215,7.18214 m 0,0 h -17.33923 c 0,0 3.99044,-6.34971 7.48998,-9.84924 3.49955,-3.49956 7.25565,-4.51506 9.84925,-4.51506"
       inkscape:connector-curvature="0" />
    <path
       id="path2797"
       style="fill:url(#linearGradient2805);stroke:url(#linearGradient2813);stroke-width:0.1;stroke-linecap:butt;stroke-linejoin:miter;stroke-miterlimit:4;stroke-dasharray:none;stroke-opacity:1;fill-opacity:1"
       d="m 426.3169,221.61142 c 0,-4.49622 -3.03192,-7.17036 -5.73579,-7.17036 -2.70387,0 -5.73576,2.68997 -5.73576,7.17036 m 1e-5,0 c 0,0 -1e-5,17.31075 -1e-5,17.31075 0,0 5.07097,-3.98389 7.86575,-7.47768 2.7948,-3.4938 3.6058,-7.24373 3.6058,-9.83307"
       inkscape:connector-curvature="0" />
    <path
       inkscape:connector-curvature="0"
       d="m 397.5346,227.45062 c -4.49622,0 -7.17036,3.03192 -7.17036,5.73579 0,2.70387 2.68997,5.73576 7.17036,5.73576 m 0,-1e-5 c 0,0 17.31075,1e-5 17.31075,1e-5 0,0 -3.98389,-5.07097 -7.47768,-7.86575 -3.4938,-2.7948 -7.24373,-3.6058 -9.83307,-3.6058"
       style="fill:url(#linearGradient2829);fill-opacity:1;stroke:url(#linearGradient2831);stroke-width:0.1;stroke-linecap:butt;stroke-linejoin:miter;stroke-miterlimit:4;stroke-dasharray:none;stroke-opacity:1"
       id="path2815" />
    <path
       id="path2817"
       style="fill:url(#linearGradient2825);fill-opacity:1;stroke:url(#linearGradient2827);stroke-width:0.1;stroke-linecap:butt;stroke-linejoin:miter;stroke-miterlimit:4;stroke-dasharray:none;stroke-opacity:1"
       d="m 403.37382,256.2614 c 0,4.49622 3.03192,7.17036 5.73579,7.17036 2.70387,0 5.73576,-2.68997 5.73576,-7.17036 m -10e-6,0 c 0,0 10e-6,-17.31075 10e-6,-17.31075 0,0 -5.07097,3.98389 -7.86575,7.47768 -2.7948,3.4938 -3.6058,7.24373 -3.6058,9.83307"
       inkscape:connector-curvature="0" />
    <path
       inkscape:connector-curvature="0"
       d="m 432.15612,250.4222 c 4.49622,0 7.17036,-3.03192 7.17036,-5.73579 0,-2.70387 -2.68997,-5.73576 -7.17036,-5.73576 m 0,1e-5 c 0,0 -17.31075,-1e-5 -17.31075,-1e-5 0,0 3.98389,5.07097 7.47768,7.86575 3.4938,2.7948 7.24373,3.6058 9.83307,3.6058"
       style="fill:url(#linearGradient2821);fill-opacity:1;stroke:url(#linearGradient2823);stroke-width:0.1;stroke-linecap:butt;stroke-linejoin:miter;stroke-miterlimit:4;stroke-dasharray:none;stroke-opacity:1"
       id="path2819" />
    <circle
       style="opacity:1;fill:#008000;fill-opacity:1;fill-rule:nonzero;stroke:#000000;stroke-width:0.09999999;stroke-miterlimit:4;stroke-dasharray:none;stroke-dashoffset:0"
       id="path817-0"
       cx="488.92871"
       cy="238.94737"
       r="32.950001" />
    <path
       id="path3072"
       style="fill:#ffffff;stroke:#ffffff;stroke-width:0.1;stroke-linecap:butt;stroke-linejoin:miter;stroke-miterlimit:4;stroke-dasharray:none;stroke-opacity:1"
       d="m 471.58948,253.31168 c -4.50361,0 -7.18215,-3.79647 -7.18215,-7.18217 0,-3.38569 2.69439,-7.18214 7.18215,-7.18214 m 0,1e-5 17.33923,-1e-5 c 0,0 -3.99044,6.34972 -7.48998,9.84925 -3.49955,3.49956 -7.25565,4.51506 -9.84925,4.51506"
       inkscape:connector-curvature="0" />
    <path
       id="path3866"
       style="opacity:0.57900002;fill:#808080;fill-opacity:1;stroke:#808080;stroke-width:0.1;stroke-linecap:butt;stroke-linejoin:miter;stroke-miterlimit:4;stroke-dasharray:none;stroke-opacity:1;filter:url(#filter3668)"
       d="m 504.4502,221.63662 c 0,-4.49621 -4.10231,-7.17035 -7.76076,-7.17035 -3.65845,0 -7.76073,2.68996 -7.76073,7.17035 m 10e-6,0 c 0,0 -10e-6,17.31075 -10e-6,17.31075 0,0 6.86124,-3.98388 10.6427,-7.47768 3.78149,-3.4938 4.87879,-7.24373 4.87879,-9.83307"
       inkscape:connector-curvature="0"
       transform="rotate(180,488.92871,238.94737)" />
    <path
       inkscape:connector-curvature="0"
       d="m 503.29302,256.2866 c 0,4.50361 -3.79647,7.18215 -7.18217,7.18215 -3.3857,0 -7.18214,-2.69439 -7.18214,-7.18215 m 10e-6,0 -10e-6,-17.33923 c 0,0 6.34971,3.99044 9.84925,7.48998 3.49956,3.49955 4.51506,7.25565 4.51506,9.84925"
       style="fill:#ffffff;stroke:#ffffff;stroke-width:0.1;stroke-linecap:butt;stroke-linejoin:miter;stroke-miterlimit:4;stroke-dasharray:none;stroke-opacity:1"
       id="path3076" />
    <path
       inkscape:connector-curvature="0"
       d="m 504.4502,221.63662 c 0,-4.49621 -4.10231,-7.17035 -7.76076,-7.17035 -3.65845,0 -7.76073,2.68996 -7.76073,7.17035 m 10e-6,0 c 0,0 -10e-6,17.31075 -10e-6,17.31075 0,0 6.86124,-3.98388 10.6427,-7.47768 3.78149,-3.4938 4.87879,-7.24373 4.87879,-9.83307"
       style="opacity:0.57900002;fill:#808080;fill-opacity:1;stroke:#808080;stroke-width:0.1;stroke-linecap:butt;stroke-linejoin:miter;stroke-miterlimit:4;stroke-dasharray:none;stroke-opacity:1;filter:url(#filter3668)"
       id="path3868"
       transform="rotate(90,488.92871,238.94737)" />
    <path
       inkscape:connector-curvature="0"
       d="m 474.5644,221.60814 c 0,-4.50361 3.79647,-7.18215 7.18217,-7.18215 3.3857,0 7.18214,2.69439 7.18214,7.18215 m -1e-5,0 1e-5,17.33923 c 0,0 -6.34971,-3.99044 -9.84925,-7.48998 -3.49956,-3.49955 -4.51506,-7.25565 -4.51506,-9.84925"
       style="fill:#ffffff;stroke:#ffffff;stroke-width:0.1;stroke-linecap:butt;stroke-linejoin:miter;stroke-miterlimit:4;stroke-dasharray:none;stroke-opacity:1"
       id="path2605-2" />
    <path
       inkscape:connector-curvature="0"
       d="m 504.4502,221.63662 c 0,-4.49621 -4.10231,-7.17035 -7.76076,-7.17035 -3.65845,0 -7.76073,2.68996 -7.76073,7.17035 m 10e-6,0 c 0,0 -10e-6,17.31075 -10e-6,17.31075 0,0 6.86124,-3.98388 10.6427,-7.47768 3.78149,-3.4938 4.87879,-7.24373 4.87879,-9.83307"
       style="opacity:0.57900002;fill:#808080;fill-opacity:1;stroke:#808080;stroke-width:0.1;stroke-linecap:butt;stroke-linejoin:miter;stroke-miterlimit:4;stroke-dasharray:none;stroke-opacity:1;filter:url(#filter3668)"
       id="path3864"
       transform="rotate(-90,488.92871,238.94737)" />
    <path
       id="path3080"
       style="fill:#ffffff;stroke:#ffffff;stroke-width:0.1;stroke-linecap:butt;stroke-linejoin:miter;stroke-miterlimit:4;stroke-dasharray:none;stroke-opacity:1"
       d="m 506.26794,224.58306 c 4.50361,0 7.18215,3.79647 7.18215,7.18217 0,3.3857 -2.69439,7.18214 -7.18215,7.18214 m 0,-1e-5 -17.33923,1e-5 c 0,0 3.99044,-6.34971 7.48998,-9.84925 3.49955,-3.49956 7.25565,-4.51506 9.84925,-4.51506"
       inkscape:connector-curvature="0" />
    <path
       id="path3106"
       style="fill:#808080;fill-opacity:1;stroke:#808080;stroke-width:0.1;stroke-linecap:butt;stroke-linejoin:miter;stroke-miterlimit:4;stroke-dasharray:none;stroke-opacity:1;filter:url(#filter3668);opacity:0.579"
       d="m 504.4502,221.63662 c 0,-4.49621 -4.10231,-7.17035 -7.76076,-7.17035 -3.65845,0 -7.76073,2.68996 -7.76073,7.17035 m 10e-6,0 c 0,0 -10e-6,17.31075 -10e-6,17.31075 0,0 6.86124,-3.98388 10.6427,-7.47768 3.78149,-3.4938 4.87879,-7.24373 4.87879,-9.83307"
       inkscape:connector-curvature="0" />
    <path
       inkscape:connector-curvature="0"
       d="m 501.84662,221.63662 c 0,-4.49621 -3.41419,-7.17035 -6.45897,-7.17035 -3.04478,0 -6.45894,2.68996 -6.45894,7.17035 m 10e-6,0 c 0,0 -10e-6,17.31075 -10e-6,17.31075 0,0 5.71033,-3.98388 8.85749,-7.47768 3.14718,-3.4938 4.06042,-7.24373 4.06042,-9.83307"
       style="fill:url(#linearGradient3070);fill-opacity:1;stroke:url(#linearGradient3062);stroke-width:0;stroke-linecap:butt;stroke-linejoin:miter;stroke-miterlimit:4;stroke-dasharray:none;stroke-opacity:1"
       id="path3042" />
    <path
       id="path3082"
       style="fill:url(#linearGradient3084);fill-opacity:1;stroke:url(#linearGradient3086);stroke-width:0;stroke-linecap:butt;stroke-linejoin:miter;stroke-miterlimit:4;stroke-dasharray:none;stroke-opacity:1"
       d="m 506.23946,251.86528 c 4.49621,0 7.17035,-3.41419 7.17035,-6.45897 0,-3.04478 -2.68996,-6.45894 -7.17035,-6.45894 m 0,1e-5 c 0,0 -17.31075,-1e-5 -17.31075,-1e-5 0,0 3.98388,5.71033 7.47768,8.85749 3.4938,3.14718 7.24373,4.06042 9.83307,4.06042"
       inkscape:connector-curvature="0" />
    <path
       inkscape:connector-curvature="0"
       d="m 476.0108,256.25812 c 0,4.49621 3.41419,7.17035 6.45897,7.17035 3.04478,0 6.45894,-2.68996 6.45894,-7.17035 m -1e-5,0 c 0,0 1e-5,-17.31075 1e-5,-17.31075 0,0 -5.71033,3.98388 -8.85749,7.47768 -3.14718,3.4938 -4.06042,7.24373 -4.06042,9.83307"
       style="fill:url(#linearGradient3088);fill-opacity:1;stroke:url(#linearGradient3090);stroke-width:0;stroke-linecap:butt;stroke-linejoin:miter;stroke-miterlimit:4;stroke-dasharray:none;stroke-opacity:1"
       id="path3078" />
    <path
       id="path3074"
       style="fill:url(#linearGradient3092);fill-opacity:1;stroke:url(#linearGradient3094);stroke-width:0;stroke-linecap:butt;stroke-linejoin:miter;stroke-miterlimit:4;stroke-dasharray:none;stroke-opacity:1"
       d="m 471.61796,226.02946 c -4.49621,0 -7.17035,3.41419 -7.17035,6.45897 0,3.04478 2.68996,6.45894 7.17035,6.45894 m 0,-1e-5 c 0,0 17.31075,1e-5 17.31075,1e-5 0,0 -3.98388,-5.71033 -7.47768,-8.85749 -3.4938,-3.14718 -7.24373,-4.06042 -9.83307,-4.06042"
       inkscape:connector-curvature="0" />
    <path
       style="opacity:1;fill:#388e3c;fill-opacity:1;fill-rule:nonzero;stroke:#008000;stroke-width:0;stroke-miterlimit:4;stroke-dasharray:none;stroke-dashoffset:0"
       clip-path="none"
       d="m 488.92879,205.99741 a 32.950001,32.950001 0 0 0 -32.94991,32.94993 32.950001,32.950001 0 0 0 32.94991,32.94992 32.950001,32.950001 0 0 0 32.94994,-32.94992 32.950001,32.950001 0 0 0 -32.94994,-32.94993 z m -7.18301,8.42843 h 5e-4 c 3.38558,2.7e-4 7.18354,2.69395 7.18354,7.18147 v 0.0295 c 0,-4.48039 3.41376,-7.17011 6.45854,-7.17011 3.04479,0 6.45903,2.6739 6.45903,7.17011 0,1.1783 -0.19444,2.59727 -0.69712,4.12274 1.90026,-0.86477 3.68615,-1.1777 5.11701,-1.1777 4.50361,0 7.18355,3.79837 7.18355,7.18406 0,3.38569 -2.69579,7.18147 -7.18355,7.18147 h -0.0269 c 4.4804,0 7.1696,3.41425 7.1696,6.45903 0,3.04478 -2.67338,6.45904 -7.1696,6.45904 -1.17827,0 -2.5999,-0.19291 -4.12533,-0.69556 0.86476,1.90023 1.17771,3.68664 1.17771,5.11751 0,4.50361 -3.79579,7.18148 -7.18148,7.18148 -3.38571,0 -7.18148,-2.69371 -7.18148,-7.18148 v -0.0294 c 0,4.48039 -3.41426,7.16959 -6.45903,7.16959 -3.04477,0 -6.45904,-2.67338 -6.45904,-7.16959 0,-1.17831 0.19238,-2.59779 0.69507,-4.12326 -1.90045,0.86495 -3.68602,1.1777 -5.11702,1.1777 -4.50363,0 -7.18148,-3.79784 -7.18148,-7.18354 0,-3.38569 2.69372,-7.18147 7.18148,-7.18147 h 0.0274 c -4.4804,0 -7.1701,-3.41426 -7.1701,-6.45904 0,-3.04478 2.67388,-6.45904 7.1701,-6.45904 1.17819,0 2.59797,0.193 4.12327,0.69557 -0.86476,-1.90024 -1.17615,-3.68665 -1.17615,-5.11752 0,-4.50338 3.7959,-7.1812 7.18148,-7.18147 z"
       id="path3846"
       inkscape:connector-curvature="0" />
  </g>
</svg>
