<?xml version="1.0" encoding="UTF-8" standalone="no"?>
<svg
   xmlns:osb="http://www.openswatchbook.org/uri/2009/osb"
   xmlns:dc="http://purl.org/dc/elements/1.1/"
   xmlns:cc="http://creativecommons.org/ns#"
   xmlns:rdf="http://www.w3.org/1999/02/22-rdf-syntax-ns#"
   xmlns:svg="http://www.w3.org/2000/svg"
   xmlns="http://www.w3.org/2000/svg"
   xmlns:sodipodi="http://sodipodi.sourceforge.net/DTD/sodipodi-0.dtd"
   xmlns:inkscape="http://www.inkscape.org/namespaces/inkscape"
   id="svg8"
   version="1.1"
   viewBox="0 0 52 52"
   height="52mm"
   width="52mm"
   sodipodi:docname="notification_icon2.svg"
   inkscape:version="0.92.2 5c3e80d, 2017-08-06">
  <sodipodi:namedview
     pagecolor="#ffffff"
     bordercolor="#666666"
     borderopacity="1"
     objecttolerance="10"
     gridtolerance="10"
     guidetolerance="10"
     inkscape:pageopacity="0"
     inkscape:pageshadow="2"
     inkscape:window-width="1682"
     inkscape:window-height="1010"
     id="namedview34"
     showgrid="false"
     inkscape:zoom="1.4337468"
     inkscape:cx="58.056969"
     inkscape:cy="67.250053"
     inkscape:window-x="0"
     inkscape:window-y="0"
     inkscape:window-maximized="0"
     inkscape:current-layer="svg8" />
  <defs
     id="defs2">
    <linearGradient
       osb:paint="gradient"
       id="linearGradient6240">
      <stop
         id="stop6242"
         offset="0"
         style="stop-color:#cccccc;stop-opacity:1;" />
      <stop
         id="stop6244"
         offset="1"
         style="stop-color:#ffffff;stop-opacity:1" />
    </linearGradient>
    <clipPath
       id="clipPath918"
       clipPathUnits="userSpaceOnUse">
      <circle
         r="25.950001"
         cy="243"
         cx="142.5"
         id="circle920"
         style="opacity:1;fill:none;fill-opacity:1;fill-rule:nonzero;stroke:#000000;stroke-width:0.09999999;stroke-miterlimit:4;stroke-dasharray:none;stroke-dashoffset:0" />
    </clipPath>
    <clipPath
       id="clipPath946"
       clipPathUnits="userSpaceOnUse">
      <circle
         r="25.950001"
         cy="243"
         cx="142.5"
         id="circle948"
         style="opacity:1;fill:none;fill-opacity:1;fill-rule:nonzero;stroke:#000000;stroke-width:0.09999999;stroke-miterlimit:4;stroke-dasharray:none;stroke-dashoffset:0" />
    </clipPath>
    <clipPath
       id="clipPath960"
       clipPathUnits="userSpaceOnUse">
      <circle
         r="25.950001"
         cy="243"
         cx="142.5"
         id="circle962"
         style="opacity:1;fill:none;fill-opacity:1;fill-rule:nonzero;stroke:#000000;stroke-width:0.09999999;stroke-miterlimit:4;stroke-dasharray:none;stroke-dashoffset:0" />
    </clipPath>
    <clipPath
       id="clipPath1024"
       clipPathUnits="userSpaceOnUse">
      <path
         transform="matrix(0,-1,1,0,-100.5,385.5)"
         style="fill:none;stroke:#000000;stroke-width:0.09999999;stroke-linecap:butt;stroke-linejoin:miter;stroke-miterlimit:4;stroke-dasharray:none;stroke-opacity:1"
         d="m 173.04545,212.45454 -61.09091,61.09091"
         id="path1026"
         clip-path="url(#clipPath946)" />
    </clipPath>
    <clipPath
       id="clipPath1114"
       clipPathUnits="userSpaceOnUse">
      <path
         clip-path="url(#clipPath918)"
         id="path1116"
         d="m 142.5,205.5 0,74.86363"
         style="fill:none;stroke:#000000;stroke-width:0.09999999;stroke-linecap:butt;stroke-linejoin:miter;stroke-miterlimit:4;stroke-dasharray:none;stroke-opacity:1"
         transform="matrix(0.92387953,0.38268343,-0.38268343,0.92387953,160.3003,-37.258622)" />
    </clipPath>
    <clipPath
       id="clipPath1165"
       clipPathUnits="userSpaceOnUse">
      <path
         style="fill:none;stroke:#000000;stroke-width:0.09999999;stroke-linecap:butt;stroke-linejoin:miter;stroke-miterlimit:4;stroke-dasharray:none;stroke-opacity:1"
         d="m 189.03738,265.73437 19.89954,-48.04174"
         id="path1167" />
    </clipPath>
    <clipPath
       id="clipPath1171"
       clipPathUnits="userSpaceOnUse">
      <rect
         y="210.27272"
         x="198.98714"
         height="31.440777"
         width="16.603758"
         id="rect1173"
         style="opacity:1;fill:none;fill-opacity:1;fill-rule:nonzero;stroke:#000000;stroke-width:0.09999999;stroke-miterlimit:4;stroke-dasharray:none;stroke-dashoffset:0" />
    </clipPath>
    <clipPath
       id="clipPath1179"
       clipPathUnits="userSpaceOnUse">
      <rect
         y="215.81128"
         x="198.98714"
         height="8.5962687"
         width="16.905407"
         id="rect1181"
         style="opacity:1;fill:none;fill-opacity:1;fill-rule:nonzero;stroke:#000000;stroke-width:0.09999999;stroke-miterlimit:4;stroke-dasharray:none;stroke-dashoffset:0" />
    </clipPath>
    <clipPath
       clipPathUnits="userSpaceOnUse"
       id="clipPath982">
      <path
         style="fill:none;stroke:#000000;stroke-width:0.26458332px;stroke-linecap:butt;stroke-linejoin:miter;stroke-opacity:1"
         d="m 204.09448,204.09448 112.97398,-13.90918 7.64388,38.5252 z"
         id="path984"
         inkscape:connector-curvature="0" />
    </clipPath>
    <clipPath
       clipPathUnits="userSpaceOnUse"
       id="clipPath1017">
      <path
         style="fill:none;stroke:#000000;stroke-width:0.26458332px;stroke-linecap:butt;stroke-linejoin:miter;stroke-opacity:1"
         d="M 53.999999,53.999999 60.835155,26.212315 78.309083,29.77182 88.664002,55.659119 36.080423,76.854346 Z"
         id="path1019"
         inkscape:connector-curvature="0" />
    </clipPath>
    <filter
       height="1.0980412"
       y="-0.049020577"
       width="1.1546344"
       x="-0.077317171"
       id="filter3668-3"
       style="color-interpolation-filters:sRGB">
      <feGaussianBlur
         id="feGaussianBlur3670-9"
         stdDeviation="0.50003237" />
    </filter>
    <filter
       height="1.0980412"
       y="-0.049020577"
       width="1.1546344"
       x="-0.077317171"
       id="filter3668"
       style="color-interpolation-filters:sRGB">
      <feGaussianBlur
         id="feGaussianBlur3670"
         stdDeviation="0.50003237" />
    </filter>
    <filter
       height="1.0980412"
       y="-0.049020577"
       width="1.1546344"
       x="-0.077317171"
       id="filter902"
       style="color-interpolation-filters:sRGB">
      <feGaussianBlur
         id="feGaussianBlur900"
         stdDeviation="0.50003237" />
    </filter>
    <filter
       height="1.0980412"
       y="-0.049020577"
       width="1.1546344"
       x="-0.077317171"
       id="filter906"
       style="color-interpolation-filters:sRGB">
      <feGaussianBlur
         id="feGaussianBlur904"
         stdDeviation="0.50003237" />
    </filter>
    <filter
       height="1.0980412"
       y="-0.049020577"
       width="1.1546344"
       x="-0.077317171"
       id="filter3668-2"
       style="color-interpolation-filters:sRGB">
      <feGaussianBlur
         id="feGaussianBlur3670-4"
         stdDeviation="0.50003237" />
    </filter>
    <filter
       height="1.0980412"
       y="-0.049020577"
       width="1.1546344"
       x="-0.077317171"
       id="filter903"
       style="color-interpolation-filters:sRGB">
      <feGaussianBlur
         id="feGaussianBlur901"
         stdDeviation="0.50003237" />
    </filter>
    <filter
       height="1.0980412"
       y="-0.049020577"
       width="1.1546344"
       x="-0.077317171"
       id="filter907"
       style="color-interpolation-filters:sRGB">
      <feGaussianBlur
         id="feGaussianBlur905"
         stdDeviation="0.50003237" />
    </filter>
    <clipPath
       clipPathUnits="userSpaceOnUse"
       id="clipPath1017-8">
      <path
         style="fill:none;stroke:#000000;stroke-width:0.26458332px;stroke-linecap:butt;stroke-linejoin:miter;stroke-opacity:1"
         d="M 53.999999,53.999999 60.835155,26.212315 78.309083,29.77182 88.664002,55.659119 36.080423,76.854346 Z"
         id="path1019-3"
         inkscape:connector-curvature="0" />
    </clipPath>
    <filter
       height="1.0980412"
       y="-0.049020577"
       width="1.1546344"
       x="-0.077317171"
       id="filter3668-3-9"
       style="color-interpolation-filters:sRGB">
      <feGaussianBlur
         id="feGaussianBlur3670-9-0"
         stdDeviation="0.50003237" />
    </filter>
    <clipPath
       clipPathUnits="userSpaceOnUse"
       id="clipPath982-3">
      <path
         style="fill:none;stroke:#000000;stroke-width:0.26458332px;stroke-linecap:butt;stroke-linejoin:miter;stroke-opacity:1"
         d="m 204.09448,204.09448 112.97398,-13.90918 7.64388,38.5252 z"
         id="path984-7"
         inkscape:connector-curvature="0" />
    </clipPath>
    <clipPath
       clipPathUnits="userSpaceOnUse"
       id="clipPath982-0">
      <path
         style="fill:none;stroke:#000000;stroke-width:0.26458332px;stroke-linecap:butt;stroke-linejoin:miter;stroke-opacity:1"
         d="m 204.09448,204.09448 112.97398,-13.90918 7.64388,38.5252 z"
         id="path984-2"
         inkscape:connector-curvature="0" />
    </clipPath>
    <clipPath
       clipPathUnits="userSpaceOnUse"
       id="clipPath982-9">
      <path
         style="fill:none;stroke:#000000;stroke-width:0.26458332px;stroke-linecap:butt;stroke-linejoin:miter;stroke-opacity:1"
         d="m 204.09448,204.09448 112.97398,-13.90918 7.64388,38.5252 z"
         id="path984-9"
         inkscape:connector-curvature="0" />
    </clipPath>
    <clipPath
       clipPathUnits="userSpaceOnUse"
       id="clipPath982-03">
      <path
         style="fill:none;stroke:#000000;stroke-width:0.26458332px;stroke-linecap:butt;stroke-linejoin:miter;stroke-opacity:1"
         d="m 204.09448,204.09448 112.97398,-13.90918 7.64388,38.5252 z"
         id="path984-98"
         inkscape:connector-curvature="0" />
    </clipPath>
  </defs>
  <metadata
     id="metadata5">
    <rdf:RDF>
      <cc:Work
         rdf:about="">
        <dc:format>image/svg+xml</dc:format>
        <dc:type
           rdf:resource="http://purl.org/dc/dcmitype/StillImage" />
        <dc:title />
      </cc:Work>
    </rdf:RDF>
  </metadata>
  <g
     style="stroke-width:0.1;stroke-miterlimit:4;stroke-dasharray:none"
     transform="translate(360.48683,22.91443)"
     id="g1506" />
  <path
     style="fill:#ffffff;stroke:none;stroke-width:0.37795275;stroke-linecap:butt;stroke-linejoin:miter;stroke-miterlimit:4;stroke-dasharray:none;stroke-opacity:1"
     d="M 32.734375 98.267578 C 15.772763 98.267578 5.5878906 112.6158 5.5878906 125.41211 C 5.5878906 138.20846 15.712857 152.55859 32.734375 152.55859 C 35.378986 152.55859 38.350412 152.26536 41.529297 151.59766 C 43.945553 143.77354 48.92163 134.9567 58.042969 126.5293 C 72.335101 113.32438 98.267578 98.267578 98.267578 98.267578 L 32.734375 98.267578 z "
     transform="scale(0.26458334)"
     id="path4505" />
  <path
     style="fill:#ffffff;stroke:none;stroke-width:0.37795275;stroke-linecap:butt;stroke-linejoin:miter;stroke-miterlimit:4;stroke-dasharray:none;stroke-opacity:1"
     d="M 98.267578 98.267578 L 98.267578 163.80273 C 98.267578 180.76435 112.61576 190.94727 125.41211 190.94727 C 138.20846 190.94727 152.55859 180.82425 152.55859 163.80273 C 152.55859 161.15812 152.26536 158.18474 151.59766 155.00586 C 143.77354 152.5896 134.9567 147.61353 126.5293 138.49219 C 113.32438 124.20006 98.267578 98.267578 98.267578 98.267578 z "
     transform="scale(0.26458334)"
     id="path4509" />
  <path
     style="fill:#ffffff;stroke:none;stroke-width:0.37795275;stroke-linecap:butt;stroke-linejoin:miter;stroke-miterlimit:4;stroke-dasharray:none;stroke-opacity:1"
     d="M 71.123047 5.5878906 C 58.326701 5.5878906 43.976562 15.712857 43.976562 32.734375 C 43.976563 35.378986 44.269794 38.350412 44.9375 41.529297 C 52.761713 43.945509 61.57832 48.921481 70.005859 58.042969 C 83.210773 72.335101 98.267578 98.267578 98.267578 98.267578 L 98.267578 32.734375 C 98.267578 15.772763 83.919393 5.5878906 71.123047 5.5878906 z "
     transform="scale(0.26458334)"
     id="path4513" />
  <path
     style="fill:#ffffff;stroke:none;stroke-width:0.37795275;stroke-linecap:butt;stroke-linejoin:miter;stroke-miterlimit:4;stroke-dasharray:none;stroke-opacity:1"
     d="M 163.80273 43.976562 C 161.15811 43.976562 158.18475 44.269794 155.00586 44.9375 C 152.58965 52.761713 147.61368 61.57832 138.49219 70.005859 C 124.20006 83.210773 98.267578 98.267578 98.267578 98.267578 L 163.80273 98.267578 C 180.76435 98.267578 190.94727 83.919393 190.94727 71.123047 C 190.94727 58.326701 180.82425 43.976562 163.80273 43.976562 z "
     transform="scale(0.26458334)"
     id="path4517" />
  <path
     inkscape:connector-curvature="0"
     id="path4521"
     style="fill:#ffffff;fill-opacity:1;stroke:none;stroke-width:0;stroke-linecap:butt;stroke-linejoin:miter;stroke-miterlimit:4;stroke-dasharray:none;stroke-opacity:1"
     d="m 38.917911,8.68925 c 0,-4.49621 -3.41419,-7.17035 -6.45897,-7.17035 -3.04478,0 -6.45895,2.68996 -6.45895,7.17035 m 10e-6,0 c 0,0 -10e-6,17.31075 -10e-6,17.31075 0,0 5.71033,-3.98388 8.8575,-7.47768 3.14717,-3.4938 4.06042,-7.24373 4.06042,-9.83307" />
  <path
     inkscape:connector-curvature="0"
     d="m 8.689251,13.08208 c -4.49621,0 -7.17035,3.41419 -7.17035,6.45897 0,3.04478 2.68996,6.45895 7.17035,6.45895 m 0,-10e-6 c 0,0 17.31075,10e-6 17.31075,10e-6 0,0 -3.98388,-5.71033 -7.47768,-8.8575 -3.4938,-3.14717 -7.24373,-4.06042 -9.83307,-4.06042"
     style="fill:#ffffff;fill-opacity:1;stroke:none;stroke-width:0;stroke-linecap:butt;stroke-linejoin:miter;stroke-miterlimit:4;stroke-dasharray:none;stroke-opacity:1"
     id="path6341" />
  <path
     inkscape:connector-curvature="0"
     id="path6343"
     style="fill:#ffffff;fill-opacity:1;stroke:none;stroke-width:0;stroke-linecap:butt;stroke-linejoin:miter;stroke-miterlimit:4;stroke-dasharray:none;stroke-opacity:1"
     d="m 13.082071,43.31075 c 0,4.49621 3.41419,7.17035 6.45897,7.17035 3.04478,0 6.45895,-2.68996 6.45895,-7.17035 m -1e-5,0 c 0,0 1e-5,-17.31075 1e-5,-17.31075 0,0 -5.71033,3.98388 -8.8575,7.47768 -3.14717,3.4938 -4.06042,7.24373 -4.06042,9.83307" />
  <path
     inkscape:connector-curvature="0"
     d="m 43.310741,38.91792 c 4.49621,0 7.17035,-3.41419 7.17035,-6.45897 0,-3.04478 -2.68996,-6.45895 -7.17035,-6.45895 m 0,10e-6 c 0,0 -17.31075,-10e-6 -17.31075,-10e-6 0,0 3.98388,5.71033 7.47768,8.8575 3.4938,3.14717 7.24373,4.06042 9.83307,4.06042"
     style="fill:#ffffff;fill-opacity:1;stroke:none;stroke-width:0;stroke-linecap:butt;stroke-linejoin:miter;stroke-miterlimit:4;stroke-dasharray:none;stroke-opacity:1"
     id="path6345" />
  <path
     inkscape:connector-curvature="0"
     id="path4513-7"
     style="fill:#ffffff;stroke:none;stroke-width:0.1;stroke-linecap:butt;stroke-linejoin:miter;stroke-miterlimit:4;stroke-dasharray:none;stroke-opacity:1"
     d="m 139.61311,35.704595 c 0,-4.50361 3.79647,-7.18215 7.18217,-7.18215 3.3857,0 7.18214,2.69439 7.18214,7.18215 m -1e-5,0 1e-5,17.33923 c 0,0 -6.3497,-3.990441 -9.84925,-7.48998 -3.49956,-3.49955 -4.51506,-7.25565 -4.51506,-9.84925" />
  <path
     inkscape:connector-curvature="0"
     transform="rotate(-90,228.5013,313.47124)"
     id="path4515"
     style="opacity:0.57900002;fill:#808080;fill-opacity:1;stroke:none;stroke-width:0.1;stroke-linecap:butt;stroke-linejoin:miter;stroke-miterlimit:4;stroke-dasharray:none;stroke-opacity:1;filter:url(#filter3668)"
     d="m 504.4502,221.63662 c 0,-4.49621 -4.10231,-7.17035 -7.76076,-7.17035 -3.65845,0 -7.76073,2.68996 -7.76073,7.17035 m 10e-6,0 c 0,0 -10e-6,17.31075 -10e-6,17.31075 0,0 6.86124,-3.98388 10.6427,-7.47768 3.78149,-3.4938 4.87879,-7.24373 4.87879,-9.83307" />
  <path
     inkscape:connector-curvature="0"
     style="fill:#ffffff;stroke:none;stroke-width:0.1;stroke-linecap:butt;stroke-linejoin:miter;stroke-miterlimit:4;stroke-dasharray:none;stroke-opacity:1"
     d="m 136.66666,40.126071 c -4.49621,0 -7.17011,3.414257 -7.17011,6.459038 0,3.04478 2.68972,6.458521 7.17011,6.458521 h -0.0284 c -4.48776,0 -7.18199,3.796819 -7.18199,7.182507 0,3.385701 2.67838,7.181993 7.18199,7.181993 2.5936,0 6.34946,-1.01541 9.84901,-4.514972 3.49954,-3.49953 7.48998,-9.849528 7.48998,-9.849528 0,0 -3.98378,-5.710171 -7.47758,-8.85734 -3.4938,-3.147171 -7.24365,-4.060219 -9.83299,-4.060219 z"
     id="path4505-9" />
  <path
     inkscape:connector-curvature="0"
     transform="rotate(180,321.45306,145.99559)"
     d="m 504.4502,221.63662 c 0,-4.49621 -4.10231,-7.17035 -7.76076,-7.17035 -3.65845,0 -7.76073,2.68996 -7.76073,7.17035 m 10e-6,0 c 0,0 -10e-6,17.31075 -10e-6,17.31075 0,0 6.86124,-3.98388 10.6427,-7.47768 3.78149,-3.4938 4.87879,-7.24373 4.87879,-9.83307"
     style="opacity:0.57900002;fill:#808080;fill-opacity:1;stroke:none;stroke-width:0.1;stroke-linecap:butt;stroke-linejoin:miter;stroke-miterlimit:4;stroke-dasharray:none;stroke-opacity:1;filter:url(#filter3668)"
     id="path4507" />
  <path
     inkscape:connector-curvature="0"
     style="fill:#ffffff;stroke:none;stroke-width:0.1;stroke-linecap:butt;stroke-linejoin:miter;stroke-miterlimit:4;stroke-dasharray:none;stroke-opacity:1"
     d="m 153.97723,53.04363 c 0,0 -5.71017,3.984297 -8.85734,7.478096 -3.14717,3.4938 -4.06022,7.243652 -4.06022,9.832991 0,4.496211 3.41426,7.170106 6.45904,7.170106 3.04478,0 6.45852,-2.689715 6.45852,-7.170106 v 0.02843 c 0,4.487759 3.79681,7.18199 7.18251,7.18199 3.3857,0 7.18199,-2.678382 7.18199,-7.18199 0,-2.593602 -1.01541,-6.349979 -4.51497,-9.84953 -3.49954,-3.499538 -9.84953,-7.489982 -9.84953,-7.489982 z"
     id="path4509-3" />
  <path
     inkscape:connector-curvature="0"
     transform="rotate(90,414.40482,-21.480051)"
     id="path4511"
     style="opacity:0.57900002;fill:#808080;fill-opacity:1;stroke:none;stroke-width:0.1;stroke-linecap:butt;stroke-linejoin:miter;stroke-miterlimit:4;stroke-dasharray:none;stroke-opacity:1;filter:url(#filter3668)"
     d="m 504.4502,221.63662 c 0,-4.49621 -4.10231,-7.17035 -7.76076,-7.17035 -3.65845,0 -7.76073,2.68996 -7.76073,7.17035 m 10e-6,0 c 0,0 -10e-6,17.31075 -10e-6,17.31075 0,0 6.86124,-3.98388 10.6427,-7.47768 3.78149,-3.4938 4.87879,-7.24373 4.87879,-9.83307" />
  <path
     inkscape:connector-curvature="0"
     style="fill:#ffffff;stroke:none;stroke-width:0.1;stroke-linecap:butt;stroke-linejoin:miter;stroke-miterlimit:4;stroke-dasharray:none;stroke-opacity:1"
     d="m 171.31674,38.679649 c -2.59361,0 -6.34998,1.01541 -9.84953,4.51497 -3.49953,3.49954 -7.48998,9.849011 -7.48998,9.849011 0,0 3.9843,5.710688 7.4781,8.857859 3.4938,3.147168 7.24365,4.060216 9.83299,4.060216 4.49621,0 7.1701,-3.414257 7.1701,-6.459037 0,-3.04478 -2.68971,-6.459038 -7.1701,-6.459038 h 0.0284 c 4.48776,0 7.18199,-3.796292 7.18199,-7.18199 0,-3.385701 -2.67838,-7.181991 -7.18199,-7.181991 z"
     id="path4517-8" />
  <path
     transform="translate(99.977425,-0.95617474)"
     inkscape:connector-curvature="0"
     d="m 69.521297,36.689444 c 0,-4.49621 -4.10231,-7.17035 -7.76076,-7.17035 -3.65845,0 -7.76073,2.68996 -7.76073,7.17035 m 1e-5,0 c 0,0 -1e-5,17.31075 -1e-5,17.31075 0,0 6.86124,-3.98388 10.6427,-7.47768 3.78149,-3.4938 4.87879,-7.24373 4.87879,-9.83307"
     style="opacity:0.57900002;fill:#808080;fill-opacity:1;stroke:none;stroke-width:0.1;stroke-linecap:butt;stroke-linejoin:miter;stroke-miterlimit:4;stroke-dasharray:none;stroke-opacity:1;filter:url(#filter3668-3)"
     id="path4507-0"
     clip-path="url(#clipPath1017)" />
  <path
     inkscape:connector-curvature="0"
     id="path4521-0"
     style="fill:#ffffff;fill-opacity:1;stroke:none;stroke-width:0;stroke-linecap:butt;stroke-linejoin:miter;stroke-miterlimit:4;stroke-dasharray:none;stroke-opacity:1"
     d="m 166.89533,35.733075 c 0,-4.49621 -3.41418,-7.17035 -6.45896,-7.17035 -3.04478,0 -6.45895,2.68996 -6.45895,7.17035 m 1e-5,0 c 0,0 -1e-5,17.31075 -1e-5,17.31075 0,0 5.71033,-3.98388 8.85749,-7.47768 3.14718,-3.4938 4.06042,-7.24373 4.06042,-9.83307" />
  <path
     id="path970"
     d="m 269.62891,149.80469 c -9.80262,0 -23.99992,3.83777 -37.22657,17.06445 -13.22657,13.22661 -28.30859,37.22461 -28.30859,37.22461 0,0 15.05876,21.5837 28.26367,33.47852 13.20491,11.89481 27.37758,15.3457 37.16406,15.3457 16.99355,0 27.09961,-12.90428 27.09961,-24.41211 0,-11.50783 -10.16585,-24.41211 -27.09961,-24.41211 h 0.10743 c 16.96161,0 27.14453,-14.34819 27.14453,-27.14453 0,-12.79635 -10.12302,-27.14453 -27.14453,-27.14453 z"
     style="fill:#ffffff;stroke:none;stroke-width:0.37795275;stroke-linecap:butt;stroke-linejoin:miter;stroke-miterlimit:4;stroke-dasharray:none;stroke-opacity:1"
     transform="matrix(0,-0.26458334,0.26458334,0,99.977231,107.04402)"
     clip-path="url(#clipPath982)"
     inkscape:connector-curvature="0" />
  <path
     id="path970-9"
     d="m 269.62891,149.80469 c -9.80262,0 -23.99992,3.83777 -37.22657,17.06445 -13.22657,13.22661 -28.30859,37.22461 -28.30859,37.22461 0,0 15.05876,21.5837 28.26367,33.47852 13.20491,11.89481 27.37758,15.3457 37.16406,15.3457 16.99355,0 27.09961,-12.90428 27.09961,-24.41211 0,-11.50783 -10.16585,-24.41211 -27.09961,-24.41211 h 0.10743 c 16.96161,0 27.14453,-14.34819 27.14453,-27.14453 0,-12.79635 -10.12302,-27.14453 -27.14453,-27.14453 z"
     style="fill:#ffffff;stroke:none;stroke-width:0.37795275;stroke-linecap:butt;stroke-linejoin:miter;stroke-miterlimit:4;stroke-dasharray:none;stroke-opacity:1"
     transform="matrix(0,-0.26458334,0.26458334,0,-27.999998,79.999999)"
     clip-path="url(#clipPath982-3)"
     inkscape:connector-curvature="0" />
  <path
     id="path970-3"
     d="m 269.62891,149.80469 c -9.80262,0 -23.99992,3.83777 -37.22657,17.06445 -13.22657,13.22661 -28.30859,37.22461 -28.30859,37.22461 0,0 15.05876,21.5837 28.26367,33.47852 13.20491,11.89481 27.37758,15.3457 37.16406,15.3457 16.99355,0 27.09961,-12.90428 27.09961,-24.41211 0,-11.50783 -10.16585,-24.41211 -27.09961,-24.41211 h 0.10743 c 16.96161,0 27.14453,-14.34819 27.14453,-27.14453 0,-12.79635 -10.12302,-27.14453 -27.14453,-27.14453 z"
     style="fill:#ffffff;stroke:none;stroke-width:0.37795275;stroke-linecap:butt;stroke-linejoin:miter;stroke-miterlimit:4;stroke-dasharray:none;stroke-opacity:1"
     transform="matrix(0.26458334,0,0,0.26458334,-28.000035,-28.000035)"
     clip-path="url(#clipPath982-0)"
     inkscape:connector-curvature="0" />
  <path
     id="path970-7"
     d="m 269.62891,149.80469 c -9.80262,0 -23.99992,3.83777 -37.22657,17.06445 -13.22657,13.22661 -28.30859,37.22461 -28.30859,37.22461 0,0 15.05876,21.5837 28.26367,33.47852 13.20491,11.89481 27.37758,15.3457 37.16406,15.3457 16.99355,0 27.09961,-12.90428 27.09961,-24.41211 0,-11.50783 -10.16585,-24.41211 -27.09961,-24.41211 h 0.10743 c 16.96161,0 27.14453,-14.34819 27.14453,-27.14453 0,-12.79635 -10.12302,-27.14453 -27.14453,-27.14453 z"
     style="fill:#ffffff;stroke:none;stroke-width:0.37795275;stroke-linecap:butt;stroke-linejoin:miter;stroke-miterlimit:4;stroke-dasharray:none;stroke-opacity:1"
     transform="matrix(0,0.26458334,-0.26458334,0,80,-27.999999)"
     clip-path="url(#clipPath982-9)"
     inkscape:connector-curvature="0" />
  <path
     id="path970-6"
     d="m 269.62891,149.80469 c -9.80262,0 -23.99992,3.83777 -37.22657,17.06445 -13.22657,13.22661 -28.30859,37.22461 -28.30859,37.22461 0,0 15.05876,21.5837 28.26367,33.47852 13.20491,11.89481 27.37758,15.3457 37.16406,15.3457 16.99355,0 27.09961,-12.90428 27.09961,-24.41211 0,-11.50783 -10.16585,-24.41211 -27.09961,-24.41211 h 0.10743 c 16.96161,0 27.14453,-14.34819 27.14453,-27.14453 0,-12.79635 -10.12302,-27.14453 -27.14453,-27.14453 z"
     style="fill:#ffffff;stroke:none;stroke-width:0.37795275;stroke-linecap:butt;stroke-linejoin:miter;stroke-miterlimit:4;stroke-dasharray:none;stroke-opacity:1"
     transform="matrix(-0.26458334,0,0,-0.26458334,79.999614,79.999999)"
     clip-path="url(#clipPath982-03)"
     inkscape:connector-curvature="0" />
</svg>
