<?xml version="1.0" encoding="UTF-8" standalone="no"?>
<!-- Created with Inkscape (http://www.inkscape.org/) -->

<svg
   xmlns:dc="http://purl.org/dc/elements/1.1/"
   xmlns:cc="http://creativecommons.org/ns#"
   xmlns:rdf="http://www.w3.org/1999/02/22-rdf-syntax-ns#"
   xmlns:svg="http://www.w3.org/2000/svg"
   xmlns="http://www.w3.org/2000/svg"
   xmlns:sodipodi="http://sodipodi.sourceforge.net/DTD/sodipodi-0.dtd"
   xmlns:inkscape="http://www.inkscape.org/namespaces/inkscape"
   width="18"
   height="18"
   viewBox="0 0 4.7624998 4.7624998"
   version="1.1"
   id="svg862"
   inkscape:version="0.92.3 (2405546, 2018-03-11)"
   sodipodi:docname="tutorial_rowNum.svg">
  <defs
     id="defs856" />
  <sodipodi:namedview
     id="base"
     pagecolor="#ffffff"
     bordercolor="#666666"
     borderopacity="1.0"
     inkscape:pageopacity="0.0"
     inkscape:pageshadow="2"
     inkscape:zoom="15.839192"
     inkscape:cx="-2.5411354"
     inkscape:cy="11.874481"
     inkscape:document-units="mm"
     inkscape:current-layer="layer1"
     showgrid="false"
     fit-margin-top="0"
     fit-margin-left="0"
     fit-margin-right="0"
     fit-margin-bottom="0"
     inkscape:window-width="1920"
     inkscape:window-height="1048"
     inkscape:window-x="0"
     inkscape:window-y="32"
     inkscape:window-maximized="1"
     units="px" />
  <metadata
     id="metadata859">
    <rdf:RDF>
      <cc:Work
         rdf:about="">
        <dc:format>image/svg+xml</dc:format>
        <dc:type
           rdf:resource="http://purl.org/dc/dcmitype/StillImage" />
        <dc:title></dc:title>
      </cc:Work>
    </rdf:RDF>
  </metadata>
  <g
     inkscape:label="Layer 1"
     inkscape:groupmode="layer"
     id="layer1"
     transform="translate(25.059821,-17.940179)">
    <path
       inkscape:connector-curvature="0"
       id="path2"
       d="m -21.884821,22.702679 h 0.529166 v -0.529167 h -0.529166 z m 1.058333,0 h 0.529167 v -0.529167 h -0.529167 z m -3.175,0 h 0.529167 v -0.529167 h -0.529167 z m 1.058333,0 h 0.529167 v -0.529167 h -0.529167 z m 2.116667,-1.058334 h 0.529167 v -0.529166 h -0.529167 z m 0,-1.058333 h 0.529167 v -0.529167 h -0.529167 z m -4.233333,-2.645833 v 4.7625 h 0.529166 v -4.233334 h 4.233334 v -0.529166 z m 4.233333,1.5875 h 0.529167 v -0.529167 h -0.529167 z"
       style="stroke-width:0.26458332" />
    <g
       aria-label="1"
       style="font-style:normal;font-weight:normal;font-size:10.58333302px;line-height:1.25;font-family:sans-serif;letter-spacing:0px;word-spacing:0px;fill:#000000;fill-opacity:1;stroke:none;stroke-width:0.26458332"
       id="text1418">
      <path
         d="M -22.708685,21.625742 V 19.53388 q -0.05374,0.04961 -0.132292,0.09922 -0.07648,0.04754 -0.161231,0.09095 -0.08475,0.04134 -0.167431,0.07648 -0.08268,0.03307 -0.144694,0.05168 V 19.445 q 0.07028,-0.02894 0.16123,-0.08682 0.09302,-0.05788 0.179834,-0.121956 0.08682,-0.06615 0.157097,-0.126091 0.07028,-0.05994 0.09508,-0.09302 h 0.444417 v 2.608626 z"
         style="font-style:normal;font-variant:normal;font-weight:normal;font-stretch:normal;font-size:4.23333311px;font-family:'Abyssinica SIL';-inkscape-font-specification:'Abyssinica SIL';stroke-width:0.26458332"
         id="path1420"
         inkscape:connector-curvature="0" />
    </g>
  </g>
</svg>
